STARTFONT 2.1
FONT -FontForge-Rajdhani-Book-R-Normal--16-160-72-72-P-98-ISO10646-1
SIZE 16 72 72
FONTBOUNDINGBOX 39 19 -7 -5
COMMENT "Generated by fontforge, http://fontforge.sourceforge.net"
COMMENT "Copyright (c) 2014 Indian Type Foundry (info@indiantypefoundry.com)"
STARTPROPERTIES 40
FOUNDRY "FontForge"
FAMILY_NAME "Rajdhani"
WEIGHT_NAME "Book"
SLANT "R"
SETWIDTH_NAME "Normal"
ADD_STYLE_NAME ""
PIXEL_SIZE 16
POINT_SIZE 160
RESOLUTION_X 72
RESOLUTION_Y 72
SPACING "P"
AVERAGE_WIDTH 98
CHARSET_REGISTRY "ISO10646"
CHARSET_ENCODING "1"
FONTNAME_REGISTRY ""
CHARSET_COLLECTIONS "ISO8859-2 ISO8859-9 ISO8859-4 ISO10646-1"
FONT_NAME "Rajdhani-Regular"
FACE_NAME "Rajdhani Regular"
COPYRIGHT "Copyright (c) 2014 Indian Type Foundry (info@indiantypefoundry.com)"
FONT_VERSION "1.201;PS 1.0;hotconv 1.0.78;makeotf.lib2.5.61930; ttfautohint (v1.1) -l 7 -r 28 -G 50 -x 13 -D latn -f deva -w G"
FONT_ASCENT 13
FONT_DESCENT 3
UNDERLINE_POSITION -2
UNDERLINE_THICKNESS 1
X_HEIGHT 7
CAP_HEIGHT 9
DEFAULT_CHAR 3
RAW_ASCENT 800
RAW_DESCENT 200
NORM_SPACE 4
RELATIVE_WEIGHT 40
RELATIVE_SETWIDTH 50
SUPERSCRIPT_X 0
SUPERSCRIPT_Y 5
SUPERSCRIPT_SIZE 9
SUBSCRIPT_X 0
SUBSCRIPT_Y 1
SUBSCRIPT_SIZE 9
AVG_LOWERCASE_WIDTH 71
AVG_UPPERCASE_WIDTH 84
ENDPROPERTIES
CHARS 1043
STARTCHAR NULL.dup1
ENCODING 0
SWIDTH 0 0
DWIDTH 0 0
BBX 1 1 0 0
BITMAP
00
ENDCHAR
STARTCHAR CR
ENCODING 13
SWIDTH 0 0
DWIDTH 0 0
BBX 1 1 0 0
BITMAP
00
ENDCHAR
STARTCHAR space
ENCODING 32
SWIDTH 267 0
DWIDTH 4 0
BBX 1 1 0 0
BITMAP
00
ENDCHAR
STARTCHAR exclam
ENCODING 33
SWIDTH 237 0
DWIDTH 4 0
BBX 1 10 1 0
BITMAP
80
80
80
80
80
80
80
00
80
80
ENDCHAR
STARTCHAR quotedbl
ENCODING 34
SWIDTH 330 0
DWIDTH 5 0
BBX 3 3 1 7
BITMAP
A0
A0
A0
ENDCHAR
STARTCHAR numbersign
ENCODING 35
SWIDTH 677 0
DWIDTH 11 0
BBX 9 10 1 0
BITMAP
1100
1100
7F80
2200
2200
2200
2400
FF00
4400
4400
ENDCHAR
STARTCHAR dollar
ENCODING 36
SWIDTH 504 0
DWIDTH 8 0
BBX 6 13 1 -1
BITMAP
10
10
78
84
84
80
78
04
04
84
84
78
10
ENDCHAR
STARTCHAR percent
ENCODING 37
SWIDTH 717 0
DWIDTH 11 0
BBX 10 10 1 0
BITMAP
E200
9200
9400
9400
E800
0B80
0C40
1440
1440
2380
ENDCHAR
STARTCHAR ampersand
ENCODING 38
SWIDTH 597 0
DWIDTH 10 0
BBX 8 10 1 0
BITMAP
38
44
44
40
60
9F
88
84
84
7B
ENDCHAR
STARTCHAR quotesingle
ENCODING 39
SWIDTH 186 0
DWIDTH 3 0
BBX 1 3 1 7
BITMAP
80
80
80
ENDCHAR
STARTCHAR parenleft
ENCODING 40
SWIDTH 283 0
DWIDTH 5 0
BBX 2 12 1 -2
BITMAP
40
80
80
80
80
80
80
80
80
80
80
40
ENDCHAR
STARTCHAR parenright
ENCODING 41
SWIDTH 283 0
DWIDTH 5 0
BBX 2 12 1 -2
BITMAP
C0
40
40
40
40
40
40
40
40
40
40
80
ENDCHAR
STARTCHAR asterisk
ENCODING 42
SWIDTH 406 0
DWIDTH 7 0
BBX 4 4 1 6
BITMAP
20
F0
20
50
ENDCHAR
STARTCHAR plus
ENCODING 43
SWIDTH 523 0
DWIDTH 8 0
BBX 6 6 1 2
BITMAP
10
10
FC
10
10
10
ENDCHAR
STARTCHAR comma
ENCODING 44
SWIDTH 191 0
DWIDTH 3 0
BBX 1 4 1 -2
BITMAP
80
80
80
80
ENDCHAR
STARTCHAR hyphen
ENCODING 45
SWIDTH 312 0
DWIDTH 5 0
BBX 3 1 1 5
BITMAP
E0
ENDCHAR
STARTCHAR period
ENCODING 46
SWIDTH 191 0
DWIDTH 3 0
BBX 1 2 1 0
BITMAP
80
80
ENDCHAR
STARTCHAR slash
ENCODING 47
SWIDTH 396 0
DWIDTH 6 0
BBX 4 10 1 0
BITMAP
10
10
10
20
20
40
40
40
80
80
ENDCHAR
STARTCHAR zero
ENCODING 48
SWIDTH 514 0
DWIDTH 8 0
BBX 6 10 1 0
BITMAP
78
84
84
84
84
84
84
84
84
78
ENDCHAR
STARTCHAR one
ENCODING 49
SWIDTH 317 0
DWIDTH 5 0
BBX 3 10 1 0
BITMAP
60
A0
20
20
20
20
20
20
20
20
ENDCHAR
STARTCHAR two
ENCODING 50
SWIDTH 478 0
DWIDTH 8 0
BBX 6 10 1 0
BITMAP
78
84
84
04
08
30
40
80
80
FC
ENDCHAR
STARTCHAR three
ENCODING 51
SWIDTH 496 0
DWIDTH 8 0
BBX 6 10 1 0
BITMAP
78
84
84
04
38
04
04
84
84
78
ENDCHAR
STARTCHAR four
ENCODING 52
SWIDTH 520 0
DWIDTH 8 0
BBX 7 10 1 0
BITMAP
08
14
14
24
44
44
84
FE
04
04
ENDCHAR
STARTCHAR five
ENCODING 53
SWIDTH 482 0
DWIDTH 8 0
BBX 6 10 1 0
BITMAP
FC
80
80
F8
84
04
04
84
84
78
ENDCHAR
STARTCHAR six
ENCODING 54
SWIDTH 497 0
DWIDTH 8 0
BBX 6 10 1 0
BITMAP
78
80
80
80
F8
84
84
84
84
78
ENDCHAR
STARTCHAR seven
ENCODING 55
SWIDTH 380 0
DWIDTH 6 0
BBX 6 10 0 0
BITMAP
FC
04
08
08
10
10
10
20
20
40
ENDCHAR
STARTCHAR eight
ENCODING 56
SWIDTH 519 0
DWIDTH 8 0
BBX 6 10 1 0
BITMAP
7C
84
84
84
78
84
84
84
84
7C
ENDCHAR
STARTCHAR nine
ENCODING 57
SWIDTH 497 0
DWIDTH 8 0
BBX 6 10 1 0
BITMAP
78
84
84
84
84
7C
04
04
04
F8
ENDCHAR
STARTCHAR colon
ENCODING 58
SWIDTH 191 0
DWIDTH 3 0
BBX 1 8 1 0
BITMAP
80
80
00
00
00
00
80
80
ENDCHAR
STARTCHAR semicolon
ENCODING 59
SWIDTH 191 0
DWIDTH 3 0
BBX 1 10 1 -2
BITMAP
80
80
00
00
00
00
80
80
80
80
ENDCHAR
STARTCHAR less
ENCODING 60
SWIDTH 513 0
DWIDTH 8 0
BBX 6 6 1 2
BITMAP
04
38
C0
60
18
04
ENDCHAR
STARTCHAR equal
ENCODING 61
SWIDTH 531 0
DWIDTH 9 0
BBX 6 4 1 3
BITMAP
FC
00
00
FC
ENDCHAR
STARTCHAR greater
ENCODING 62
SWIDTH 531 0
DWIDTH 9 0
BBX 6 6 1 2
BITMAP
80
70
0C
0C
70
80
ENDCHAR
STARTCHAR question
ENCODING 63
SWIDTH 473 0
DWIDTH 8 0
BBX 5 10 1 0
BITMAP
78
88
88
08
10
20
20
00
20
20
ENDCHAR
STARTCHAR at
ENCODING 64
SWIDTH 753 0
DWIDTH 12 0
BBX 10 11 1 -1
BITMAP
3F80
4040
4040
9E40
9240
9240
9240
9240
5D80
4000
3E00
ENDCHAR
STARTCHAR A
ENCODING 65
SWIDTH 533 0
DWIDTH 9 0
BBX 8 10 0 0
BITMAP
08
18
14
24
24
22
3E
42
41
81
ENDCHAR
STARTCHAR B
ENCODING 66
SWIDTH 546 0
DWIDTH 9 0
BBX 7 10 1 0
BITMAP
FC
82
82
84
FC
82
82
82
82
FC
ENDCHAR
STARTCHAR C
ENCODING 67
SWIDTH 542 0
DWIDTH 9 0
BBX 7 10 1 0
BITMAP
7C
82
82
80
80
80
80
82
82
7C
ENDCHAR
STARTCHAR D
ENCODING 68
SWIDTH 557 0
DWIDTH 9 0
BBX 7 10 1 0
BITMAP
FC
82
82
82
82
82
82
82
82
FC
ENDCHAR
STARTCHAR E
ENCODING 69
SWIDTH 481 0
DWIDTH 8 0
BBX 6 10 1 0
BITMAP
FC
80
80
80
F8
80
80
80
80
FC
ENDCHAR
STARTCHAR F
ENCODING 70
SWIDTH 459 0
DWIDTH 7 0
BBX 6 10 1 0
BITMAP
FC
80
80
80
80
F8
80
80
80
80
ENDCHAR
STARTCHAR G
ENCODING 71
SWIDTH 539 0
DWIDTH 9 0
BBX 6 10 1 0
BITMAP
7C
84
84
80
80
9C
84
84
84
7C
ENDCHAR
STARTCHAR H
ENCODING 72
SWIDTH 570 0
DWIDTH 9 0
BBX 7 10 1 0
BITMAP
82
82
82
82
FE
82
82
82
82
82
ENDCHAR
STARTCHAR I
ENCODING 73
SWIDTH 230 0
DWIDTH 4 0
BBX 1 10 1 0
BITMAP
80
80
80
80
80
80
80
80
80
80
ENDCHAR
STARTCHAR J
ENCODING 74
SWIDTH 499 0
DWIDTH 8 0
BBX 6 10 1 0
BITMAP
04
04
04
04
04
04
84
84
84
F8
ENDCHAR
STARTCHAR K
ENCODING 75
SWIDTH 530 0
DWIDTH 8 0
BBX 7 10 1 0
BITMAP
86
84
88
90
A0
D0
88
88
84
82
ENDCHAR
STARTCHAR L
ENCODING 76
SWIDTH 451 0
DWIDTH 7 0
BBX 6 10 1 0
BITMAP
80
80
80
80
80
80
80
80
80
FC
ENDCHAR
STARTCHAR M
ENCODING 77
SWIDTH 696 0
DWIDTH 11 0
BBX 9 10 1 0
BITMAP
C180
C180
A280
A280
9280
9480
9480
8880
8080
8080
ENDCHAR
STARTCHAR N
ENCODING 78
SWIDTH 579 0
DWIDTH 9 0
BBX 7 10 1 0
BITMAP
82
C2
A2
A2
92
92
8A
86
86
82
ENDCHAR
STARTCHAR O
ENCODING 79
SWIDTH 553 0
DWIDTH 9 0
BBX 7 10 1 0
BITMAP
7C
82
82
82
82
82
82
82
82
7C
ENDCHAR
STARTCHAR P
ENCODING 80
SWIDTH 524 0
DWIDTH 8 0
BBX 6 10 1 0
BITMAP
FC
84
84
84
84
FC
80
80
80
80
ENDCHAR
STARTCHAR Q
ENCODING 81
SWIDTH 556 0
DWIDTH 9 0
BBX 7 12 1 -2
BITMAP
7C
82
82
82
82
82
82
82
82
7C
08
04
ENDCHAR
STARTCHAR R
ENCODING 82
SWIDTH 534 0
DWIDTH 9 0
BBX 7 10 1 0
BITMAP
FC
84
82
82
84
FC
88
84
84
82
ENDCHAR
STARTCHAR S
ENCODING 83
SWIDTH 562 0
DWIDTH 9 0
BBX 7 10 1 0
BITMAP
7C
82
82
80
70
0C
02
82
82
7C
ENDCHAR
STARTCHAR T
ENCODING 84
SWIDTH 420 0
DWIDTH 7 0
BBX 6 10 0 0
BITMAP
FC
10
10
10
10
10
10
10
10
10
ENDCHAR
STARTCHAR U
ENCODING 85
SWIDTH 552 0
DWIDTH 9 0
BBX 7 10 1 0
BITMAP
82
82
82
82
82
82
82
82
82
7C
ENDCHAR
STARTCHAR V
ENCODING 86
SWIDTH 500 0
DWIDTH 8 0
BBX 8 10 0 0
BITMAP
81
42
42
42
24
24
24
18
18
18
ENDCHAR
STARTCHAR W
ENCODING 87
SWIDTH 794 0
DWIDTH 13 0
BBX 11 10 1 0
BITMAP
8420
8C20
8A20
8A40
8A40
5240
5140
5140
6180
2080
ENDCHAR
STARTCHAR X
ENCODING 88
SWIDTH 504 0
DWIDTH 8 0
BBX 7 10 1 0
BITMAP
84
84
48
30
30
30
48
48
84
86
ENDCHAR
STARTCHAR Y
ENCODING 89
SWIDTH 493 0
DWIDTH 8 0
BBX 7 10 0 0
BITMAP
C2
42
24
24
18
18
10
10
10
10
ENDCHAR
STARTCHAR Z
ENCODING 90
SWIDTH 482 0
DWIDTH 8 0
BBX 6 10 1 0
BITMAP
FC
08
08
10
10
20
40
40
80
FC
ENDCHAR
STARTCHAR bracketleft
ENCODING 91
SWIDTH 287 0
DWIDTH 5 0
BBX 2 12 1 -2
BITMAP
C0
80
80
80
80
80
80
80
80
80
80
C0
ENDCHAR
STARTCHAR backslash
ENCODING 92
SWIDTH 396 0
DWIDTH 6 0
BBX 4 10 1 0
BITMAP
80
80
40
40
40
20
20
10
10
10
ENDCHAR
STARTCHAR bracketright
ENCODING 93
SWIDTH 287 0
DWIDTH 5 0
BBX 2 12 1 -2
BITMAP
C0
40
40
40
40
40
40
40
40
40
40
C0
ENDCHAR
STARTCHAR asciicircum
ENCODING 94
SWIDTH 465 0
DWIDTH 7 0
BBX 6 4 1 6
BITMAP
30
50
48
8C
ENDCHAR
STARTCHAR underscore
ENCODING 95
SWIDTH 372 0
DWIDTH 6 0
BBX 6 1 0 -2
BITMAP
FC
ENDCHAR
STARTCHAR grave
ENCODING 96
SWIDTH 269 0
DWIDTH 4 0
BBX 2 2 1 9
BITMAP
80
40
ENDCHAR
STARTCHAR a
ENCODING 97
SWIDTH 502 0
DWIDTH 8 0
BBX 6 8 1 0
BITMAP
7C
84
84
84
84
84
84
7C
ENDCHAR
STARTCHAR b
ENCODING 98
SWIDTH 504 0
DWIDTH 8 0
BBX 6 11 1 0
BITMAP
80
80
80
F8
84
84
84
84
84
84
F8
ENDCHAR
STARTCHAR c
ENCODING 99
SWIDTH 394 0
DWIDTH 6 0
BBX 5 8 1 0
BITMAP
78
80
80
80
80
80
80
78
ENDCHAR
STARTCHAR d
ENCODING 100
SWIDTH 504 0
DWIDTH 8 0
BBX 6 11 1 0
BITMAP
04
04
04
7C
84
84
84
84
84
84
7C
ENDCHAR
STARTCHAR e
ENCODING 101
SWIDTH 492 0
DWIDTH 8 0
BBX 6 8 1 0
BITMAP
78
84
84
84
FC
80
80
7C
ENDCHAR
STARTCHAR f
ENCODING 102
SWIDTH 303 0
DWIDTH 5 0
BBX 4 11 1 0
BITMAP
70
40
40
F0
40
40
40
40
40
40
40
ENDCHAR
STARTCHAR g
ENCODING 103
SWIDTH 506 0
DWIDTH 8 0
BBX 6 10 1 -2
BITMAP
7C
84
84
84
84
84
7C
04
04
78
ENDCHAR
STARTCHAR h
ENCODING 104
SWIDTH 507 0
DWIDTH 8 0
BBX 6 11 1 0
BITMAP
80
80
80
F8
84
84
84
84
84
84
84
ENDCHAR
STARTCHAR i
ENCODING 105
SWIDTH 210 0
DWIDTH 3 0
BBX 1 11 1 0
BITMAP
80
80
00
80
80
80
80
80
80
80
80
ENDCHAR
STARTCHAR j
ENCODING 106
SWIDTH 210 0
DWIDTH 3 0
BBX 3 13 -1 -2
BITMAP
20
20
00
20
20
20
20
20
20
20
20
20
C0
ENDCHAR
STARTCHAR k
ENCODING 107
SWIDTH 431 0
DWIDTH 7 0
BBX 6 11 1 0
BITMAP
80
80
80
88
88
90
A0
A0
90
88
8C
ENDCHAR
STARTCHAR l
ENCODING 108
SWIDTH 210 0
DWIDTH 3 0
BBX 1 11 1 0
BITMAP
80
80
80
80
80
80
80
80
80
80
80
ENDCHAR
STARTCHAR m
ENCODING 109
SWIDTH 769 0
DWIDTH 12 0
BBX 10 8 1 0
BITMAP
FB80
8440
8440
8440
8440
8440
8440
8440
ENDCHAR
STARTCHAR n
ENCODING 110
SWIDTH 507 0
DWIDTH 8 0
BBX 6 8 1 0
BITMAP
F8
84
84
84
84
84
84
84
ENDCHAR
STARTCHAR o
ENCODING 111
SWIDTH 496 0
DWIDTH 8 0
BBX 6 8 1 0
BITMAP
78
84
84
84
84
84
84
78
ENDCHAR
STARTCHAR p
ENCODING 112
SWIDTH 504 0
DWIDTH 8 0
BBX 6 10 1 -2
BITMAP
F8
84
84
84
84
84
84
F8
80
80
ENDCHAR
STARTCHAR q
ENCODING 113
SWIDTH 502 0
DWIDTH 8 0
BBX 6 10 1 -2
BITMAP
7C
84
84
84
84
84
84
7C
04
04
ENDCHAR
STARTCHAR r
ENCODING 114
SWIDTH 313 0
DWIDTH 5 0
BBX 4 8 1 0
BITMAP
F0
80
80
80
80
80
80
80
ENDCHAR
STARTCHAR s
ENCODING 115
SWIDTH 431 0
DWIDTH 7 0
BBX 5 8 1 0
BITMAP
F8
80
80
60
18
08
08
F8
ENDCHAR
STARTCHAR t
ENCODING 116
SWIDTH 347 0
DWIDTH 6 0
BBX 5 10 0 0
BITMAP
20
20
F8
20
20
20
20
20
20
38
ENDCHAR
STARTCHAR u
ENCODING 117
SWIDTH 507 0
DWIDTH 8 0
BBX 6 8 1 0
BITMAP
84
84
84
84
84
84
84
7C
ENDCHAR
STARTCHAR v
ENCODING 118
SWIDTH 416 0
DWIDTH 7 0
BBX 6 8 0 0
BITMAP
84
44
44
48
28
28
30
10
ENDCHAR
STARTCHAR w
ENCODING 119
SWIDTH 683 0
DWIDTH 11 0
BBX 11 8 0 0
BITMAP
8420
4C40
4A40
4A40
4A80
3280
3180
3100
ENDCHAR
STARTCHAR x
ENCODING 120
SWIDTH 413 0
DWIDTH 7 0
BBX 6 8 0 0
BITMAP
C4
48
28
30
30
28
48
C4
ENDCHAR
STARTCHAR y
ENCODING 121
SWIDTH 459 0
DWIDTH 7 0
BBX 7 10 0 -2
BITMAP
82
44
44
24
28
28
18
10
10
60
ENDCHAR
STARTCHAR z
ENCODING 122
SWIDTH 405 0
DWIDTH 6 0
BBX 5 8 1 0
BITMAP
F8
10
10
20
40
40
80
F8
ENDCHAR
STARTCHAR braceleft
ENCODING 123
SWIDTH 298 0
DWIDTH 5 0
BBX 3 12 1 -2
BITMAP
60
40
40
40
40
80
40
40
40
40
40
60
ENDCHAR
STARTCHAR bar
ENCODING 124
SWIDTH 207 0
DWIDTH 3 0
BBX 1 10 1 0
BITMAP
80
80
80
80
80
80
80
80
80
80
ENDCHAR
STARTCHAR braceright
ENCODING 125
SWIDTH 298 0
DWIDTH 5 0
BBX 3 12 1 -2
BITMAP
80
40
40
40
40
20
40
40
40
40
40
80
ENDCHAR
STARTCHAR asciitilde
ENCODING 126
SWIDTH 523 0
DWIDTH 8 0
BBX 6 1 1 4
BITMAP
FC
ENDCHAR
STARTCHAR uni00A0
ENCODING 160
SWIDTH 267 0
DWIDTH 4 0
BBX 1 1 0 0
BITMAP
00
ENDCHAR
STARTCHAR exclamdown
ENCODING 161
SWIDTH 237 0
DWIDTH 4 0
BBX 1 10 1 0
BITMAP
80
80
00
80
80
80
80
80
80
80
ENDCHAR
STARTCHAR cent
ENCODING 162
SWIDTH 414 0
DWIDTH 7 0
BBX 5 11 1 -1
BITMAP
10
10
78
80
80
80
80
80
80
78
10
ENDCHAR
STARTCHAR sterling
ENCODING 163
SWIDTH 528 0
DWIDTH 8 0
BBX 6 10 1 0
BITMAP
7C
44
44
40
40
F0
40
40
40
FC
ENDCHAR
STARTCHAR yen
ENCODING 165
SWIDTH 499 0
DWIDTH 8 0
BBX 8 10 0 0
BITMAP
C3
42
24
24
7E
18
10
7E
10
10
ENDCHAR
STARTCHAR brokenbar
ENCODING 166
SWIDTH 201 0
DWIDTH 3 0
BBX 1 10 1 0
BITMAP
80
80
80
80
00
00
80
80
80
80
ENDCHAR
STARTCHAR section
ENCODING 167
SWIDTH 454 0
DWIDTH 7 0
BBX 5 10 1 0
BITMAP
F8
80
80
F0
88
88
78
08
08
F8
ENDCHAR
STARTCHAR dieresis
ENCODING 168
SWIDTH 345 0
DWIDTH 6 0
BBX 3 2 1 9
BITMAP
A0
A0
ENDCHAR
STARTCHAR copyright
ENCODING 169
SWIDTH 723 0
DWIDTH 12 0
BBX 9 10 1 0
BITMAP
7F80
8080
9C80
A280
A080
A080
A280
9C80
8080
7F80
ENDCHAR
STARTCHAR guillemotleft
ENCODING 171
SWIDTH 431 0
DWIDTH 7 0
BBX 5 6 1 1
BITMAP
28
50
A0
A0
50
28
ENDCHAR
STARTCHAR registered
ENCODING 174
SWIDTH 439 0
DWIDTH 7 0
BBX 5 5 1 6
BITMAP
78
B8
A8
D8
70
ENDCHAR
STARTCHAR macron
ENCODING 175
SWIDTH 358 0
DWIDTH 6 0
BBX 4 1 1 9
BITMAP
F0
ENDCHAR
STARTCHAR degree
ENCODING 176
SWIDTH 298 0
DWIDTH 5 0
BBX 3 4 1 7
BITMAP
C0
A0
A0
C0
ENDCHAR
STARTCHAR plusminus
ENCODING 177
SWIDTH 523 0
DWIDTH 8 0
BBX 6 6 1 2
BITMAP
10
FC
10
10
00
FC
ENDCHAR
STARTCHAR acute
ENCODING 180
SWIDTH 269 0
DWIDTH 4 0
BBX 2 2 1 9
BITMAP
40
80
ENDCHAR
STARTCHAR paragraph
ENCODING 182
SWIDTH 513 0
DWIDTH 8 0
BBX 6 10 1 0
BITMAP
FC
C4
C4
C4
C4
24
24
24
24
24
ENDCHAR
STARTCHAR periodcentered
ENCODING 183
SWIDTH 207 0
DWIDTH 3 0
BBX 1 2 1 4
BITMAP
80
80
ENDCHAR
STARTCHAR cedilla
ENCODING 184
SWIDTH 257 0
DWIDTH 4 0
BBX 2 3 1 -3
BITMAP
40
C0
C0
ENDCHAR
STARTCHAR guillemotright
ENCODING 187
SWIDTH 431 0
DWIDTH 7 0
BBX 5 6 1 1
BITMAP
A0
90
68
48
90
A0
ENDCHAR
STARTCHAR questiondown
ENCODING 191
SWIDTH 473 0
DWIDTH 8 0
BBX 5 10 1 0
BITMAP
20
20
00
20
20
40
80
88
88
78
ENDCHAR
STARTCHAR Agrave
ENCODING 192
SWIDTH 532 0
DWIDTH 9 0
BBX 8 13 0 0
BITMAP
30
10
00
08
18
14
24
24
22
3E
42
41
81
ENDCHAR
STARTCHAR Aacute
ENCODING 193
SWIDTH 532 0
DWIDTH 9 0
BBX 8 13 0 0
BITMAP
04
08
00
08
18
14
24
24
22
3E
42
41
81
ENDCHAR
STARTCHAR Acircumflex
ENCODING 194
SWIDTH 532 0
DWIDTH 9 0
BBX 8 13 0 0
BITMAP
08
14
00
08
18
14
24
24
22
3E
42
41
81
ENDCHAR
STARTCHAR Atilde
ENCODING 195
SWIDTH 532 0
DWIDTH 9 0
BBX 8 13 0 0
BITMAP
2C
14
00
08
18
14
24
24
22
3E
42
41
81
ENDCHAR
STARTCHAR Adieresis
ENCODING 196
SWIDTH 532 0
DWIDTH 9 0
BBX 8 13 0 0
BITMAP
24
24
00
08
18
14
24
24
22
3E
42
41
81
ENDCHAR
STARTCHAR Aring
ENCODING 197
SWIDTH 532 0
DWIDTH 9 0
BBX 8 14 0 0
BITMAP
18
14
14
18
08
18
14
24
24
22
3E
42
41
81
ENDCHAR
STARTCHAR AE
ENCODING 198
SWIDTH 773 0
DWIDTH 12 0
BBX 11 10 0 0
BITMAP
07E0
0600
0A00
1200
13E0
2200
3E00
4200
4200
83E0
ENDCHAR
STARTCHAR Ccedilla
ENCODING 199
SWIDTH 542 0
DWIDTH 9 0
BBX 7 13 1 -3
BITMAP
7C
82
82
80
80
80
80
82
82
7C
10
08
10
ENDCHAR
STARTCHAR Egrave
ENCODING 200
SWIDTH 481 0
DWIDTH 8 0
BBX 6 13 1 0
BITMAP
60
20
00
FC
80
80
80
F8
80
80
80
80
FC
ENDCHAR
STARTCHAR Eacute
ENCODING 201
SWIDTH 481 0
DWIDTH 8 0
BBX 6 13 1 0
BITMAP
18
10
00
FC
80
80
80
F8
80
80
80
80
FC
ENDCHAR
STARTCHAR Ecircumflex
ENCODING 202
SWIDTH 481 0
DWIDTH 8 0
BBX 6 13 1 0
BITMAP
30
78
00
FC
80
80
80
F8
80
80
80
80
FC
ENDCHAR
STARTCHAR Edieresis
ENCODING 203
SWIDTH 481 0
DWIDTH 8 0
BBX 6 13 1 0
BITMAP
48
48
00
FC
80
80
80
F8
80
80
80
80
FC
ENDCHAR
STARTCHAR Igrave
ENCODING 204
SWIDTH 230 0
DWIDTH 4 0
BBX 2 13 0 0
BITMAP
80
40
00
40
40
40
40
40
40
40
40
40
40
ENDCHAR
STARTCHAR Iacute
ENCODING 205
SWIDTH 231 0
DWIDTH 4 0
BBX 3 13 1 0
BITMAP
60
40
00
80
80
80
80
80
80
80
80
80
80
ENDCHAR
STARTCHAR Icircumflex
ENCODING 206
SWIDTH 229 0
DWIDTH 4 0
BBX 3 13 0 0
BITMAP
60
A0
00
40
40
40
40
40
40
40
40
40
40
ENDCHAR
STARTCHAR Idieresis
ENCODING 207
SWIDTH 230 0
DWIDTH 4 0
BBX 4 13 0 0
BITMAP
90
90
00
40
40
40
40
40
40
40
40
40
40
ENDCHAR
STARTCHAR Eth
ENCODING 208
SWIDTH 514 0
DWIDTH 8 0
BBX 8 10 0 0
BITMAP
7E
41
41
41
F9
41
41
41
41
7E
ENDCHAR
STARTCHAR Ntilde
ENCODING 209
SWIDTH 579 0
DWIDTH 9 0
BBX 7 13 1 0
BITMAP
28
34
00
82
C2
A2
A2
92
92
8A
86
86
82
ENDCHAR
STARTCHAR Ograve
ENCODING 210
SWIDTH 553 0
DWIDTH 9 0
BBX 7 13 1 0
BITMAP
20
10
00
7C
82
82
82
82
82
82
82
82
7C
ENDCHAR
STARTCHAR Oacute
ENCODING 211
SWIDTH 553 0
DWIDTH 9 0
BBX 7 13 1 0
BITMAP
08
10
00
7C
82
82
82
82
82
82
82
82
7C
ENDCHAR
STARTCHAR Ocircumflex
ENCODING 212
SWIDTH 553 0
DWIDTH 9 0
BBX 7 13 1 0
BITMAP
10
28
00
7C
82
82
82
82
82
82
82
82
7C
ENDCHAR
STARTCHAR Otilde
ENCODING 213
SWIDTH 553 0
DWIDTH 9 0
BBX 7 13 1 0
BITMAP
58
38
00
7C
82
82
82
82
82
82
82
82
7C
ENDCHAR
STARTCHAR Odieresis
ENCODING 214
SWIDTH 553 0
DWIDTH 9 0
BBX 7 13 1 0
BITMAP
28
28
00
7C
82
82
82
82
82
82
82
82
7C
ENDCHAR
STARTCHAR multiply
ENCODING 215
SWIDTH 493 0
DWIDTH 8 0
BBX 4 4 2 3
BITMAP
90
60
60
90
ENDCHAR
STARTCHAR Oslash
ENCODING 216
SWIDTH 559 0
DWIDTH 9 0
BBX 7 10 1 0
BITMAP
7E
82
86
8A
92
92
A2
C2
82
FC
ENDCHAR
STARTCHAR Ugrave
ENCODING 217
SWIDTH 552 0
DWIDTH 9 0
BBX 7 13 1 0
BITMAP
20
10
00
82
82
82
82
82
82
82
82
82
7C
ENDCHAR
STARTCHAR Uacute
ENCODING 218
SWIDTH 552 0
DWIDTH 9 0
BBX 7 13 1 0
BITMAP
08
10
00
82
82
82
82
82
82
82
82
82
7C
ENDCHAR
STARTCHAR Ucircumflex
ENCODING 219
SWIDTH 552 0
DWIDTH 9 0
BBX 7 13 1 0
BITMAP
10
28
00
82
82
82
82
82
82
82
82
82
7C
ENDCHAR
STARTCHAR Udieresis
ENCODING 220
SWIDTH 552 0
DWIDTH 9 0
BBX 7 13 1 0
BITMAP
28
28
00
82
82
82
82
82
82
82
82
82
7C
ENDCHAR
STARTCHAR Yacute
ENCODING 221
SWIDTH 493 0
DWIDTH 8 0
BBX 7 13 0 0
BITMAP
0C
08
00
C2
42
24
24
18
18
10
10
10
10
ENDCHAR
STARTCHAR Thorn
ENCODING 222
SWIDTH 501 0
DWIDTH 8 0
BBX 5 10 2 0
BITMAP
80
80
F0
88
88
88
88
F0
80
80
ENDCHAR
STARTCHAR germandbls
ENCODING 223
SWIDTH 540 0
DWIDTH 9 0
BBX 7 10 1 0
BITMAP
7C
84
84
84
98
84
82
82
84
9C
ENDCHAR
STARTCHAR agrave
ENCODING 224
SWIDTH 502 0
DWIDTH 8 0
BBX 6 11 1 0
BITMAP
20
10
00
7C
84
84
84
84
84
84
7C
ENDCHAR
STARTCHAR aacute
ENCODING 225
SWIDTH 502 0
DWIDTH 8 0
BBX 6 11 1 0
BITMAP
08
10
00
7C
84
84
84
84
84
84
7C
ENDCHAR
STARTCHAR acircumflex
ENCODING 226
SWIDTH 502 0
DWIDTH 8 0
BBX 6 11 1 0
BITMAP
10
28
00
7C
84
84
84
84
84
84
7C
ENDCHAR
STARTCHAR atilde
ENCODING 227
SWIDTH 504 0
DWIDTH 8 0
BBX 6 11 1 0
BITMAP
58
28
00
7C
84
84
84
84
84
84
7C
ENDCHAR
STARTCHAR adieresis
ENCODING 228
SWIDTH 502 0
DWIDTH 8 0
BBX 6 11 1 0
BITMAP
48
48
00
7C
84
84
84
84
84
84
7C
ENDCHAR
STARTCHAR aring
ENCODING 229
SWIDTH 502 0
DWIDTH 8 0
BBX 6 12 1 0
BITMAP
30
28
28
30
7C
84
84
84
84
84
84
7C
ENDCHAR
STARTCHAR ae
ENCODING 230
SWIDTH 795 0
DWIDTH 13 0
BBX 11 8 1 0
BITMAP
7BC0
0420
0420
7C20
87E0
8400
8400
7BE0
ENDCHAR
STARTCHAR ccedilla
ENCODING 231
SWIDTH 394 0
DWIDTH 6 0
BBX 5 11 1 -3
BITMAP
78
80
80
80
80
80
80
78
20
10
30
ENDCHAR
STARTCHAR egrave
ENCODING 232
SWIDTH 492 0
DWIDTH 8 0
BBX 6 11 1 0
BITMAP
60
20
00
78
84
84
84
FC
80
80
7C
ENDCHAR
STARTCHAR eacute
ENCODING 233
SWIDTH 492 0
DWIDTH 8 0
BBX 6 11 1 0
BITMAP
18
30
00
78
84
84
84
FC
80
80
7C
ENDCHAR
STARTCHAR ecircumflex
ENCODING 234
SWIDTH 492 0
DWIDTH 8 0
BBX 6 11 1 0
BITMAP
30
78
00
78
84
84
84
FC
80
80
7C
ENDCHAR
STARTCHAR edieresis
ENCODING 235
SWIDTH 492 0
DWIDTH 8 0
BBX 6 11 1 0
BITMAP
48
48
00
78
84
84
84
FC
80
80
7C
ENDCHAR
STARTCHAR igrave
ENCODING 236
SWIDTH 210 0
DWIDTH 3 0
BBX 2 11 0 0
BITMAP
80
40
00
40
40
40
40
40
40
40
40
ENDCHAR
STARTCHAR iacute
ENCODING 237
SWIDTH 208 0
DWIDTH 3 0
BBX 3 11 1 0
BITMAP
60
80
00
80
80
80
80
80
80
80
80
ENDCHAR
STARTCHAR icircumflex
ENCODING 238
SWIDTH 210 0
DWIDTH 3 0
BBX 3 11 0 0
BITMAP
40
A0
00
40
40
40
40
40
40
40
40
ENDCHAR
STARTCHAR idieresis
ENCODING 239
SWIDTH 210 0
DWIDTH 3 0
BBX 3 11 0 0
BITMAP
A0
A0
00
40
40
40
40
40
40
40
40
ENDCHAR
STARTCHAR eth
ENCODING 240
SWIDTH 488 0
DWIDTH 8 0
BBX 6 12 1 0
BITMAP
40
28
30
50
08
7C
84
84
84
84
84
78
ENDCHAR
STARTCHAR ntilde
ENCODING 241
SWIDTH 507 0
DWIDTH 8 0
BBX 6 11 1 0
BITMAP
58
68
00
F8
84
84
84
84
84
84
84
ENDCHAR
STARTCHAR ograve
ENCODING 242
SWIDTH 496 0
DWIDTH 8 0
BBX 6 11 1 0
BITMAP
40
20
00
78
84
84
84
84
84
84
78
ENDCHAR
STARTCHAR oacute
ENCODING 243
SWIDTH 496 0
DWIDTH 8 0
BBX 6 11 1 0
BITMAP
08
10
00
78
84
84
84
84
84
84
78
ENDCHAR
STARTCHAR ocircumflex
ENCODING 244
SWIDTH 496 0
DWIDTH 8 0
BBX 6 11 1 0
BITMAP
30
58
00
78
84
84
84
84
84
84
78
ENDCHAR
STARTCHAR otilde
ENCODING 245
SWIDTH 496 0
DWIDTH 8 0
BBX 6 11 1 0
BITMAP
58
68
00
78
84
84
84
84
84
84
78
ENDCHAR
STARTCHAR odieresis
ENCODING 246
SWIDTH 496 0
DWIDTH 8 0
BBX 6 11 1 0
BITMAP
48
48
00
78
84
84
84
84
84
84
78
ENDCHAR
STARTCHAR divide
ENCODING 247
SWIDTH 510 0
DWIDTH 8 0
BBX 6 5 1 3
BITMAP
10
00
FC
00
10
ENDCHAR
STARTCHAR oslash
ENCODING 248
SWIDTH 521 0
DWIDTH 8 0
BBX 8 8 0 0
BITMAP
3D
42
46
4A
52
62
42
BC
ENDCHAR
STARTCHAR ugrave
ENCODING 249
SWIDTH 507 0
DWIDTH 8 0
BBX 6 11 1 0
BITMAP
60
20
00
84
84
84
84
84
84
84
7C
ENDCHAR
STARTCHAR uacute
ENCODING 250
SWIDTH 507 0
DWIDTH 8 0
BBX 6 11 1 0
BITMAP
08
10
00
84
84
84
84
84
84
84
7C
ENDCHAR
STARTCHAR ucircumflex
ENCODING 251
SWIDTH 507 0
DWIDTH 8 0
BBX 6 11 1 0
BITMAP
30
78
00
84
84
84
84
84
84
84
7C
ENDCHAR
STARTCHAR udieresis
ENCODING 252
SWIDTH 507 0
DWIDTH 8 0
BBX 6 11 1 0
BITMAP
48
48
00
84
84
84
84
84
84
84
7C
ENDCHAR
STARTCHAR yacute
ENCODING 253
SWIDTH 459 0
DWIDTH 7 0
BBX 7 13 0 -2
BITMAP
0C
18
00
82
44
44
24
28
28
18
10
10
60
ENDCHAR
STARTCHAR thorn
ENCODING 254
SWIDTH 508 0
DWIDTH 8 0
BBX 6 13 1 -2
BITMAP
80
80
80
F8
84
84
84
84
84
84
F8
80
80
ENDCHAR
STARTCHAR ydieresis
ENCODING 255
SWIDTH 459 0
DWIDTH 7 0
BBX 7 13 0 -2
BITMAP
28
28
00
82
44
44
24
28
28
18
10
10
60
ENDCHAR
STARTCHAR Amacron
ENCODING 256
SWIDTH 532 0
DWIDTH 9 0
BBX 8 13 0 0
BITMAP
3C
00
00
08
18
14
24
24
22
3E
42
41
81
ENDCHAR
STARTCHAR amacron
ENCODING 257
SWIDTH 502 0
DWIDTH 8 0
BBX 6 10 1 0
BITMAP
38
00
7C
84
84
84
84
84
84
7C
ENDCHAR
STARTCHAR Abreve
ENCODING 258
SWIDTH 532 0
DWIDTH 9 0
BBX 8 13 0 0
BITMAP
24
18
00
08
18
14
24
24
22
3E
42
41
81
ENDCHAR
STARTCHAR abreve
ENCODING 259
SWIDTH 502 0
DWIDTH 8 0
BBX 6 11 1 0
BITMAP
28
30
00
7C
84
84
84
84
84
84
7C
ENDCHAR
STARTCHAR Aogonek
ENCODING 260
SWIDTH 532 0
DWIDTH 9 0
BBX 8 12 0 -2
BITMAP
08
18
14
24
24
22
3E
42
41
81
02
03
ENDCHAR
STARTCHAR aogonek
ENCODING 261
SWIDTH 502 0
DWIDTH 8 0
BBX 6 10 1 -2
BITMAP
7C
84
84
84
84
84
84
7C
08
0C
ENDCHAR
STARTCHAR Cacute
ENCODING 262
SWIDTH 542 0
DWIDTH 9 0
BBX 7 13 1 0
BITMAP
08
10
00
7C
82
82
80
80
80
80
82
82
7C
ENDCHAR
STARTCHAR cacute
ENCODING 263
SWIDTH 394 0
DWIDTH 6 0
BBX 5 11 1 0
BITMAP
10
20
00
78
80
80
80
80
80
80
78
ENDCHAR
STARTCHAR Cdotaccent
ENCODING 266
SWIDTH 542 0
DWIDTH 9 0
BBX 7 13 1 0
BITMAP
10
10
00
7C
82
82
80
80
80
80
82
82
7C
ENDCHAR
STARTCHAR cdotaccent
ENCODING 267
SWIDTH 394 0
DWIDTH 6 0
BBX 5 11 1 0
BITMAP
20
20
00
78
80
80
80
80
80
80
78
ENDCHAR
STARTCHAR Ccaron
ENCODING 268
SWIDTH 542 0
DWIDTH 9 0
BBX 7 13 1 0
BITMAP
28
10
00
7C
82
82
80
80
80
80
82
82
7C
ENDCHAR
STARTCHAR ccaron
ENCODING 269
SWIDTH 394 0
DWIDTH 6 0
BBX 5 11 1 0
BITMAP
50
20
00
78
80
80
80
80
80
80
78
ENDCHAR
STARTCHAR Dcaron
ENCODING 270
SWIDTH 557 0
DWIDTH 9 0
BBX 7 13 1 0
BITMAP
28
10
00
FC
82
82
82
82
82
82
82
82
FC
ENDCHAR
STARTCHAR dcaron
ENCODING 271
SWIDTH 534 0
DWIDTH 9 0
BBX 8 11 1 0
BITMAP
05
05
05
7E
84
84
84
84
84
84
7C
ENDCHAR
STARTCHAR Dcroat
ENCODING 272
SWIDTH 514 0
DWIDTH 8 0
BBX 8 10 0 0
BITMAP
7E
41
41
41
F9
41
41
41
41
7E
ENDCHAR
STARTCHAR dcroat
ENCODING 273
SWIDTH 539 0
DWIDTH 9 0
BBX 7 11 1 0
BITMAP
04
3E
04
04
7C
84
84
84
84
84
7C
ENDCHAR
STARTCHAR Emacron
ENCODING 274
SWIDTH 481 0
DWIDTH 8 0
BBX 6 13 1 0
BITMAP
78
00
00
FC
80
80
80
F8
80
80
80
80
FC
ENDCHAR
STARTCHAR emacron
ENCODING 275
SWIDTH 492 0
DWIDTH 8 0
BBX 6 10 1 0
BITMAP
78
00
78
84
84
84
FC
80
80
7C
ENDCHAR
STARTCHAR Ebreve
ENCODING 276
SWIDTH 481 0
DWIDTH 8 0
BBX 6 13 1 0
BITMAP
48
30
00
FC
80
80
80
F8
80
80
80
80
FC
ENDCHAR
STARTCHAR ebreve
ENCODING 277
SWIDTH 492 0
DWIDTH 8 0
BBX 6 11 1 0
BITMAP
48
30
00
78
84
84
84
FC
80
80
7C
ENDCHAR
STARTCHAR Edotaccent
ENCODING 278
SWIDTH 496 0
DWIDTH 8 0
BBX 6 13 1 0
BITMAP
20
20
00
FC
80
80
80
F8
80
80
80
80
FC
ENDCHAR
STARTCHAR edotaccent
ENCODING 279
SWIDTH 492 0
DWIDTH 8 0
BBX 6 11 1 0
BITMAP
20
20
00
78
84
84
84
FC
80
80
7C
ENDCHAR
STARTCHAR Eogonek
ENCODING 280
SWIDTH 481 0
DWIDTH 8 0
BBX 6 12 1 -2
BITMAP
FC
80
80
80
F8
80
80
80
80
FC
10
18
ENDCHAR
STARTCHAR eogonek
ENCODING 281
SWIDTH 492 0
DWIDTH 8 0
BBX 6 10 1 -2
BITMAP
78
84
84
84
FC
80
80
7C
08
18
ENDCHAR
STARTCHAR Ecaron
ENCODING 282
SWIDTH 481 0
DWIDTH 8 0
BBX 6 13 1 0
BITMAP
78
30
00
FC
80
80
80
F8
80
80
80
80
FC
ENDCHAR
STARTCHAR ecaron
ENCODING 283
SWIDTH 492 0
DWIDTH 8 0
BBX 6 11 1 0
BITMAP
78
30
00
78
84
84
84
FC
80
80
7C
ENDCHAR
STARTCHAR Gcircumflex
ENCODING 284
SWIDTH 539 0
DWIDTH 9 0
BBX 6 13 1 0
BITMAP
10
28
00
7C
84
84
80
80
9C
84
84
84
7C
ENDCHAR
STARTCHAR gcircumflex
ENCODING 285
SWIDTH 506 0
DWIDTH 8 0
BBX 6 13 1 -2
BITMAP
10
28
00
7C
84
84
84
84
84
7C
04
04
78
ENDCHAR
STARTCHAR Gbreve
ENCODING 286
SWIDTH 539 0
DWIDTH 9 0
BBX 6 13 1 0
BITMAP
28
30
00
7C
84
84
80
80
9C
84
84
84
7C
ENDCHAR
STARTCHAR gbreve
ENCODING 287
SWIDTH 506 0
DWIDTH 8 0
BBX 6 13 1 -2
BITMAP
28
38
00
7C
84
84
84
84
84
7C
04
04
78
ENDCHAR
STARTCHAR Gdotaccent
ENCODING 288
SWIDTH 539 0
DWIDTH 9 0
BBX 6 13 1 0
BITMAP
10
10
00
7C
84
84
80
80
9C
84
84
84
7C
ENDCHAR
STARTCHAR gdotaccent
ENCODING 289
SWIDTH 506 0
DWIDTH 8 0
BBX 6 13 1 -2
BITMAP
10
10
00
7C
84
84
84
84
84
7C
04
04
78
ENDCHAR
STARTCHAR uni0122
ENCODING 290
SWIDTH 539 0
DWIDTH 9 0
BBX 6 14 1 -4
BITMAP
7C
84
84
80
80
9C
84
84
84
7C
00
10
10
10
ENDCHAR
STARTCHAR uni0123
ENCODING 291
SWIDTH 506 0
DWIDTH 8 0
BBX 6 14 1 -2
BITMAP
10
10
10
00
7C
84
84
84
84
84
7C
04
04
78
ENDCHAR
STARTCHAR hcircumflex
ENCODING 293
SWIDTH 507 0
DWIDTH 8 0
BBX 6 12 1 0
BITMAP
10
A8
80
80
F8
84
84
84
84
84
84
84
ENDCHAR
STARTCHAR Hbar
ENCODING 294
SWIDTH 523 0
DWIDTH 8 0
BBX 9 10 0 0
BITMAP
4100
4100
FF80
4100
7F00
4100
4100
4100
4100
4100
ENDCHAR
STARTCHAR hbar
ENCODING 295
SWIDTH 544 0
DWIDTH 9 0
BBX 8 11 0 0
BITMAP
20
F8
20
20
3E
21
21
21
21
21
21
ENDCHAR
STARTCHAR Itilde
ENCODING 296
SWIDTH 230 0
DWIDTH 4 0
BBX 4 13 0 0
BITMAP
A0
D0
00
40
40
40
40
40
40
40
40
40
40
ENDCHAR
STARTCHAR itilde
ENCODING 297
SWIDTH 210 0
DWIDTH 3 0
BBX 3 11 0 0
BITMAP
A0
E0
00
40
40
40
40
40
40
40
40
ENDCHAR
STARTCHAR Imacron
ENCODING 298
SWIDTH 230 0
DWIDTH 4 0
BBX 4 13 0 0
BITMAP
F0
00
00
40
40
40
40
40
40
40
40
40
40
ENDCHAR
STARTCHAR imacron
ENCODING 299
SWIDTH 208 0
DWIDTH 3 0
BBX 3 10 0 0
BITMAP
E0
00
40
40
40
40
40
40
40
40
ENDCHAR
STARTCHAR Ibreve
ENCODING 300
SWIDTH 231 0
DWIDTH 4 0
BBX 3 13 0 0
BITMAP
A0
60
00
40
40
40
40
40
40
40
40
40
40
ENDCHAR
STARTCHAR ibreve
ENCODING 301
SWIDTH 211 0
DWIDTH 3 0
BBX 3 11 0 0
BITMAP
A0
60
00
40
40
40
40
40
40
40
40
ENDCHAR
STARTCHAR Iogonek
ENCODING 302
SWIDTH 230 0
DWIDTH 4 0
BBX 2 12 0 -2
BITMAP
40
40
40
40
40
40
40
40
40
40
40
C0
ENDCHAR
STARTCHAR iogonek
ENCODING 303
SWIDTH 210 0
DWIDTH 3 0
BBX 2 13 0 -2
BITMAP
40
40
00
40
40
40
40
40
40
40
40
40
C0
ENDCHAR
STARTCHAR Idotaccent
ENCODING 304
SWIDTH 230 0
DWIDTH 4 0
BBX 1 13 1 0
BITMAP
80
80
00
80
80
80
80
80
80
80
80
80
80
ENDCHAR
STARTCHAR dotlessi
ENCODING 305
SWIDTH 212 0
DWIDTH 3 0
BBX 1 8 1 0
BITMAP
80
80
80
80
80
80
80
80
ENDCHAR
STARTCHAR IJ
ENCODING 306
SWIDTH 721 0
DWIDTH 12 0
BBX 9 10 1 0
BITMAP
8080
8080
8080
8080
8080
8080
9080
9080
9080
8F80
ENDCHAR
STARTCHAR ij
ENCODING 307
SWIDTH 419 0
DWIDTH 7 0
BBX 4 13 1 -2
BITMAP
90
90
00
90
90
90
90
90
90
90
90
10
30
ENDCHAR
STARTCHAR Jcircumflex
ENCODING 308
SWIDTH 494 0
DWIDTH 8 0
BBX 7 13 1 0
BITMAP
04
0A
00
04
04
04
04
04
04
84
84
84
F8
ENDCHAR
STARTCHAR jcircumflex
ENCODING 309
SWIDTH 209 0
DWIDTH 3 0
BBX 4 13 -1 -2
BITMAP
20
50
00
20
20
20
20
20
20
20
20
20
C0
ENDCHAR
STARTCHAR uni0136
ENCODING 310
SWIDTH 530 0
DWIDTH 8 0
BBX 7 14 1 -4
BITMAP
86
84
88
90
A0
D0
88
88
84
82
10
10
10
10
ENDCHAR
STARTCHAR uni0137
ENCODING 311
SWIDTH 431 0
DWIDTH 7 0
BBX 6 15 1 -4
BITMAP
80
80
80
88
88
90
A0
A0
90
88
8C
00
20
20
20
ENDCHAR
STARTCHAR Lacute
ENCODING 313
SWIDTH 451 0
DWIDTH 7 0
BBX 6 13 1 0
BITMAP
60
C0
00
80
80
80
80
80
80
80
80
80
FC
ENDCHAR
STARTCHAR lacute
ENCODING 314
SWIDTH 207 0
DWIDTH 3 0
BBX 3 14 1 0
BITMAP
60
80
00
80
80
80
80
80
80
80
80
80
80
80
ENDCHAR
STARTCHAR uni013B
ENCODING 315
SWIDTH 451 0
DWIDTH 7 0
BBX 6 14 1 -4
BITMAP
80
80
80
80
80
80
80
80
80
FC
00
10
20
20
ENDCHAR
STARTCHAR uni013C
ENCODING 316
SWIDTH 211 0
DWIDTH 3 0
BBX 1 15 1 -4
BITMAP
80
80
80
80
80
80
80
80
80
80
80
00
80
80
80
ENDCHAR
STARTCHAR Lcaron
ENCODING 317
SWIDTH 451 0
DWIDTH 7 0
BBX 6 10 1 0
BITMAP
88
88
88
88
80
80
80
80
80
FC
ENDCHAR
STARTCHAR lcaron
ENCODING 318
SWIDTH 274 0
DWIDTH 4 0
BBX 3 11 1 0
BITMAP
A0
A0
A0
A0
80
80
80
80
80
80
80
ENDCHAR
STARTCHAR Ldot
ENCODING 319
SWIDTH 500 0
DWIDTH 8 0
BBX 6 10 1 0
BITMAP
80
80
80
80
90
90
80
80
80
FC
ENDCHAR
STARTCHAR ldot
ENCODING 320
SWIDTH 314 0
DWIDTH 5 0
BBX 3 11 1 0
BITMAP
80
80
80
80
80
A0
A0
80
80
80
80
ENDCHAR
STARTCHAR Lslash
ENCODING 321
SWIDTH 504 0
DWIDTH 8 0
BBX 7 10 0 0
BITMAP
40
40
50
60
C0
40
40
40
40
7E
ENDCHAR
STARTCHAR lslash
ENCODING 322
SWIDTH 296 0
DWIDTH 5 0
BBX 4 11 0 0
BITMAP
20
20
20
30
60
A0
20
20
20
20
20
ENDCHAR
STARTCHAR Nacute
ENCODING 323
SWIDTH 579 0
DWIDTH 9 0
BBX 7 13 1 0
BITMAP
0C
18
00
82
C2
A2
A2
92
92
8A
86
86
82
ENDCHAR
STARTCHAR nacute
ENCODING 324
SWIDTH 507 0
DWIDTH 8 0
BBX 6 11 1 0
BITMAP
08
10
00
F8
84
84
84
84
84
84
84
ENDCHAR
STARTCHAR uni0145
ENCODING 325
SWIDTH 579 0
DWIDTH 9 0
BBX 7 14 1 -4
BITMAP
82
C2
A2
A2
92
92
8A
86
86
82
00
10
10
10
ENDCHAR
STARTCHAR uni0146
ENCODING 326
SWIDTH 505 0
DWIDTH 8 0
BBX 6 12 1 -4
BITMAP
F8
84
84
84
84
84
84
84
00
10
10
20
ENDCHAR
STARTCHAR Ncaron
ENCODING 327
SWIDTH 579 0
DWIDTH 9 0
BBX 7 13 1 0
BITMAP
28
10
00
82
C2
A2
A2
92
92
8A
86
86
82
ENDCHAR
STARTCHAR ncaron
ENCODING 328
SWIDTH 507 0
DWIDTH 8 0
BBX 6 11 1 0
BITMAP
28
30
00
F8
84
84
84
84
84
84
84
ENDCHAR
STARTCHAR Eng
ENCODING 330
SWIDTH 519 0
DWIDTH 8 0
BBX 7 12 1 -2
BITMAP
82
C2
A2
A2
92
92
8A
86
86
82
02
0C
ENDCHAR
STARTCHAR eng
ENCODING 331
SWIDTH 507 0
DWIDTH 8 0
BBX 6 10 1 -2
BITMAP
F8
84
84
84
84
84
84
84
04
18
ENDCHAR
STARTCHAR Omacron
ENCODING 332
SWIDTH 553 0
DWIDTH 9 0
BBX 7 13 1 0
BITMAP
38
00
00
7C
82
82
82
82
82
82
82
82
7C
ENDCHAR
STARTCHAR omacron
ENCODING 333
SWIDTH 496 0
DWIDTH 8 0
BBX 6 10 1 0
BITMAP
78
00
78
84
84
84
84
84
84
78
ENDCHAR
STARTCHAR Obreve
ENCODING 334
SWIDTH 553 0
DWIDTH 9 0
BBX 7 13 1 0
BITMAP
28
30
00
7C
82
82
82
82
82
82
82
82
7C
ENDCHAR
STARTCHAR obreve
ENCODING 335
SWIDTH 496 0
DWIDTH 8 0
BBX 6 11 1 0
BITMAP
48
30
00
78
84
84
84
84
84
84
78
ENDCHAR
STARTCHAR Ohungarumlaut
ENCODING 336
SWIDTH 553 0
DWIDTH 9 0
BBX 7 13 1 0
BITMAP
14
28
00
7C
82
82
82
82
82
82
82
82
7C
ENDCHAR
STARTCHAR ohungarumlaut
ENCODING 337
SWIDTH 496 0
DWIDTH 8 0
BBX 6 11 1 0
BITMAP
3C
28
00
78
84
84
84
84
84
84
78
ENDCHAR
STARTCHAR OE
ENCODING 338
SWIDTH 775 0
DWIDTH 12 0
BBX 10 10 1 0
BITMAP
7FC0
8400
8400
8400
87C0
8400
8400
8400
8400
7FC0
ENDCHAR
STARTCHAR oe
ENCODING 339
SWIDTH 812 0
DWIDTH 13 0
BBX 11 8 1 0
BITMAP
7BC0
8420
8420
8420
87E0
8400
8400
7BE0
ENDCHAR
STARTCHAR Racute
ENCODING 340
SWIDTH 534 0
DWIDTH 9 0
BBX 7 13 1 0
BITMAP
18
10
00
FC
84
82
82
84
FC
88
84
84
82
ENDCHAR
STARTCHAR racute
ENCODING 341
SWIDTH 313 0
DWIDTH 5 0
BBX 4 11 1 0
BITMAP
20
40
00
F0
80
80
80
80
80
80
80
ENDCHAR
STARTCHAR uni0156
ENCODING 342
SWIDTH 534 0
DWIDTH 9 0
BBX 7 14 1 -4
BITMAP
FC
84
82
82
84
FC
88
84
84
82
00
10
10
10
ENDCHAR
STARTCHAR uni0157
ENCODING 343
SWIDTH 313 0
DWIDTH 5 0
BBX 4 12 1 -4
BITMAP
F0
80
80
80
80
80
80
80
00
80
80
80
ENDCHAR
STARTCHAR Rcaron
ENCODING 344
SWIDTH 534 0
DWIDTH 9 0
BBX 7 13 1 0
BITMAP
38
30
00
FC
84
82
82
84
FC
88
84
84
82
ENDCHAR
STARTCHAR rcaron
ENCODING 345
SWIDTH 313 0
DWIDTH 5 0
BBX 4 11 1 0
BITMAP
A0
40
00
F0
80
80
80
80
80
80
80
ENDCHAR
STARTCHAR Sacute
ENCODING 346
SWIDTH 562 0
DWIDTH 9 0
BBX 7 13 1 0
BITMAP
08
10
00
7C
82
82
80
70
0C
02
82
82
7C
ENDCHAR
STARTCHAR sacute
ENCODING 347
SWIDTH 427 0
DWIDTH 7 0
BBX 5 11 1 0
BITMAP
10
20
00
F8
80
80
60
18
08
08
F8
ENDCHAR
STARTCHAR Scircumflex
ENCODING 348
SWIDTH 562 0
DWIDTH 9 0
BBX 7 13 1 0
BITMAP
10
28
00
7C
82
82
80
70
0C
02
82
82
7C
ENDCHAR
STARTCHAR scircumflex
ENCODING 349
SWIDTH 427 0
DWIDTH 7 0
BBX 5 11 1 0
BITMAP
20
50
00
F8
80
80
60
18
08
08
F8
ENDCHAR
STARTCHAR uni015E
ENCODING 350
SWIDTH 562 0
DWIDTH 9 0
BBX 7 13 1 -3
BITMAP
7C
82
82
80
70
0C
02
82
82
7C
10
18
18
ENDCHAR
STARTCHAR uni015F
ENCODING 351
SWIDTH 427 0
DWIDTH 7 0
BBX 5 11 1 -3
BITMAP
F8
80
80
60
18
08
08
F8
20
30
20
ENDCHAR
STARTCHAR Scaron
ENCODING 352
SWIDTH 562 0
DWIDTH 9 0
BBX 7 13 1 0
BITMAP
28
10
00
7C
82
82
80
70
0C
02
82
82
7C
ENDCHAR
STARTCHAR scaron
ENCODING 353
SWIDTH 427 0
DWIDTH 7 0
BBX 5 11 1 0
BITMAP
50
20
00
F8
80
80
60
18
08
08
F8
ENDCHAR
STARTCHAR uni0162
ENCODING 354
SWIDTH 420 0
DWIDTH 7 0
BBX 6 14 0 -4
BITMAP
FC
10
10
10
10
10
10
10
10
10
10
10
10
10
ENDCHAR
STARTCHAR uni0163
ENCODING 355
SWIDTH 347 0
DWIDTH 6 0
BBX 5 14 0 -4
BITMAP
20
20
F8
20
20
20
20
20
20
38
10
10
10
10
ENDCHAR
STARTCHAR Tcaron
ENCODING 356
SWIDTH 420 0
DWIDTH 7 0
BBX 6 13 0 0
BITMAP
28
10
00
FC
10
10
10
10
10
10
10
10
10
ENDCHAR
STARTCHAR tcaron
ENCODING 357
SWIDTH 396 0
DWIDTH 6 0
BBX 6 10 0 0
BITMAP
24
24
FC
24
20
20
20
20
20
38
ENDCHAR
STARTCHAR Tbar
ENCODING 358
SWIDTH 501 0
DWIDTH 8 0
BBX 7 10 0 0
BITMAP
FE
10
10
10
7C
10
10
10
10
10
ENDCHAR
STARTCHAR tbar
ENCODING 359
SWIDTH 350 0
DWIDTH 6 0
BBX 5 10 0 0
BITMAP
20
20
F8
20
20
F8
20
20
20
38
ENDCHAR
STARTCHAR Utilde
ENCODING 360
SWIDTH 552 0
DWIDTH 9 0
BBX 7 13 1 0
BITMAP
58
38
00
82
82
82
82
82
82
82
82
82
7C
ENDCHAR
STARTCHAR utilde
ENCODING 361
SWIDTH 507 0
DWIDTH 8 0
BBX 6 11 1 0
BITMAP
58
68
00
84
84
84
84
84
84
84
7C
ENDCHAR
STARTCHAR Umacron
ENCODING 362
SWIDTH 552 0
DWIDTH 9 0
BBX 7 13 1 0
BITMAP
38
00
00
82
82
82
82
82
82
82
82
82
7C
ENDCHAR
STARTCHAR umacron
ENCODING 363
SWIDTH 507 0
DWIDTH 8 0
BBX 6 10 1 0
BITMAP
78
00
84
84
84
84
84
84
84
7C
ENDCHAR
STARTCHAR Ubreve
ENCODING 364
SWIDTH 552 0
DWIDTH 9 0
BBX 7 13 1 0
BITMAP
28
30
00
82
82
82
82
82
82
82
82
82
7C
ENDCHAR
STARTCHAR ubreve
ENCODING 365
SWIDTH 507 0
DWIDTH 8 0
BBX 6 11 1 0
BITMAP
48
30
00
84
84
84
84
84
84
84
7C
ENDCHAR
STARTCHAR Uring
ENCODING 366
SWIDTH 552 0
DWIDTH 9 0
BBX 7 14 1 0
BITMAP
30
28
28
10
82
82
82
82
82
82
82
82
82
7C
ENDCHAR
STARTCHAR uring
ENCODING 367
SWIDTH 507 0
DWIDTH 8 0
BBX 6 12 1 0
BITMAP
30
50
50
30
84
84
84
84
84
84
84
7C
ENDCHAR
STARTCHAR Uhungarumlaut
ENCODING 368
SWIDTH 552 0
DWIDTH 9 0
BBX 7 13 1 0
BITMAP
14
28
00
82
82
82
82
82
82
82
82
82
7C
ENDCHAR
STARTCHAR uhungarumlaut
ENCODING 369
SWIDTH 507 0
DWIDTH 8 0
BBX 6 11 1 0
BITMAP
3C
28
00
84
84
84
84
84
84
84
7C
ENDCHAR
STARTCHAR Uogonek
ENCODING 370
SWIDTH 552 0
DWIDTH 9 0
BBX 7 12 1 -2
BITMAP
82
82
82
82
82
82
82
82
82
7C
10
10
ENDCHAR
STARTCHAR uogonek
ENCODING 371
SWIDTH 503 0
DWIDTH 8 0
BBX 6 10 1 -2
BITMAP
84
84
84
84
84
84
84
7C
08
0C
ENDCHAR
STARTCHAR Wcircumflex
ENCODING 372
SWIDTH 795 0
DWIDTH 13 0
BBX 11 13 1 0
BITMAP
0400
0A00
0000
8420
8C20
8A20
8A40
8A40
5240
5140
5140
6180
2080
ENDCHAR
STARTCHAR wcircumflex
ENCODING 373
SWIDTH 682 0
DWIDTH 11 0
BBX 11 11 0 0
BITMAP
0400
0A00
0000
8420
4C40
4A40
4A40
4A80
3280
3180
3100
ENDCHAR
STARTCHAR Ycircumflex
ENCODING 374
SWIDTH 493 0
DWIDTH 8 0
BBX 7 13 0 0
BITMAP
18
28
00
C2
42
24
24
18
18
10
10
10
10
ENDCHAR
STARTCHAR ycircumflex
ENCODING 375
SWIDTH 459 0
DWIDTH 7 0
BBX 7 13 0 -2
BITMAP
10
28
00
82
44
44
24
28
28
18
10
10
60
ENDCHAR
STARTCHAR Ydieresis
ENCODING 376
SWIDTH 493 0
DWIDTH 8 0
BBX 7 13 0 0
BITMAP
24
24
00
C2
42
24
24
18
18
10
10
10
10
ENDCHAR
STARTCHAR Zacute
ENCODING 377
SWIDTH 482 0
DWIDTH 8 0
BBX 6 13 1 0
BITMAP
08
10
00
FC
08
08
10
10
20
40
40
80
FC
ENDCHAR
STARTCHAR zacute
ENCODING 378
SWIDTH 405 0
DWIDTH 6 0
BBX 5 11 1 0
BITMAP
10
20
00
F8
10
10
20
40
40
80
F8
ENDCHAR
STARTCHAR Zdotaccent
ENCODING 379
SWIDTH 482 0
DWIDTH 8 0
BBX 6 13 1 0
BITMAP
10
10
00
FC
08
08
10
10
20
40
40
80
FC
ENDCHAR
STARTCHAR zdotaccent
ENCODING 380
SWIDTH 405 0
DWIDTH 6 0
BBX 5 11 1 0
BITMAP
20
20
00
F8
10
10
20
40
40
80
F8
ENDCHAR
STARTCHAR Zcaron
ENCODING 381
SWIDTH 482 0
DWIDTH 8 0
BBX 6 13 1 0
BITMAP
28
30
00
FC
08
08
10
10
20
40
40
80
FC
ENDCHAR
STARTCHAR zcaron
ENCODING 382
SWIDTH 405 0
DWIDTH 6 0
BBX 5 11 1 0
BITMAP
50
20
00
F8
10
10
20
40
40
80
F8
ENDCHAR
STARTCHAR florin
ENCODING 402
SWIDTH 494 0
DWIDTH 8 0
BBX 8 13 0 -2
BITMAP
07
04
08
08
3E
08
10
10
10
10
10
20
C0
ENDCHAR
STARTCHAR AEacute
ENCODING 508
SWIDTH 773 0
DWIDTH 12 0
BBX 11 13 0 0
BITMAP
0180
0300
0000
07E0
0600
0A00
1200
13E0
2200
3E00
4200
4200
83E0
ENDCHAR
STARTCHAR aeacute
ENCODING 509
SWIDTH 795 0
DWIDTH 13 0
BBX 11 11 1 0
BITMAP
0200
0400
0000
7BC0
0420
0420
7C20
87E0
8400
8400
7BE0
ENDCHAR
STARTCHAR Oslashacute
ENCODING 510
SWIDTH 558 0
DWIDTH 9 0
BBX 7 13 1 0
BITMAP
08
10
00
7E
82
86
8A
92
92
A2
C2
82
FC
ENDCHAR
STARTCHAR oslashacute
ENCODING 511
SWIDTH 521 0
DWIDTH 8 0
BBX 8 11 0 0
BITMAP
04
08
00
3D
42
46
4A
52
62
42
BC
ENDCHAR
STARTCHAR uni0218
ENCODING 536
SWIDTH 562 0
DWIDTH 9 0
BBX 7 14 1 -4
BITMAP
7C
82
82
80
70
0C
02
82
82
7C
00
10
10
10
ENDCHAR
STARTCHAR uni0219
ENCODING 537
SWIDTH 427 0
DWIDTH 7 0
BBX 5 12 1 -4
BITMAP
F8
80
80
60
18
08
08
F8
20
20
20
20
ENDCHAR
STARTCHAR circumflex
ENCODING 710
SWIDTH 326 0
DWIDTH 5 0
BBX 3 2 1 9
BITMAP
40
A0
ENDCHAR
STARTCHAR caron
ENCODING 711
SWIDTH 326 0
DWIDTH 5 0
BBX 3 2 1 9
BITMAP
A0
40
ENDCHAR
STARTCHAR uni02C9
ENCODING 713
SWIDTH 358 0
DWIDTH 6 0
BBX 4 1 1 9
BITMAP
F0
ENDCHAR
STARTCHAR breve
ENCODING 728
SWIDTH 332 0
DWIDTH 5 0
BBX 3 2 1 9
BITMAP
A0
60
ENDCHAR
STARTCHAR dotaccent
ENCODING 729
SWIDTH 183 0
DWIDTH 3 0
BBX 1 2 1 9
BITMAP
80
80
ENDCHAR
STARTCHAR ring
ENCODING 730
SWIDTH 297 0
DWIDTH 5 0
BBX 2 3 1 8
BITMAP
C0
C0
C0
ENDCHAR
STARTCHAR ogonek
ENCODING 731
SWIDTH 243 0
DWIDTH 4 0
BBX 2 2 1 -2
BITMAP
C0
C0
ENDCHAR
STARTCHAR tilde
ENCODING 732
SWIDTH 369 0
DWIDTH 6 0
BBX 3 3 1 8
BITMAP
A0
E0
E0
ENDCHAR
STARTCHAR hungarumlaut
ENCODING 733
SWIDTH 377 0
DWIDTH 6 0
BBX 4 2 1 9
BITMAP
50
A0
ENDCHAR
STARTCHAR Mu
ENCODING 924
SWIDTH 527 0
DWIDTH 8 0
BBX 6 10 1 -1
BITMAP
84
84
84
84
84
84
84
CC
B4
80
ENDCHAR
STARTCHAR Pi
ENCODING 928
SWIDTH 605 0
DWIDTH 10 0
BBX 8 10 1 0
BITMAP
FF
44
44
44
44
44
44
44
44
44
ENDCHAR
STARTCHAR Sigma
ENCODING 931
SWIDTH 481 0
DWIDTH 8 0
BBX 6 10 1 0
BITMAP
FC
80
40
20
10
20
20
40
80
FC
ENDCHAR
STARTCHAR uni0901
ENCODING 2305
SWIDTH 0 0
DWIDTH 0 0
BBX 5 3 -4 11
BITMAP
20
88
F0
ENDCHAR
STARTCHAR uni0902
ENCODING 2306
SWIDTH 0 0
DWIDTH 0 0
BBX 1 1 -2 12
BITMAP
80
ENDCHAR
STARTCHAR uni0903
ENCODING 2307
SWIDTH 247 0
DWIDTH 4 0
BBX 1 6 1 1
BITMAP
80
00
00
00
00
80
ENDCHAR
STARTCHAR uni0905
ENCODING 2309
SWIDTH 598 0
DWIDTH 10 0
BBX 9 10 1 0
BITMAP
E380
1200
1200
1200
6200
1E00
1200
1200
E200
0200
ENDCHAR
STARTCHAR uni0906
ENCODING 2310
SWIDTH 828 0
DWIDTH 13 0
BBX 12 10 1 0
BITMAP
E3F0
1220
1220
1220
6220
1E20
1220
1220
E220
0220
ENDCHAR
STARTCHAR uni0907
ENCODING 2311
SWIDTH 478 0
DWIDTH 8 0
BBX 8 10 0 0
BITMAP
FF
04
3C
40
40
3C
02
42
46
78
ENDCHAR
STARTCHAR uni0908
ENCODING 2312
SWIDTH 478 0
DWIDTH 8 0
BBX 8 14 0 0
BITMAP
06
08
08
08
FF
04
3C
40
40
3C
02
42
46
78
ENDCHAR
STARTCHAR uni0909
ENCODING 2313
SWIDTH 471 0
DWIDTH 8 0
BBX 8 10 0 0
BITMAP
FF
04
04
04
18
04
42
42
44
38
ENDCHAR
STARTCHAR uni090A
ENCODING 2314
SWIDTH 661 0
DWIDTH 11 0
BBX 11 10 0 0
BITMAP
FFE0
0400
0400
0400
1F80
0440
4240
4240
4440
3980
ENDCHAR
STARTCHAR uni090B
ENCODING 2315
SWIDTH 753 0
DWIDTH 12 0
BBX 12 10 0 0
BITMAP
FFF0
0200
3A60
44A0
4320
4260
0C80
1280
2280
4260
ENDCHAR
STARTCHAR uni090C
ENCODING 2316
SWIDTH 676 0
DWIDTH 11 0
BBX 11 13 0 -3
BITMAP
FFE0
0080
3B80
4480
4480
4480
4080
4080
3080
0180
0200
0220
01C0
ENDCHAR
STARTCHAR uni090D
ENCODING 2317
SWIDTH 521 0
DWIDTH 8 0
BBX 9 13 0 1
BITMAP
2200
3C00
0000
0000
FF80
4200
4200
4200
4E00
4000
4000
4000
3E00
ENDCHAR
STARTCHAR uni090E
ENCODING 2318
SWIDTH 522 0
DWIDTH 8 0
BBX 9 13 0 1
BITMAP
1000
1800
0400
0200
FF80
4200
4200
4200
4E00
4000
4000
4000
3E00
ENDCHAR
STARTCHAR uni090F
ENCODING 2319
SWIDTH 526 0
DWIDTH 8 0
BBX 9 9 0 1
BITMAP
FF80
4200
4200
4200
4E00
4000
4000
4000
3E00
ENDCHAR
STARTCHAR uni0910
ENCODING 2320
SWIDTH 526 0
DWIDTH 8 0
BBX 9 13 0 1
BITMAP
0800
0400
0400
0200
FF80
4200
4200
4200
4E00
4000
4000
4000
3E00
ENDCHAR
STARTCHAR uni0911
ENCODING 2321
SWIDTH 829 0
DWIDTH 13 0
BBX 13 14 1 0
BITMAP
0220
0220
01C0
0000
E3F8
1220
1220
1220
6220
1E20
1220
1220
E220
0220
ENDCHAR
STARTCHAR uni0912
ENCODING 2322
SWIDTH 828 0
DWIDTH 13 0
BBX 12 14 1 0
BITMAP
0100
0100
00C0
0020
E3F0
1220
1220
1220
6220
1E20
1220
1220
E220
0220
ENDCHAR
STARTCHAR uni0913
ENCODING 2323
SWIDTH 829 0
DWIDTH 13 0
BBX 13 14 1 0
BITMAP
0180
0080
0040
0020
E3F8
1220
1220
1220
6220
1E20
1220
1220
E220
0220
ENDCHAR
STARTCHAR uni0914
ENCODING 2324
SWIDTH 829 0
DWIDTH 13 0
BBX 13 14 1 0
BITMAP
0120
00A0
0060
0020
E3F8
1220
1220
1220
6220
1E20
1220
1220
E220
0220
ENDCHAR
STARTCHAR uni0915
ENCODING 2325
SWIDTH 725 0
DWIDTH 12 0
BBX 12 10 0 0
BITMAP
FFF0
0400
37C0
4420
4420
4420
4420
3DC0
0400
0400
ENDCHAR
STARTCHAR uni0916
ENCODING 2326
SWIDTH 696 0
DWIDTH 11 0
BBX 11 10 0 0
BITMAP
FFE0
1040
1340
1440
6440
4440
23C0
2040
1040
0840
ENDCHAR
STARTCHAR uni0917
ENCODING 2327
SWIDTH 494 0
DWIDTH 8 0
BBX 8 10 0 0
BITMAP
FF
22
22
22
22
C2
02
02
02
02
ENDCHAR
STARTCHAR uni0918
ENCODING 2328
SWIDTH 559 0
DWIDTH 9 0
BBX 9 10 0 0
BITMAP
FF80
4100
4100
3100
4100
4100
4200
3D00
0100
0100
ENDCHAR
STARTCHAR uni0919
ENCODING 2329
SWIDTH 505 0
DWIDTH 8 0
BBX 8 10 0 0
BITMAP
FF
04
3C
40
41
3C
02
42
44
38
ENDCHAR
STARTCHAR uni091A
ENCODING 2330
SWIDTH 563 0
DWIDTH 9 0
BBX 9 10 0 0
BITMAP
FF80
0100
F900
2100
2100
2100
2300
1D00
0100
0100
ENDCHAR
STARTCHAR uni091B
ENCODING 2331
SWIDTH 581 0
DWIDTH 9 0
BBX 10 9 0 1
BITMAP
FFC0
4100
4100
4600
3100
4100
4100
4100
3E00
ENDCHAR
STARTCHAR uni091C
ENCODING 2332
SWIDTH 547 0
DWIDTH 9 0
BBX 9 10 0 0
BITMAP
FF80
0200
0200
7E00
1200
0A00
0A00
1200
F200
0200
ENDCHAR
STARTCHAR uni091D
ENCODING 2333
SWIDTH 664 0
DWIDTH 11 0
BBX 11 10 0 0
BITMAP
FFE0
0480
3C80
4080
4080
3F80
4480
4480
7C80
4080
ENDCHAR
STARTCHAR uni091E
ENCODING 2334
SWIDTH 592 0
DWIDTH 9 0
BBX 10 10 0 0
BITMAP
FFC0
0100
7100
0900
0F00
0900
0900
7100
0100
0100
ENDCHAR
STARTCHAR uni091F
ENCODING 2335
SWIDTH 485 0
DWIDTH 8 0
BBX 8 9 0 1
BITMAP
FF
04
3C
40
40
40
42
42
3C
ENDCHAR
STARTCHAR uni0920
ENCODING 2336
SWIDTH 512 0
DWIDTH 8 0
BBX 8 9 0 1
BITMAP
FF
04
3C
42
42
42
42
42
3C
ENDCHAR
STARTCHAR uni0921
ENCODING 2337
SWIDTH 475 0
DWIDTH 8 0
BBX 8 10 0 0
BITMAP
FF
04
3C
40
40
3C
02
42
44
38
ENDCHAR
STARTCHAR uni0922
ENCODING 2338
SWIDTH 485 0
DWIDTH 8 0
BBX 8 9 0 1
BITMAP
FF
04
3C
40
40
4E
4A
42
3C
ENDCHAR
STARTCHAR uni0923
ENCODING 2339
SWIDTH 681 0
DWIDTH 11 0
BBX 11 10 0 0
BITMAP
FFE0
4440
4440
4440
4440
4440
3840
0040
0040
0040
ENDCHAR
STARTCHAR uni0924
ENCODING 2340
SWIDTH 496 0
DWIDTH 8 0
BBX 8 10 0 0
BITMAP
FF
02
02
3C
42
42
42
42
42
32
ENDCHAR
STARTCHAR uni0925
ENCODING 2341
SWIDTH 593 0
DWIDTH 9 0
BBX 9 10 1 0
BITMAP
7380
9200
1200
F200
8200
8200
8200
7E00
0200
0200
ENDCHAR
STARTCHAR uni0926
ENCODING 2342
SWIDTH 489 0
DWIDTH 8 0
BBX 8 10 0 0
BITMAP
FF
04
3C
40
40
42
42
3E
02
02
ENDCHAR
STARTCHAR uni0927
ENCODING 2343
SWIDTH 560 0
DWIDTH 9 0
BBX 9 10 0 0
BITMAP
F780
4100
4100
3100
4100
4100
4200
3D00
0100
0100
ENDCHAR
STARTCHAR uni0928
ENCODING 2344
SWIDTH 473 0
DWIDTH 8 0
BBX 8 10 0 0
BITMAP
FF
04
04
7C
44
44
04
04
04
04
ENDCHAR
STARTCHAR uni0928093C
ENCODING 2345
SWIDTH 473 0
DWIDTH 8 0
BBX 8 10 0 0
BITMAP
FF
04
04
7C
44
44
04
04
04
24
ENDCHAR
STARTCHAR uni092A
ENCODING 2346
SWIDTH 503 0
DWIDTH 8 0
BBX 8 10 0 0
BITMAP
FF
42
42
42
42
42
3E
02
02
02
ENDCHAR
STARTCHAR uni092B
ENCODING 2347
SWIDTH 739 0
DWIDTH 12 0
BBX 12 10 0 0
BITMAP
FFF0
4200
43C0
4220
4220
4420
3A20
02C0
0200
0200
ENDCHAR
STARTCHAR uni092C
ENCODING 2348
SWIDTH 491 0
DWIDTH 8 0
BBX 8 10 0 0
BITMAP
FF
04
34
64
54
4C
44
3C
04
04
ENDCHAR
STARTCHAR uni092D
ENCODING 2349
SWIDTH 491 0
DWIDTH 8 0
BBX 8 10 0 0
BITMAP
CF
44
44
44
7C
44
44
04
04
02
ENDCHAR
STARTCHAR uni092E
ENCODING 2350
SWIDTH 490 0
DWIDTH 8 0
BBX 8 10 0 0
BITMAP
FF
44
44
44
7C
44
44
04
04
04
ENDCHAR
STARTCHAR uni092F
ENCODING 2351
SWIDTH 564 0
DWIDTH 9 0
BBX 9 10 0 0
BITMAP
FF80
1100
1100
7100
4100
4100
4300
3D00
0100
0100
ENDCHAR
STARTCHAR uni0930
ENCODING 2352
SWIDTH 337 0
DWIDTH 5 0
BBX 6 10 0 0
BITMAP
FC
10
10
10
60
40
20
20
10
10
ENDCHAR
STARTCHAR uni0930093C
ENCODING 2353
SWIDTH 347 0
DWIDTH 6 0
BBX 6 10 0 0
BITMAP
FC
10
10
10
70
40
20
20
10
88
ENDCHAR
STARTCHAR uni0932
ENCODING 2354
SWIDTH 676 0
DWIDTH 11 0
BBX 11 10 0 0
BITMAP
FFE0
0080
3B80
4480
4480
4480
4080
4080
3080
0080
ENDCHAR
STARTCHAR uni0933
ENCODING 2355
SWIDTH 672 0
DWIDTH 11 0
BBX 11 9 0 1
BITMAP
FFE0
0100
3B80
4440
4440
4440
4440
4440
3B80
ENDCHAR
STARTCHAR uni0933093C
ENCODING 2356
SWIDTH 672 0
DWIDTH 11 0
BBX 11 11 0 -1
BITMAP
FFE0
0100
3B80
4440
4440
4440
4440
4440
3B80
0000
1000
ENDCHAR
STARTCHAR uni0935
ENCODING 2357
SWIDTH 484 0
DWIDTH 8 0
BBX 8 10 0 0
BITMAP
FF
04
34
44
44
44
44
3C
04
04
ENDCHAR
STARTCHAR uni0936
ENCODING 2358
SWIDTH 614 0
DWIDTH 10 0
BBX 9 10 1 0
BITMAP
7180
9200
9200
1200
F200
8200
4200
4200
2200
1200
ENDCHAR
STARTCHAR uni0937
ENCODING 2359
SWIDTH 505 0
DWIDTH 8 0
BBX 8 10 0 0
BITMAP
FF
62
52
4A
46
42
3E
02
02
02
ENDCHAR
STARTCHAR uni0938
ENCODING 2360
SWIDTH 575 0
DWIDTH 9 0
BBX 9 10 0 0
BITMAP
FF80
1100
1100
1100
7F00
4100
4100
2100
1100
1100
ENDCHAR
STARTCHAR uni0939
ENCODING 2361
SWIDTH 481 0
DWIDTH 8 0
BBX 8 11 0 -1
BITMAP
FF
04
3C
40
40
40
3C
42
42
40
3C
ENDCHAR
STARTCHAR uni093C
ENCODING 2364
SWIDTH 0 0
DWIDTH 0 0
BBX 1 1 -3 -2
BITMAP
80
ENDCHAR
STARTCHAR uni093D
ENCODING 2365
SWIDTH 529 0
DWIDTH 8 0
BBX 6 10 1 0
BITMAP
78
40
40
20
18
04
04
84
44
38
ENDCHAR
STARTCHAR uni093E
ENCODING 2366
SWIDTH 231 0
DWIDTH 4 0
BBX 4 10 0 0
BITMAP
F0
40
40
40
40
40
40
40
40
40
ENDCHAR
STARTCHAR uni093F
ENCODING 2367
SWIDTH 231 0
DWIDTH 4 0
BBX 10 14 0 0
BITMAP
3F80
4040
4040
4000
F000
4000
4000
4000
4000
4000
4000
4000
4000
4000
ENDCHAR
STARTCHAR uni0940
ENCODING 2368
SWIDTH 231 0
DWIDTH 4 0
BBX 6 14 -2 0
BITMAP
F0
90
90
10
3C
10
10
10
10
10
10
10
10
10
ENDCHAR
STARTCHAR uni0941
ENCODING 2369
SWIDTH 0 0
DWIDTH 0 0
BBX 6 4 -6 -4
BITMAP
0C
84
44
3C
ENDCHAR
STARTCHAR uni0942
ENCODING 2370
SWIDTH 0 0
DWIDTH 0 0
BBX 6 4 -4 -4
BITMAP
F0
88
88
E4
ENDCHAR
STARTCHAR uni0943
ENCODING 2371
SWIDTH 0 0
DWIDTH 0 0
BBX 4 4 -4 -4
BITMAP
E0
80
90
F0
ENDCHAR
STARTCHAR uni0945
ENCODING 2373
SWIDTH 0 0
DWIDTH 0 0
BBX 5 3 -4 11
BITMAP
88
88
F0
ENDCHAR
STARTCHAR uni0946
ENCODING 2374
SWIDTH 0 0
DWIDTH 0 0
BBX 5 5 -6 9
BITMAP
80
40
30
08
18
ENDCHAR
STARTCHAR uni0947
ENCODING 2375
SWIDTH 0 0
DWIDTH 0 0
BBX 4 5 -5 9
BITMAP
80
40
20
20
10
ENDCHAR
STARTCHAR uni0948
ENCODING 2376
SWIDTH 0 0
DWIDTH 0 0
BBX 4 5 -5 9
BITMAP
90
50
50
30
10
ENDCHAR
STARTCHAR uni0949
ENCODING 2377
SWIDTH 231 0
DWIDTH 4 0
BBX 5 14 -1 0
BITMAP
88
88
78
00
78
20
20
20
20
20
20
20
20
20
ENDCHAR
STARTCHAR uni094A
ENCODING 2378
SWIDTH 231 0
DWIDTH 4 0
BBX 6 14 -2 0
BITMAP
80
C0
20
10
3C
10
10
10
10
10
10
10
10
10
ENDCHAR
STARTCHAR uni094B
ENCODING 2379
SWIDTH 231 0
DWIDTH 4 0
BBX 5 14 -1 0
BITMAP
80
40
40
20
78
20
20
20
20
20
20
20
20
20
ENDCHAR
STARTCHAR uni094C
ENCODING 2380
SWIDTH 231 0
DWIDTH 4 0
BBX 5 14 -1 0
BITMAP
A0
A0
60
20
78
20
20
20
20
20
20
20
20
20
ENDCHAR
STARTCHAR uni094D
ENCODING 2381
SWIDTH 0 0
DWIDTH 0 0
BBX 2 3 -2 -3
BITMAP
80
80
40
ENDCHAR
STARTCHAR uni0950
ENCODING 2384
SWIDTH 847 0
DWIDTH 14 0
BBX 11 12 1 1
BITMAP
0100
0000
0020
71C0
0800
09C0
0820
3020
0F20
8920
8920
71E0
ENDCHAR
STARTCHAR uni0951
ENCODING 2385
SWIDTH 0 0
DWIDTH 0 0
BBX 1 3 -2 11
BITMAP
80
80
80
ENDCHAR
STARTCHAR uni0952
ENCODING 2386
SWIDTH 0 0
DWIDTH 0 0
BBX 6 1 -7 -2
BITMAP
FC
ENDCHAR
STARTCHAR uni0953
ENCODING 2387
SWIDTH 0 0
DWIDTH 0 0
BBX 2 3 -4 11
BITMAP
80
40
40
ENDCHAR
STARTCHAR uni0954
ENCODING 2388
SWIDTH 0 0
DWIDTH 0 0
BBX 2 3 -2 11
BITMAP
40
40
80
ENDCHAR
STARTCHAR uni0915093C
ENCODING 2392
SWIDTH 725 0
DWIDTH 12 0
BBX 12 10 0 0
BITMAP
FFF0
0400
37C0
4420
4420
4420
4420
3DC0
0400
2400
ENDCHAR
STARTCHAR uni0916093C
ENCODING 2393
SWIDTH 696 0
DWIDTH 11 0
BBX 11 10 0 0
BITMAP
FFE0
1040
1340
1440
6440
4440
23C0
2040
1040
4840
ENDCHAR
STARTCHAR uni0917093C
ENCODING 2394
SWIDTH 494 0
DWIDTH 8 0
BBX 8 10 0 0
BITMAP
FF
22
22
22
22
C2
02
02
02
42
ENDCHAR
STARTCHAR uni091C093C
ENCODING 2395
SWIDTH 547 0
DWIDTH 9 0
BBX 9 10 0 0
BITMAP
FF80
0200
0200
7E00
1200
0A00
0A00
1200
F200
4200
ENDCHAR
STARTCHAR uni0921093C
ENCODING 2396
SWIDTH 475 0
DWIDTH 8 0
BBX 8 12 0 -2
BITMAP
FF
04
3C
40
40
3C
02
42
44
38
00
10
ENDCHAR
STARTCHAR uni0922093C
ENCODING 2397
SWIDTH 485 0
DWIDTH 8 0
BBX 8 11 0 -1
BITMAP
FF
04
3C
40
40
4E
4A
42
3C
00
08
ENDCHAR
STARTCHAR uni092B093C
ENCODING 2398
SWIDTH 739 0
DWIDTH 12 0
BBX 12 10 0 0
BITMAP
FFF0
4200
43C0
4220
4220
4420
3A20
02C0
0200
2200
ENDCHAR
STARTCHAR uni092F093C
ENCODING 2399
SWIDTH 564 0
DWIDTH 9 0
BBX 9 10 0 0
BITMAP
FF80
1100
1100
7100
4100
4100
4300
3D00
0100
2100
ENDCHAR
STARTCHAR uni0960
ENCODING 2400
SWIDTH 753 0
DWIDTH 12 0
BBX 12 12 0 -2
BITMAP
FFF0
0200
3A60
44A0
4320
4260
0480
1A80
22E0
4280
0080
00E0
ENDCHAR
STARTCHAR uni0961
ENCODING 2401
SWIDTH 676 0
DWIDTH 11 0
BBX 11 14 0 -4
BITMAP
FFE0
0080
0080
3B80
4480
4480
4480
4180
3200
0200
01C0
0200
0200
01C0
ENDCHAR
STARTCHAR uni0964
ENCODING 2404
SWIDTH 286 0
DWIDTH 5 0
BBX 1 10 2 0
BITMAP
80
80
80
80
80
80
80
80
80
80
ENDCHAR
STARTCHAR uni0965
ENCODING 2405
SWIDTH 518 0
DWIDTH 8 0
BBX 5 10 2 0
BITMAP
88
88
88
88
88
88
88
88
88
88
ENDCHAR
STARTCHAR uni0966
ENCODING 2406
SWIDTH 519 0
DWIDTH 8 0
BBX 6 10 1 0
BITMAP
7C
84
84
84
84
84
84
84
C4
38
ENDCHAR
STARTCHAR uni0967
ENCODING 2407
SWIDTH 288 0
DWIDTH 5 0
BBX 3 10 0 0
BITMAP
20
E0
20
20
20
20
20
20
20
20
ENDCHAR
STARTCHAR uni0968
ENCODING 2408
SWIDTH 453 0
DWIDTH 7 0
BBX 6 10 1 0
BITMAP
F8
84
84
04
18
20
40
80
80
FC
ENDCHAR
STARTCHAR uni0969
ENCODING 2409
SWIDTH 489 0
DWIDTH 8 0
BBX 6 10 1 0
BITMAP
F8
84
84
04
38
04
84
84
88
70
ENDCHAR
STARTCHAR uni096A
ENCODING 2410
SWIDTH 453 0
DWIDTH 7 0
BBX 7 10 0 0
BITMAP
0C
0C
14
24
24
44
44
FE
04
04
ENDCHAR
STARTCHAR uni096B
ENCODING 2411
SWIDTH 480 0
DWIDTH 8 0
BBX 6 10 1 0
BITMAP
FC
80
80
F8
84
04
04
84
CC
30
ENDCHAR
STARTCHAR uni096C
ENCODING 2412
SWIDTH 495 0
DWIDTH 8 0
BBX 6 10 1 0
BITMAP
7C
80
80
F8
84
84
84
84
C4
38
ENDCHAR
STARTCHAR uni096D
ENCODING 2413
SWIDTH 380 0
DWIDTH 6 0
BBX 6 10 0 0
BITMAP
FC
04
08
08
10
10
20
20
20
40
ENDCHAR
STARTCHAR uni096E
ENCODING 2414
SWIDTH 523 0
DWIDTH 8 0
BBX 6 10 1 0
BITMAP
7C
84
84
84
78
84
84
84
C4
38
ENDCHAR
STARTCHAR uni096F
ENCODING 2415
SWIDTH 493 0
DWIDTH 8 0
BBX 6 10 1 0
BITMAP
F8
84
84
84
84
7C
04
04
0C
F0
ENDCHAR
STARTCHAR uni0970
ENCODING 2416
SWIDTH 391 0
DWIDTH 6 0
BBX 5 5 1 2
BITMAP
F0
88
88
88
F0
ENDCHAR
STARTCHAR uni0972
ENCODING 2418
SWIDTH 598 0
DWIDTH 10 0
BBX 9 14 1 0
BITMAP
0880
0880
0700
0000
E380
1200
1200
1200
6200
1E00
1200
1200
E200
0200
ENDCHAR
STARTCHAR Wgrave
ENCODING 7808
SWIDTH 795 0
DWIDTH 13 0
BBX 11 13 1 0
BITMAP
1800
0C00
0000
8420
8C20
8A20
8A40
8A40
5240
5140
5140
6180
2080
ENDCHAR
STARTCHAR wgrave
ENCODING 7809
SWIDTH 682 0
DWIDTH 11 0
BBX 11 11 0 0
BITMAP
0800
0400
0000
8420
4C40
4A40
4A40
4A80
3280
3180
3100
ENDCHAR
STARTCHAR Wacute
ENCODING 7810
SWIDTH 795 0
DWIDTH 13 0
BBX 11 13 1 0
BITMAP
0200
0400
0000
8420
8C20
8A20
8A40
8A40
5240
5140
5140
6180
2080
ENDCHAR
STARTCHAR wacute
ENCODING 7811
SWIDTH 682 0
DWIDTH 11 0
BBX 11 11 0 0
BITMAP
0200
0400
0000
8420
4C40
4A40
4A40
4A80
3280
3180
3100
ENDCHAR
STARTCHAR Wdieresis
ENCODING 7812
SWIDTH 795 0
DWIDTH 13 0
BBX 11 13 1 0
BITMAP
0A00
0A00
0000
8420
8C20
8A20
8A40
8A40
5240
5140
5140
6180
2080
ENDCHAR
STARTCHAR wdieresis
ENCODING 7813
SWIDTH 682 0
DWIDTH 11 0
BBX 11 11 0 0
BITMAP
0A00
0A00
0000
8420
4C40
4A40
4A40
4A80
3280
3180
3100
ENDCHAR
STARTCHAR uni1E9E
ENCODING 7838
SWIDTH 542 0
DWIDTH 9 0
BBX 7 10 1 0
BITMAP
7C
84
84
88
8C
82
82
82
82
9C
ENDCHAR
STARTCHAR Ygrave
ENCODING 7922
SWIDTH 493 0
DWIDTH 8 0
BBX 7 13 0 0
BITMAP
20
10
00
C2
42
24
24
18
18
10
10
10
10
ENDCHAR
STARTCHAR ygrave
ENCODING 7923
SWIDTH 459 0
DWIDTH 7 0
BBX 7 13 0 -2
BITMAP
20
10
00
82
44
44
24
28
28
18
10
10
60
ENDCHAR
STARTCHAR uni200B
ENCODING 8203
SWIDTH 0 0
DWIDTH 0 0
BBX 1 1 0 0
BITMAP
00
ENDCHAR
STARTCHAR uni200C
ENCODING 8204
SWIDTH 0 0
DWIDTH 0 0
BBX 1 17 0 -4
BITMAP
80
80
80
80
80
80
80
80
80
80
80
80
80
80
80
80
80
ENDCHAR
STARTCHAR uni200D
ENCODING 8205
SWIDTH 0 0
DWIDTH 0 0
BBX 4 16 -2 -4
BITMAP
90
60
60
B0
20
20
20
20
20
20
20
20
20
20
20
20
ENDCHAR
STARTCHAR endash
ENCODING 8211
SWIDTH 408 0
DWIDTH 7 0
BBX 5 1 1 5
BITMAP
F8
ENDCHAR
STARTCHAR emdash
ENCODING 8212
SWIDTH 537 0
DWIDTH 9 0
BBX 7 1 1 5
BITMAP
FE
ENDCHAR
STARTCHAR quoteleft
ENCODING 8216
SWIDTH 179 0
DWIDTH 3 0
BBX 1 4 1 6
BITMAP
80
80
80
80
ENDCHAR
STARTCHAR quoteright
ENCODING 8217
SWIDTH 179 0
DWIDTH 3 0
BBX 1 4 1 6
BITMAP
80
80
80
80
ENDCHAR
STARTCHAR quotesinglbase
ENCODING 8218
SWIDTH 187 0
DWIDTH 3 0
BBX 1 4 1 -2
BITMAP
80
80
80
80
ENDCHAR
STARTCHAR quotedblleft
ENCODING 8220
SWIDTH 329 0
DWIDTH 5 0
BBX 3 4 1 6
BITMAP
A0
A0
A0
A0
ENDCHAR
STARTCHAR quotedblright
ENCODING 8221
SWIDTH 329 0
DWIDTH 5 0
BBX 3 4 1 6
BITMAP
A0
A0
A0
A0
ENDCHAR
STARTCHAR quotedblbase
ENCODING 8222
SWIDTH 337 0
DWIDTH 5 0
BBX 3 4 1 -2
BITMAP
A0
A0
A0
A0
ENDCHAR
STARTCHAR dagger
ENCODING 8224
SWIDTH 427 0
DWIDTH 7 0
BBX 5 10 1 0
BITMAP
20
20
F8
20
20
20
20
20
20
20
ENDCHAR
STARTCHAR daggerdbl
ENCODING 8225
SWIDTH 427 0
DWIDTH 7 0
BBX 5 10 1 0
BITMAP
20
20
F8
20
20
20
F8
20
20
20
ENDCHAR
STARTCHAR bullet
ENCODING 8226
SWIDTH 273 0
DWIDTH 4 0
BBX 2 3 1 4
BITMAP
C0
C0
C0
ENDCHAR
STARTCHAR ellipsis
ENCODING 8230
SWIDTH 591 0
DWIDTH 9 0
BBX 7 2 1 0
BITMAP
92
92
ENDCHAR
STARTCHAR perthousand
ENCODING 8240
SWIDTH 1027 0
DWIDTH 16 0
BBX 15 10 1 0
BITMAP
E200
9200
9400
9400
E800
0B8C
0C52
1452
1452
239C
ENDCHAR
STARTCHAR guilsinglleft
ENCODING 8249
SWIDTH 290 0
DWIDTH 5 0
BBX 3 6 1 1
BITMAP
20
40
80
80
40
20
ENDCHAR
STARTCHAR guilsinglright
ENCODING 8250
SWIDTH 290 0
DWIDTH 5 0
BBX 3 6 1 1
BITMAP
80
80
60
40
80
80
ENDCHAR
STARTCHAR fraction
ENCODING 8260
SWIDTH 117 0
DWIDTH 2 0
BBX 8 10 -3 0
BITMAP
01
02
04
04
08
10
20
20
40
80
ENDCHAR
STARTCHAR Euro
ENCODING 8364
SWIDTH 523 0
DWIDTH 8 0
BBX 6 10 1 0
BITMAP
7C
44
44
40
F0
F0
40
44
44
7C
ENDCHAR
STARTCHAR uni20B9
ENCODING 8377
SWIDTH 414 0
DWIDTH 7 0
BBX 5 10 1 0
BITMAP
F8
20
F8
20
E0
80
40
40
20
10
ENDCHAR
STARTCHAR trademark
ENCODING 8482
SWIDTH 591 0
DWIDTH 9 0
BBX 7 4 1 6
BITMAP
EA
4A
4E
4A
ENDCHAR
STARTCHAR uni2126
ENCODING 8486
SWIDTH 629 0
DWIDTH 10 0
BBX 8 10 1 0
BITMAP
7E
41
81
81
81
81
81
81
42
E7
ENDCHAR
STARTCHAR partialdiff
ENCODING 8706
SWIDTH 481 0
DWIDTH 8 0
BBX 6 11 1 0
BITMAP
60
18
08
04
7C
84
84
84
84
88
70
ENDCHAR
STARTCHAR uni2206
ENCODING 8710
SWIDTH 594 0
DWIDTH 10 0
BBX 9 10 0 0
BITMAP
0800
0C00
1400
1200
2200
2100
2100
4100
4080
FF80
ENDCHAR
STARTCHAR minus
ENCODING 8722
SWIDTH 523 0
DWIDTH 8 0
BBX 6 1 1 5
BITMAP
FC
ENDCHAR
STARTCHAR approxequal
ENCODING 8776
SWIDTH 523 0
DWIDTH 8 0
BBX 6 4 1 3
BITMAP
FC
00
00
FC
ENDCHAR
STARTCHAR notequal
ENCODING 8800
SWIDTH 523 0
DWIDTH 8 0
BBX 6 7 1 2
BITMAP
08
08
FC
10
10
FC
20
ENDCHAR
STARTCHAR lessequal
ENCODING 8804
SWIDTH 523 0
DWIDTH 8 0
BBX 6 6 1 2
BITMAP
1C
E0
60
1C
00
FC
ENDCHAR
STARTCHAR greaterequal
ENCODING 8805
SWIDTH 523 0
DWIDTH 8 0
BBX 6 6 1 2
BITMAP
E0
1C
1C
E0
00
FC
ENDCHAR
STARTCHAR uni25CC
ENCODING 9676
SWIDTH 701 0
DWIDTH 11 0
BBX 9 9 1 1
BITMAP
0A00
2180
C000
0080
C000
0080
4000
0100
1400
ENDCHAR
STARTCHAR commaaccent
ENCODING 63171
SWIDTH 0 0
DWIDTH 0 0
BBX 1 3 3 -4
BITMAP
80
80
80
ENDCHAR
STARTCHAR .notdef
ENCODING -1
SWIDTH 600 0
DWIDTH 10 0
BBX 6 10 2 0
BITMAP
FC
84
84
84
84
84
84
84
84
FC
ENDCHAR
STARTCHAR .null
ENCODING -1
SWIDTH 0 0
DWIDTH 0 0
BBX 1 1 0 0
BITMAP
00
ENDCHAR
STARTCHAR nonmarkingreturn
ENCODING -1
SWIDTH 333 0
DWIDTH 5 0
BBX 1 1 0 0
BITMAP
00
ENDCHAR
STARTCHAR uni0915094D
ENCODING -1
SWIDTH 519 0
DWIDTH 8 0
BBX 10 10 0 0
BITMAP
FFC0
0400
37C0
4440
4400
4400
4400
3C00
0400
0400
ENDCHAR
STARTCHAR uni0916094D
ENCODING -1
SWIDTH 468 0
DWIDTH 7 0
BBX 9 10 0 0
BITMAP
FF80
1000
1300
1400
6400
4400
2380
2000
1000
0800
ENDCHAR
STARTCHAR uni0917094D
ENCODING -1
SWIDTH 264 0
DWIDTH 4 0
BBX 4 7 0 3
BITMAP
F0
20
20
20
20
20
C0
ENDCHAR
STARTCHAR uni0918094D
ENCODING -1
SWIDTH 321 0
DWIDTH 5 0
BBX 7 9 0 1
BITMAP
FE
40
40
40
30
40
40
42
3C
ENDCHAR
STARTCHAR uni0919094D
ENCODING -1
SWIDTH 505 0
DWIDTH 8 0
BBX 8 13 0 -3
BITMAP
FF
04
3C
40
41
3C
02
42
44
38
10
08
04
ENDCHAR
STARTCHAR uni091A094D
ENCODING -1
SWIDTH 330 0
DWIDTH 5 0
BBX 7 9 0 1
BITMAP
FE
00
00
F8
20
20
20
22
1C
ENDCHAR
STARTCHAR uni091B094D
ENCODING -1
SWIDTH 581 0
DWIDTH 9 0
BBX 10 9 0 1
BITMAP
FFC0
4000
4600
4100
3100
4100
4100
4100
3E00
ENDCHAR
STARTCHAR uni091C094D
ENCODING -1
SWIDTH 309 0
DWIDTH 5 0
BBX 7 9 0 1
BITMAP
FE
00
00
7E
10
08
08
10
F0
ENDCHAR
STARTCHAR uni091D094D
ENCODING -1
SWIDTH 432 0
DWIDTH 7 0
BBX 9 10 0 0
BITMAP
FF80
0400
3C00
4000
4000
3F80
4400
4400
7C00
4000
ENDCHAR
STARTCHAR uni091E094D
ENCODING -1
SWIDTH 359 0
DWIDTH 6 0
BBX 7 9 0 1
BITMAP
FE
00
70
08
08
0E
08
08
70
ENDCHAR
STARTCHAR uni091F094D
ENCODING -1
SWIDTH 485 0
DWIDTH 8 0
BBX 8 12 0 -2
BITMAP
FF
04
3C
40
40
40
42
42
3C
00
08
0C
ENDCHAR
STARTCHAR uni0920094D
ENCODING -1
SWIDTH 512 0
DWIDTH 8 0
BBX 8 12 0 -2
BITMAP
FF
04
3C
42
42
42
42
42
3C
00
08
0C
ENDCHAR
STARTCHAR uni0921094D
ENCODING -1
SWIDTH 475 0
DWIDTH 8 0
BBX 8 13 0 -3
BITMAP
FF
04
3C
40
40
3C
02
42
44
38
10
08
04
ENDCHAR
STARTCHAR uni0922094D
ENCODING -1
SWIDTH 485 0
DWIDTH 8 0
BBX 8 12 0 -2
BITMAP
FF
04
3C
40
40
4E
4A
42
3C
00
08
0C
ENDCHAR
STARTCHAR uni0923094D
ENCODING -1
SWIDTH 454 0
DWIDTH 7 0
BBX 7 7 0 3
BITMAP
FE
44
44
44
44
44
38
ENDCHAR
STARTCHAR uni0924094D
ENCODING -1
SWIDTH 263 0
DWIDTH 4 0
BBX 6 10 0 0
BITMAP
FC
00
00
3C
40
40
40
40
40
30
ENDCHAR
STARTCHAR uni0925094D
ENCODING -1
SWIDTH 359 0
DWIDTH 6 0
BBX 7 9 1 1
BITMAP
70
90
90
10
F0
80
80
82
7C
ENDCHAR
STARTCHAR uni0926094D
ENCODING -1
SWIDTH 489 0
DWIDTH 8 0
BBX 8 12 0 -2
BITMAP
FF
04
3C
40
40
42
42
3E
02
12
08
04
ENDCHAR
STARTCHAR uni0927094D
ENCODING -1
SWIDTH 321 0
DWIDTH 5 0
BBX 7 9 0 1
BITMAP
F6
40
40
40
30
40
40
42
3C
ENDCHAR
STARTCHAR uni0928094D
ENCODING -1
SWIDTH 233 0
DWIDTH 4 0
BBX 5 7 0 3
BITMAP
F8
00
00
00
78
80
40
ENDCHAR
STARTCHAR uni092A094D
ENCODING -1
SWIDTH 269 0
DWIDTH 4 0
BBX 6 7 0 3
BITMAP
FC
40
40
40
40
44
3C
ENDCHAR
STARTCHAR uni092B094D
ENCODING -1
SWIDTH 530 0
DWIDTH 8 0
BBX 11 10 0 0
BITMAP
FFE0
4200
43C0
4220
4200
4400
3A00
0200
0200
0200
ENDCHAR
STARTCHAR uni092C094D
ENCODING -1
SWIDTH 265 0
DWIDTH 4 0
BBX 6 9 0 1
BITMAP
FC
00
30
40
60
50
4C
44
38
ENDCHAR
STARTCHAR uni092D094D
ENCODING -1
SWIDTH 261 0
DWIDTH 4 0
BBX 6 7 0 3
BITMAP
8C
40
40
40
40
7C
40
ENDCHAR
STARTCHAR uni092E094D
ENCODING -1
SWIDTH 261 0
DWIDTH 4 0
BBX 6 7 0 3
BITMAP
FC
40
40
40
40
7C
40
ENDCHAR
STARTCHAR uni092F094D
ENCODING -1
SWIDTH 323 0
DWIDTH 5 0
BBX 7 9 0 1
BITMAP
FE
10
10
10
70
40
40
42
3C
ENDCHAR
STARTCHAR uni0930094D
ENCODING -1
SWIDTH 337 0
DWIDTH 5 0
BBX 6 12 0 -2
BITMAP
FC
10
10
10
60
40
20
20
10
10
20
10
ENDCHAR
STARTCHAR uni0932094D
ENCODING -1
SWIDTH 431 0
DWIDTH 7 0
BBX 9 9 0 1
BITMAP
FF80
0000
3B00
4480
4400
4400
4000
4000
3000
ENDCHAR
STARTCHAR uni0933094D
ENCODING -1
SWIDTH 677 0
DWIDTH 11 0
BBX 11 9 0 1
BITMAP
FFE0
0000
3B80
4440
4440
4440
4440
4440
3B80
ENDCHAR
STARTCHAR uni0935094D
ENCODING -1
SWIDTH 255 0
DWIDTH 4 0
BBX 6 9 0 1
BITMAP
FC
00
30
40
40
40
44
44
38
ENDCHAR
STARTCHAR uni0936094D
ENCODING -1
SWIDTH 378 0
DWIDTH 6 0
BBX 4 10 1 0
BITMAP
70
90
90
10
F0
80
40
40
20
10
ENDCHAR
STARTCHAR uni0937094D
ENCODING -1
SWIDTH 282 0
DWIDTH 5 0
BBX 7 7 0 3
BITMAP
FE
60
50
48
44
42
3C
ENDCHAR
STARTCHAR uni0938094D
ENCODING -1
SWIDTH 338 0
DWIDTH 5 0
BBX 7 10 0 0
BITMAP
FE
10
10
10
7E
40
40
20
10
10
ENDCHAR
STARTCHAR uni0939094D
ENCODING -1
SWIDTH 457 0
DWIDTH 7 0
BBX 9 11 0 -1
BITMAP
FF00
0400
3C00
4000
4000
4000
3F80
4000
4000
4000
3C00
ENDCHAR
STARTCHAR uni0915093C094D
ENCODING -1
SWIDTH 519 0
DWIDTH 8 0
BBX 10 10 0 0
BITMAP
FFC0
0400
37C0
4440
4400
4400
4400
3C00
0400
2400
ENDCHAR
STARTCHAR uni0916093C094D
ENCODING -1
SWIDTH 463 0
DWIDTH 7 0
BBX 9 10 0 0
BITMAP
FF80
1000
1300
1400
6400
4400
2380
2000
1000
4800
ENDCHAR
STARTCHAR uni0917093C094D
ENCODING -1
SWIDTH 264 0
DWIDTH 4 0
BBX 4 10 0 0
BITMAP
F0
20
20
20
20
C0
00
00
00
20
ENDCHAR
STARTCHAR uni091C093C094D
ENCODING -1
SWIDTH 314 0
DWIDTH 5 0
BBX 7 11 0 -1
BITMAP
FE
00
00
7E
10
08
08
10
F0
00
40
ENDCHAR
STARTCHAR uni0928093C094D
ENCODING -1
SWIDTH 241 0
DWIDTH 4 0
BBX 5 11 0 -1
BITMAP
F8
00
00
00
78
40
40
00
00
00
20
ENDCHAR
STARTCHAR uni092B093C094D
ENCODING -1
SWIDTH 530 0
DWIDTH 8 0
BBX 11 10 0 0
BITMAP
FFE0
4200
43C0
4220
4200
4400
3A00
0200
0200
2200
ENDCHAR
STARTCHAR uni092F093C094D
ENCODING -1
SWIDTH 325 0
DWIDTH 5 0
BBX 7 11 0 -1
BITMAP
FE
10
10
10
70
40
40
42
3C
00
20
ENDCHAR
STARTCHAR uni09080902
ENCODING -1
SWIDTH 478 0
DWIDTH 8 0
BBX 8 14 0 0
BITMAP
06
08
0A
08
FF
04
3C
40
40
3C
02
42
46
78
ENDCHAR
STARTCHAR uni09300941
ENCODING -1
SWIDTH 533 0
DWIDTH 9 0
BBX 9 10 0 0
BITMAP
FF80
1000
1E00
1100
6100
4200
2200
2400
1000
1000
ENDCHAR
STARTCHAR uni09300942
ENCODING -1
SWIDTH 645 0
DWIDTH 10 0
BBX 11 10 0 0
BITMAP
FFE0
1000
1380
1480
6480
4080
2180
2200
1000
1000
ENDCHAR
STARTCHAR uni09390941
ENCODING -1
SWIDTH 495 0
DWIDTH 8 0
BBX 8 14 0 -4
BITMAP
FF
04
3C
40
40
3C
42
42
40
40
3C
42
42
3C
ENDCHAR
STARTCHAR uni09390942
ENCODING -1
SWIDTH 492 0
DWIDTH 8 0
BBX 8 14 0 -4
BITMAP
FF
04
04
3C
40
40
3C
42
40
3C
44
42
42
32
ENDCHAR
STARTCHAR uni09260943
ENCODING -1
SWIDTH 390 0
DWIDTH 6 0
BBX 6 9 0 1
BITMAP
FC
08
38
40
40
30
40
40
38
ENDCHAR
STARTCHAR uni09390943
ENCODING -1
SWIDTH 519 0
DWIDTH 8 0
BBX 9 12 0 -2
BITMAP
FF80
0400
3C00
4000
4000
3E00
4900
5000
4800
4600
4000
3C00
ENDCHAR
STARTCHAR uni094D0930
ENCODING -1
SWIDTH 0 0
DWIDTH 0 0
BBX 4 3 -6 -3
BITMAP
60
90
90
ENDCHAR
STARTCHAR uni0930094D.1
ENCODING -1
SWIDTH 192 0
DWIDTH 3 0
BBX 6 5 -1 5
BITMAP
70
00
00
84
78
ENDCHAR
STARTCHAR uni0930094D.2
ENCODING -1
SWIDTH 0 0
DWIDTH 0 0
BBX 2 4 -2 10
BITMAP
C0
80
80
80
ENDCHAR
STARTCHAR uni0930094D0902
ENCODING -1
SWIDTH 0 0
DWIDTH 0 0
BBX 2 5 -2 9
BITMAP
C0
80
C0
80
80
ENDCHAR
STARTCHAR uni093E0930094D
ENCODING -1
SWIDTH 231 0
DWIDTH 4 0
BBX 4 14 0 0
BITMAP
30
40
40
40
F0
40
40
40
40
40
40
40
40
40
ENDCHAR
STARTCHAR uni093E0930094D0902
ENCODING -1
SWIDTH 231 0
DWIDTH 4 0
BBX 4 14 0 0
BITMAP
30
50
40
40
F0
40
40
40
40
40
40
40
40
40
ENDCHAR
STARTCHAR uni0930094D.aMatraI
ENCODING -1
SWIDTH 0 0
DWIDTH 0 0
BBX 3 3 -1 10
BITMAP
60
80
80
ENDCHAR
STARTCHAR uni0902.aMatraI
ENCODING -1
SWIDTH 0 0
DWIDTH 0 0
BBX 1 1 1 12
BITMAP
80
ENDCHAR
STARTCHAR uni0930094D0902.aMatraI
ENCODING -1
SWIDTH 0 0
DWIDTH 0 0
BBX 3 3 -1 10
BITMAP
60
A0
80
ENDCHAR
STARTCHAR uni09400930094D
ENCODING -1
SWIDTH 231 0
DWIDTH 4 0
BBX 6 14 -2 0
BITMAP
FC
90
90
10
3C
10
10
10
10
10
10
10
10
10
ENDCHAR
STARTCHAR uni09400902
ENCODING -1
SWIDTH 231 0
DWIDTH 4 0
BBX 6 14 -2 0
BITMAP
F0
94
90
10
3C
10
10
10
10
10
10
10
10
10
ENDCHAR
STARTCHAR uni09400930094D0902
ENCODING -1
SWIDTH 231 0
DWIDTH 4 0
BBX 6 14 -2 0
BITMAP
FC
94
10
10
3C
10
10
10
10
10
10
10
10
10
ENDCHAR
STARTCHAR uni0940.aLong
ENCODING -1
SWIDTH 231 0
DWIDTH 4 0
BBX 10 14 -6 0
BITMAP
FF00
8100
8100
0100
03C0
0100
0100
0100
0100
0100
0100
0100
0100
0100
ENDCHAR
STARTCHAR uni09400930094D.aLong
ENCODING -1
SWIDTH 231 0
DWIDTH 4 0
BBX 10 14 -6 0
BITMAP
FFC0
8100
8100
0100
03C0
0100
0100
0100
0100
0100
0100
0100
0100
0100
ENDCHAR
STARTCHAR uni09400902.aLong
ENCODING -1
SWIDTH 231 0
DWIDTH 4 0
BBX 10 14 -6 0
BITMAP
FF00
8140
8100
0100
03C0
0100
0100
0100
0100
0100
0100
0100
0100
0100
ENDCHAR
STARTCHAR uni09400930094D0902.aLong
ENCODING -1
SWIDTH 231 0
DWIDTH 4 0
BBX 10 14 -6 0
BITMAP
FFC0
8140
0100
0100
03C0
0100
0100
0100
0100
0100
0100
0100
0100
0100
ENDCHAR
STARTCHAR uni09470930094D
ENCODING -1
SWIDTH 0 0
DWIDTH 0 0
BBX 5 4 -5 10
BITMAP
98
50
30
10
ENDCHAR
STARTCHAR uni09470902
ENCODING -1
SWIDTH 0 0
DWIDTH 0 0
BBX 5 5 -5 9
BITMAP
80
40
68
20
10
ENDCHAR
STARTCHAR uni09470901
ENCODING -1
SWIDTH 0 0
DWIDTH 0 0
BBX 8 5 -5 9
BITMAP
84
51
51
2E
10
ENDCHAR
STARTCHAR uni09470930094D0902
ENCODING -1
SWIDTH 0 0
DWIDTH 0 0
BBX 5 4 -5 10
BITMAP
98
50
38
10
ENDCHAR
STARTCHAR uni09480930094D
ENCODING -1
SWIDTH 0 0
DWIDTH 0 0
BBX 5 4 -5 10
BITMAP
A8
70
50
30
ENDCHAR
STARTCHAR uni09480902
ENCODING -1
SWIDTH 0 0
DWIDTH 0 0
BBX 5 4 -5 10
BITMAP
90
58
30
10
ENDCHAR
STARTCHAR uni09480901
ENCODING -1
SWIDTH 0 0
DWIDTH 0 0
BBX 9 4 -5 10
BITMAP
9200
5880
3780
1000
ENDCHAR
STARTCHAR uni09480930094D0902
ENCODING -1
SWIDTH 0 0
DWIDTH 0 0
BBX 5 4 -5 10
BITMAP
A8
78
50
30
ENDCHAR
STARTCHAR uni094B0930094D
ENCODING -1
SWIDTH 231 0
DWIDTH 4 0
BBX 5 14 -1 0
BITMAP
98
60
60
20
78
20
20
20
20
20
20
20
20
20
ENDCHAR
STARTCHAR uni094B0902
ENCODING -1
SWIDTH 231 0
DWIDTH 4 0
BBX 5 14 -1 0
BITMAP
80
50
40
20
78
20
20
20
20
20
20
20
20
20
ENDCHAR
STARTCHAR uni094B0930094D0902
ENCODING -1
SWIDTH 231 0
DWIDTH 4 0
BBX 5 14 -1 0
BITMAP
98
68
60
20
78
20
20
20
20
20
20
20
20
20
ENDCHAR
STARTCHAR uni094C0930094D
ENCODING -1
SWIDTH 231 0
DWIDTH 4 0
BBX 6 14 -2 0
BITMAP
DC
50
30
10
3C
10
10
10
10
10
10
10
10
10
ENDCHAR
STARTCHAR uni094C0902
ENCODING -1
SWIDTH 231 0
DWIDTH 4 0
BBX 5 14 -1 0
BITMAP
A0
A8
60
20
78
20
20
20
20
20
20
20
20
20
ENDCHAR
STARTCHAR uni094C0930094D0902
ENCODING -1
SWIDTH 231 0
DWIDTH 4 0
BBX 6 14 -2 0
BITMAP
DC
54
30
10
3C
10
10
10
10
10
10
10
10
10
ENDCHAR
STARTCHAR uni0915094D0937
ENCODING -1
SWIDTH 656 0
DWIDTH 11 0
BBX 10 10 1 0
BITMAP
79C0
4900
4900
7F00
8100
8900
8900
7900
0900
0900
ENDCHAR
STARTCHAR uni0915094D0937094D
ENCODING -1
SWIDTH 429 0
DWIDTH 7 0
BBX 8 10 1 0
BITMAP
78
48
48
7F
80
88
88
78
08
08
ENDCHAR
STARTCHAR uni0915094D0937094D092E
ENCODING -1
SWIDTH 933 0
DWIDTH 15 0
BBX 14 10 1 0
BITMAP
7BFC
4908
4908
7F08
81F0
8908
8808
7808
0808
0808
ENDCHAR
STARTCHAR uni0915094D0937094D092E094D
ENCODING -1
SWIDTH 717 0
DWIDTH 11 0
BBX 12 10 1 0
BITMAP
7BF0
4900
4900
7F00
81F0
8900
8800
7800
0800
0800
ENDCHAR
STARTCHAR uni0915094D0937094D092E094D092F
ENCODING -1
SWIDTH 1283 0
DWIDTH 21 0
BBX 20 10 1 0
BITMAP
7BFFF0
490240
490240
7F0C40
81F040
891040
890840
7807C0
080040
080040
ENDCHAR
STARTCHAR uni0915094D0937094D092F
ENCODING -1
SWIDTH 989 0
DWIDTH 16 0
BBX 15 10 1 0
BITMAP
7BFE
4848
4848
7F88
8108
8908
8908
78F8
0808
0808
ENDCHAR
STARTCHAR uni0915094D0937094D0935
ENCODING -1
SWIDTH 936 0
DWIDTH 15 0
BBX 14 10 1 0
BITMAP
7BFC
48E8
4908
7F08
8108
8908
8918
78E8
0808
0808
ENDCHAR
STARTCHAR uni091C094D091E
ENCODING -1
SWIDTH 629 0
DWIDTH 10 0
BBX 10 10 0 0
BITMAP
FFC0
0080
3F80
4080
4080
3C80
4280
4280
7C80
4080
ENDCHAR
STARTCHAR uni091C094D091E094D
ENCODING -1
SWIDTH 398 0
DWIDTH 6 0
BBX 8 10 0 0
BITMAP
FF
00
3F
40
40
3C
42
42
7C
40
ENDCHAR
STARTCHAR uni091C094D091E094D092F
ENCODING -1
SWIDTH 975 0
DWIDTH 16 0
BBX 16 10 0 0
BITMAP
FFFF
0024
3F24
40C4
4104
3D04
4284
427C
7C04
4004
ENDCHAR
STARTCHAR uni0915094D0928
ENCODING -1
SWIDTH 1003 0
DWIDTH 16 0
BBX 16 10 0 0
BITMAP
FFFF
0402
37C2
443E
4442
4442
4402
3C02
0402
0402
ENDCHAR
STARTCHAR uni0916094D0928
ENCODING -1
SWIDTH 958 0
DWIDTH 15 0
BBX 16 10 0 0
BITMAP
FFFF
1004
1384
1444
647C
4484
2384
2044
1004
0804
ENDCHAR
STARTCHAR uni0917094D0928
ENCODING -1
SWIDTH 736 0
DWIDTH 12 0
BBX 12 10 0 0
BITMAP
FFF0
2040
2040
27C0
2440
C440
0040
0040
0040
0040
ENDCHAR
STARTCHAR uni0918094D0928
ENCODING -1
SWIDTH 814 0
DWIDTH 13 0
BBX 13 10 0 0
BITMAP
FFF8
4010
4010
31F0
4210
4210
3E10
0010
0010
0010
ENDCHAR
STARTCHAR uni091A094D0928
ENCODING -1
SWIDTH 829 0
DWIDTH 13 0
BBX 14 10 0 0
BITMAP
FFFC
0010
F810
21F0
2210
2210
1D10
0010
0010
0010
ENDCHAR
STARTCHAR uni091B094D0928
ENCODING -1
SWIDTH 977 0
DWIDTH 16 0
BBX 16 10 0 0
BITMAP
FFFF
4004
4604
417C
3144
4144
4144
4104
3E04
0004
ENDCHAR
STARTCHAR uni091C094D0928
ENCODING -1
SWIDTH 831 0
DWIDTH 13 0
BBX 14 10 0 0
BITMAP
FFFC
0010
0010
7FF0
1210
0A10
0810
1010
F010
0010
ENDCHAR
STARTCHAR uni091D094D0928
ENCODING -1
SWIDTH 935 0
DWIDTH 15 0
BBX 15 10 0 0
BITMAP
FFFE
0404
3C04
4078
3F84
0484
4404
4404
7C04
4004
ENDCHAR
STARTCHAR uni091F094D0928
ENCODING -1
SWIDTH 494 0
DWIDTH 8 0
BBX 8 14 0 -4
BITMAP
FF
04
04
3C
40
40
42
42
3C
04
3C
44
44
04
ENDCHAR
STARTCHAR uni0920094D0928
ENCODING -1
SWIDTH 516 0
DWIDTH 8 0
BBX 9 14 0 -4
BITMAP
FF80
0400
0400
3C00
4200
4200
4200
4200
3C00
0400
3C00
4400
4400
0400
ENDCHAR
STARTCHAR uni0921094D0928
ENCODING -1
SWIDTH 481 0
DWIDTH 8 0
BBX 8 14 0 -4
BITMAP
FF
04
3C
40
40
3C
02
42
3C
04
3C
44
44
04
ENDCHAR
STARTCHAR uni0924094D0928
ENCODING -1
SWIDTH 756 0
DWIDTH 12 0
BBX 12 10 0 0
BITMAP
FFF0
0020
0020
3FE0
4420
4420
4020
4020
6020
1020
ENDCHAR
STARTCHAR uni0925094D0928
ENCODING -1
SWIDTH 855 0
DWIDTH 14 0
BBX 13 10 1 0
BITMAP
77F8
9020
1020
F3E0
8220
8220
7E20
0020
0020
0020
ENDCHAR
STARTCHAR uni0926094D0928
ENCODING -1
SWIDTH 955 0
DWIDTH 15 0
BBX 16 13 0 -3
BITMAP
FFFF
0404
3C04
407C
4084
4284
4204
3E04
0204
0204
0200
0200
0100
ENDCHAR
STARTCHAR uni0927094D0928
ENCODING -1
SWIDTH 814 0
DWIDTH 13 0
BBX 13 10 0 0
BITMAP
F3F8
4010
4010
31F0
4210
4210
3E10
0010
0010
0010
ENDCHAR
STARTCHAR uni0928094D0928
ENCODING -1
SWIDTH 738 0
DWIDTH 12 0
BBX 12 10 0 0
BITMAP
FFF0
0040
0040
7FC0
4440
4440
0040
0040
0040
0040
ENDCHAR
STARTCHAR uni092A094D0928
ENCODING -1
SWIDTH 782 0
DWIDTH 13 0
BBX 13 10 0 0
BITMAP
FFF8
4020
4020
43E0
4220
3E20
0020
0020
0020
0020
ENDCHAR
STARTCHAR uni092B094D0928
ENCODING -1
SWIDTH 1013 0
DWIDTH 16 0
BBX 16 10 0 0
BITMAP
FFFF
4202
43C2
423E
4242
4442
3A42
0202
0202
0202
ENDCHAR
STARTCHAR uni092C094D0928
ENCODING -1
SWIDTH 810 0
DWIDTH 13 0
BBX 13 10 0 0
BITMAP
FFF8
0010
3010
61E0
5210
4A10
4410
3810
0010
0010
ENDCHAR
STARTCHAR uni092D094D0928
ENCODING -1
SWIDTH 757 0
DWIDTH 12 0
BBX 12 10 0 0
BITMAP
CFF0
4020
4020
43E0
7C20
4420
4020
0020
0020
0020
ENDCHAR
STARTCHAR uni092E094D0928
ENCODING -1
SWIDTH 757 0
DWIDTH 12 0
BBX 12 10 0 0
BITMAP
FFF0
4020
4020
43E0
7C20
4420
4020
0020
0020
0020
ENDCHAR
STARTCHAR uni092F094D0928
ENCODING -1
SWIDTH 829 0
DWIDTH 13 0
BBX 13 10 0 0
BITMAP
FFF8
1010
1010
71F0
4210
4210
3D10
0010
0010
0010
ENDCHAR
STARTCHAR uni0935094D0928
ENCODING -1
SWIDTH 798 0
DWIDTH 13 0
BBX 13 10 0 0
BITMAP
FFF8
0020
3020
43E0
4220
4220
4420
3820
0020
0020
ENDCHAR
STARTCHAR uni0936094D0928
ENCODING -1
SWIDTH 845 0
DWIDTH 14 0
BBX 13 10 1 0
BITMAP
73F8
9020
1020
13E0
F220
8220
4020
4020
2020
1020
ENDCHAR
STARTCHAR uni0938094D0928
ENCODING -1
SWIDTH 831 0
DWIDTH 13 0
BBX 14 10 0 0
BITMAP
FFFC
1010
1010
11F0
7E10
4210
4010
2010
1010
1010
ENDCHAR
STARTCHAR uni0939094D0928
ENCODING -1
SWIDTH 500 0
DWIDTH 8 0
BBX 8 11 0 -1
BITMAP
FF
02
3E
40
40
3E
46
4A
4A
48
3C
ENDCHAR
STARTCHAR uni0915094D0930
ENCODING -1
SWIDTH 725 0
DWIDTH 12 0
BBX 12 10 0 0
BITMAP
FFF0
0400
37C0
4420
4420
4420
4420
3DC0
1400
2400
ENDCHAR
STARTCHAR uni0916094D0930
ENCODING -1
SWIDTH 698 0
DWIDTH 11 0
BBX 11 10 0 0
BITMAP
FFE0
1040
1340
1440
6440
4440
23C0
2140
1240
0C40
ENDCHAR
STARTCHAR uni0917094D0930
ENCODING -1
SWIDTH 494 0
DWIDTH 8 0
BBX 8 10 0 0
BITMAP
FF
22
22
22
22
C4
0A
12
22
42
ENDCHAR
STARTCHAR uni0918094D0930
ENCODING -1
SWIDTH 559 0
DWIDTH 9 0
BBX 9 10 0 0
BITMAP
FF80
4100
4100
3100
4100
4100
4200
3D00
0900
3100
ENDCHAR
STARTCHAR uni0919094D0930
ENCODING -1
SWIDTH 505 0
DWIDTH 8 0
BBX 8 12 0 -2
BITMAP
FF
04
3C
40
41
3C
02
42
46
38
28
64
ENDCHAR
STARTCHAR uni091A094D0930
ENCODING -1
SWIDTH 563 0
DWIDTH 9 0
BBX 9 10 0 0
BITMAP
FF80
0100
F900
2100
2100
2100
2300
1D00
0900
1100
ENDCHAR
STARTCHAR uni091B094D0930
ENCODING -1
SWIDTH 581 0
DWIDTH 9 0
BBX 10 11 0 -1
BITMAP
FFC0
4100
4100
4600
3100
4100
4100
4100
3E00
1400
3200
ENDCHAR
STARTCHAR uni091C094D0930
ENCODING -1
SWIDTH 547 0
DWIDTH 9 0
BBX 9 10 0 0
BITMAP
FF80
0200
0200
7E00
1200
0A00
1200
F600
0A00
1200
ENDCHAR
STARTCHAR uni091D094D0930
ENCODING -1
SWIDTH 684 0
DWIDTH 11 0
BBX 11 10 0 0
BITMAP
FFE0
3C40
4040
4040
3F80
0440
4480
4480
7D40
4640
ENDCHAR
STARTCHAR uni091E094D0930
ENCODING -1
SWIDTH 598 0
DWIDTH 10 0
BBX 10 10 0 0
BITMAP
FFC0
0100
7100
0900
0F00
0900
0900
7300
0500
0900
ENDCHAR
STARTCHAR uni091F094D0930
ENCODING -1
SWIDTH 485 0
DWIDTH 8 0
BBX 8 11 0 -1
BITMAP
FF
04
3C
40
40
40
42
42
3C
18
26
ENDCHAR
STARTCHAR uni0920094D0930
ENCODING -1
SWIDTH 512 0
DWIDTH 8 0
BBX 8 11 0 -1
BITMAP
FF
04
3C
42
42
42
42
42
3C
18
26
ENDCHAR
STARTCHAR uni0921094D0930
ENCODING -1
SWIDTH 475 0
DWIDTH 8 0
BBX 8 12 0 -2
BITMAP
FF
04
3C
40
40
3C
02
42
44
38
24
64
ENDCHAR
STARTCHAR uni0922094D0930
ENCODING -1
SWIDTH 485 0
DWIDTH 8 0
BBX 8 11 0 -1
BITMAP
FF
04
3C
40
40
4E
4A
42
3E
18
26
ENDCHAR
STARTCHAR uni0923094D0930
ENCODING -1
SWIDTH 681 0
DWIDTH 11 0
BBX 11 10 0 0
BITMAP
FFE0
4440
4440
4440
4440
4480
3940
0240
0440
0440
ENDCHAR
STARTCHAR uni0924094D0930
ENCODING -1
SWIDTH 493 0
DWIDTH 8 0
BBX 8 10 0 0
BITMAP
FF
02
3A
44
42
42
0C
12
22
42
ENDCHAR
STARTCHAR uni0925094D0930
ENCODING -1
SWIDTH 593 0
DWIDTH 9 0
BBX 9 10 1 0
BITMAP
7380
9200
1200
F200
8200
8200
8200
7E00
1200
2200
ENDCHAR
STARTCHAR uni0926094D0930
ENCODING -1
SWIDTH 489 0
DWIDTH 8 0
BBX 8 10 0 0
BITMAP
FF
04
3C
40
40
42
42
3E
0A
12
ENDCHAR
STARTCHAR uni0927094D0930
ENCODING -1
SWIDTH 560 0
DWIDTH 9 0
BBX 9 10 0 0
BITMAP
F780
4100
4100
3100
4100
4100
4200
3D00
0900
1100
ENDCHAR
STARTCHAR uni0928094D0930
ENCODING -1
SWIDTH 473 0
DWIDTH 8 0
BBX 8 10 0 0
BITMAP
FF
04
04
7C
44
4C
0C
14
24
44
ENDCHAR
STARTCHAR uni092A094D0930
ENCODING -1
SWIDTH 503 0
DWIDTH 8 0
BBX 8 10 0 0
BITMAP
FF
42
42
42
42
3E
0A
12
22
42
ENDCHAR
STARTCHAR uni092B094D0930
ENCODING -1
SWIDTH 741 0
DWIDTH 12 0
BBX 12 10 0 0
BITMAP
FFF0
43C0
4220
4220
4420
3A20
0A20
12C0
2200
4200
ENDCHAR
STARTCHAR uni092C094D0930
ENCODING -1
SWIDTH 491 0
DWIDTH 8 0
BBX 8 10 0 0
BITMAP
FF
04
34
64
54
4C
44
3C
14
24
ENDCHAR
STARTCHAR uni092D094D0930
ENCODING -1
SWIDTH 491 0
DWIDTH 8 0
BBX 8 10 0 0
BITMAP
CF
44
44
44
7C
44
4C
14
24
42
ENDCHAR
STARTCHAR uni092E094D0930
ENCODING -1
SWIDTH 490 0
DWIDTH 8 0
BBX 8 10 0 0
BITMAP
FF
44
44
44
7C
44
4C
14
24
44
ENDCHAR
STARTCHAR uni092F094D0930
ENCODING -1
SWIDTH 564 0
DWIDTH 9 0
BBX 9 10 0 0
BITMAP
FF80
1100
1100
7100
4100
4100
4300
3D00
0900
3100
ENDCHAR
STARTCHAR uni0935094D0930
ENCODING -1
SWIDTH 484 0
DWIDTH 8 0
BBX 8 10 0 0
BITMAP
FF
04
34
44
44
44
44
3C
14
24
ENDCHAR
STARTCHAR uni0936094D0930
ENCODING -1
SWIDTH 558 0
DWIDTH 9 0
BBX 9 10 0 0
BITMAP
3980
4900
4900
4900
3100
6900
8700
0900
3100
0100
ENDCHAR
STARTCHAR uni0938094D0930
ENCODING -1
SWIDTH 604 0
DWIDTH 10 0
BBX 10 10 0 0
BITMAP
FFC0
1100
1100
1100
7F00
4300
4500
2900
1100
1100
ENDCHAR
STARTCHAR uni0939094D0930
ENCODING -1
SWIDTH 505 0
DWIDTH 8 0
BBX 8 11 0 -1
BITMAP
FF
02
3C
40
40
3E
46
4A
52
40
3C
ENDCHAR
STARTCHAR uni0915093C094D0930
ENCODING -1
SWIDTH 725 0
DWIDTH 12 0
BBX 12 11 0 -1
BITMAP
FFF0
0400
37C0
4420
4420
4420
4420
3DC0
1400
2400
1000
ENDCHAR
STARTCHAR uni0916093C094D0930
ENCODING -1
SWIDTH 698 0
DWIDTH 11 0
BBX 11 11 0 -1
BITMAP
FFE0
1040
1340
1440
6440
4440
23C0
2140
1240
0C40
0100
ENDCHAR
STARTCHAR uni0917093C094D0930
ENCODING -1
SWIDTH 494 0
DWIDTH 8 0
BBX 8 11 0 -1
BITMAP
FF
22
22
22
22
C4
0A
12
22
42
10
ENDCHAR
STARTCHAR uni091C093C094D0930
ENCODING -1
SWIDTH 547 0
DWIDTH 9 0
BBX 9 10 0 0
BITMAP
FF80
0200
0200
7E00
1200
0A00
1200
F600
0A00
9200
ENDCHAR
STARTCHAR uni0921093C094D0930
ENCODING -1
SWIDTH 475 0
DWIDTH 8 0
BBX 8 12 0 -2
BITMAP
FF
04
3C
40
40
3C
02
42
44
38
A4
64
ENDCHAR
STARTCHAR uni0922093C094D0930
ENCODING -1
SWIDTH 485 0
DWIDTH 8 0
BBX 8 11 0 -1
BITMAP
FF
04
3C
40
40
4E
4A
42
3E
98
26
ENDCHAR
STARTCHAR uni0928093C094D0930
ENCODING -1
SWIDTH 473 0
DWIDTH 8 0
BBX 8 11 0 -1
BITMAP
FF
04
04
7C
44
4C
0C
14
24
44
10
ENDCHAR
STARTCHAR uni092B093C094D0930
ENCODING -1
SWIDTH 741 0
DWIDTH 12 0
BBX 12 11 0 -1
BITMAP
FFF0
43C0
4220
4220
4420
3A20
0A20
12C0
2200
4200
1000
ENDCHAR
STARTCHAR uni092F093C094D0930
ENCODING -1
SWIDTH 564 0
DWIDTH 9 0
BBX 9 11 0 -1
BITMAP
FF80
1100
1100
7100
4100
4100
4300
3D00
0900
3100
0800
ENDCHAR
STARTCHAR uni0915094D0930094D
ENCODING -1
SWIDTH 518 0
DWIDTH 8 0
BBX 10 10 0 0
BITMAP
FFC0
0400
37C0
4440
4400
4400
4400
3C00
1400
2400
ENDCHAR
STARTCHAR uni0916094D0930094D
ENCODING -1
SWIDTH 469 0
DWIDTH 8 0
BBX 9 10 0 0
BITMAP
FF80
1000
1300
1400
6400
4480
2380
2100
1200
0E00
ENDCHAR
STARTCHAR uni0917094D0930094D
ENCODING -1
SWIDTH 264 0
DWIDTH 4 0
BBX 6 10 0 0
BITMAP
F0
20
20
20
24
C4
08
10
20
40
ENDCHAR
STARTCHAR uni0918094D0930094D
ENCODING -1
SWIDTH 319 0
DWIDTH 5 0
BBX 7 11 0 -1
BITMAP
FE
40
40
40
30
40
40
42
3C
08
30
ENDCHAR
STARTCHAR uni091A094D0930094D
ENCODING -1
SWIDTH 331 0
DWIDTH 5 0
BBX 7 10 0 0
BITMAP
FE
00
00
F8
20
20
20
22
1C
18
ENDCHAR
STARTCHAR uni091C094D0930094D
ENCODING -1
SWIDTH 312 0
DWIDTH 5 0
BBX 7 10 0 0
BITMAP
FE
00
00
7E
10
08
08
12
F4
18
ENDCHAR
STARTCHAR uni091D094D0930094D
ENCODING -1
SWIDTH 441 0
DWIDTH 7 0
BBX 9 10 0 0
BITMAP
FF80
0400
3C00
4000
4000
3F80
4480
4480
7D00
4600
ENDCHAR
STARTCHAR uni091E094D0930094D
ENCODING -1
SWIDTH 374 0
DWIDTH 6 0
BBX 8 10 0 0
BITMAP
FF
00
70
08
0F
09
09
72
04
08
ENDCHAR
STARTCHAR uni091F094D0930094D
ENCODING -1
SWIDTH 485 0
DWIDTH 8 0
BBX 8 14 0 -4
BITMAP
FF
04
04
3C
40
40
42
42
3C
18
26
08
08
04
ENDCHAR
STARTCHAR uni0920094D0930094D
ENCODING -1
SWIDTH 512 0
DWIDTH 8 0
BBX 8 14 0 -4
BITMAP
FF
04
04
3C
42
42
42
42
3C
18
24
0A
08
04
ENDCHAR
STARTCHAR uni0921094D0930094D
ENCODING -1
SWIDTH 475 0
DWIDTH 8 0
BBX 8 14 0 -4
BITMAP
FF
04
3C
40
40
3C
02
42
46
38
24
64
08
0C
ENDCHAR
STARTCHAR uni0922094D0930094D
ENCODING -1
SWIDTH 485 0
DWIDTH 8 0
BBX 8 14 0 -4
BITMAP
FF
04
3C
40
40
4E
4A
42
3E
18
24
0A
08
04
ENDCHAR
STARTCHAR uni0923094D0930094D
ENCODING -1
SWIDTH 457 0
DWIDTH 7 0
BBX 9 10 0 0
BITMAP
FE00
4400
4400
4400
4400
4480
3900
0200
0400
0400
ENDCHAR
STARTCHAR uni0924094D0930094D
ENCODING -1
SWIDTH 268 0
DWIDTH 4 0
BBX 7 10 0 0
BITMAP
FE
00
38
44
44
44
0C
10
20
40
ENDCHAR
STARTCHAR uni0925094D0930094D
ENCODING -1
SWIDTH 358 0
DWIDTH 6 0
BBX 7 11 1 -1
BITMAP
70
90
90
10
F0
80
80
82
7C
10
20
ENDCHAR
STARTCHAR uni0926094D0930094D
ENCODING -1
SWIDTH 489 0
DWIDTH 8 0
BBX 8 12 0 -2
BITMAP
FF
04
3C
40
40
42
42
3E
0A
12
0C
06
ENDCHAR
STARTCHAR uni0927094D0930094D
ENCODING -1
SWIDTH 322 0
DWIDTH 5 0
BBX 7 11 0 -1
BITMAP
F6
40
40
40
30
40
40
42
3C
08
10
ENDCHAR
STARTCHAR uni0928094D0930094D
ENCODING -1
SWIDTH 247 0
DWIDTH 4 0
BBX 6 10 0 0
BITMAP
FC
00
00
7C
44
44
08
10
20
40
ENDCHAR
STARTCHAR uni092A094D0930094D
ENCODING -1
SWIDTH 270 0
DWIDTH 4 0
BBX 6 10 0 0
BITMAP
F8
40
40
40
44
3C
08
10
20
40
ENDCHAR
STARTCHAR uni092B094D0930094D
ENCODING -1
SWIDTH 523 0
DWIDTH 8 0
BBX 10 10 0 0
BITMAP
FFC0
45C0
4640
4400
4400
3C00
1400
1400
2400
4400
ENDCHAR
STARTCHAR uni092C094D0930094D
ENCODING -1
SWIDTH 267 0
DWIDTH 4 0
BBX 6 11 0 -1
BITMAP
FC
00
30
40
60
50
4C
44
38
10
20
ENDCHAR
STARTCHAR uni092D094D0930094D
ENCODING -1
SWIDTH 257 0
DWIDTH 4 0
BBX 6 10 0 0
BITMAP
CC
40
40
40
7C
44
48
10
20
40
ENDCHAR
STARTCHAR uni092E094D0930094D
ENCODING -1
SWIDTH 261 0
DWIDTH 4 0
BBX 6 10 0 0
BITMAP
FC
40
40
40
7C
44
48
10
20
40
ENDCHAR
STARTCHAR uni092F094D0930094D
ENCODING -1
SWIDTH 323 0
DWIDTH 5 0
BBX 7 11 0 -1
BITMAP
FC
10
10
10
70
40
40
42
3C
08
30
ENDCHAR
STARTCHAR uni0935094D0930094D
ENCODING -1
SWIDTH 255 0
DWIDTH 4 0
BBX 6 11 0 -1
BITMAP
F8
00
30
40
40
40
40
44
38
10
20
ENDCHAR
STARTCHAR uni0938094D0930094D
ENCODING -1
SWIDTH 347 0
DWIDTH 6 0
BBX 8 10 0 0
BITMAP
FE
10
10
10
7F
42
44
28
10
10
ENDCHAR
STARTCHAR uni0915093C094D0930094D
ENCODING -1
SWIDTH 518 0
DWIDTH 8 0
BBX 10 11 0 -1
BITMAP
FFC0
0400
37C0
4440
4400
4400
4400
3C00
1400
2400
1000
ENDCHAR
STARTCHAR uni0916093C094D0930094D
ENCODING -1
SWIDTH 466 0
DWIDTH 7 0
BBX 9 11 0 -1
BITMAP
FF80
1000
1300
1400
6400
4480
2380
2100
1200
0E00
0100
ENDCHAR
STARTCHAR uni0917093C094D0930094D
ENCODING -1
SWIDTH 264 0
DWIDTH 4 0
BBX 6 11 0 -1
BITMAP
F0
20
20
20
24
C4
08
10
20
40
10
ENDCHAR
STARTCHAR uni091C093C094D0930094D
ENCODING -1
SWIDTH 320 0
DWIDTH 5 0
BBX 7 11 0 -1
BITMAP
FE
00
00
7E
10
08
0A
12
F4
18
80
ENDCHAR
STARTCHAR uni0928093C094D0930094D
ENCODING -1
SWIDTH 247 0
DWIDTH 4 0
BBX 6 11 0 -1
BITMAP
FC
00
00
7C
44
44
08
10
20
40
10
ENDCHAR
STARTCHAR uni092B093C094D0930094D
ENCODING -1
SWIDTH 523 0
DWIDTH 8 0
BBX 10 11 0 -1
BITMAP
FFC0
45C0
4640
4400
4400
3C00
1400
1400
2400
4400
1000
ENDCHAR
STARTCHAR uni092F093C094D0930094D
ENCODING -1
SWIDTH 323 0
DWIDTH 5 0
BBX 7 12 0 -2
BITMAP
FC
10
10
10
70
40
40
42
3C
08
30
08
ENDCHAR
STARTCHAR uni0915094D0915
ENCODING -1
SWIDTH 1255 0
DWIDTH 20 0
BBX 20 10 0 0
BITMAP
FFFFF0
040200
37FBC0
444220
444220
444220
444220
3C3EC0
040200
040200
ENDCHAR
STARTCHAR uni0915094D0916
ENCODING -1
SWIDTH 1256 0
DWIDTH 20 0
BBX 20 10 0 0
BITMAP
FFFFF0
040820
3789A0
444A20
447220
442220
4411E0
3C1020
040820
040820
ENDCHAR
STARTCHAR uni0915094D091A
ENCODING -1
SWIDTH 1086 0
DWIDTH 17 0
BBX 18 10 0 0
BITMAP
FFFFC0
040100
37FD00
442100
442100
442100
442100
3C1F00
040100
040100
ENDCHAR
STARTCHAR uni0915094D091C
ENCODING -1
SWIDTH 1071 0
DWIDTH 17 0
BBX 17 10 0 0
BITMAP
FFFF80
040100
37BF00
440900
440900
440900
440900
3C0900
047100
040100
ENDCHAR
STARTCHAR uni0915094D091F
ENCODING -1
SWIDTH 984 0
DWIDTH 16 0
BBX 16 10 0 0
BITMAP
FFFF
0404
37FC
4440
4440
4440
4442
3C42
043C
0400
ENDCHAR
STARTCHAR uni0915094D0923
ENCODING -1
SWIDTH 1183 0
DWIDTH 19 0
BBX 19 10 0 0
BITMAP
FFFFE0
044440
37C440
444440
444440
444440
443840
3C0040
040040
040040
ENDCHAR
STARTCHAR uni0915094D0924
ENCODING -1
SWIDTH 761 0
DWIDTH 12 0
BBX 12 10 0 0
BITMAP
FFF0
0200
7FC0
2220
2220
2220
2220
2220
1AC0
0200
ENDCHAR
STARTCHAR uni0915094D0925
ENCODING -1
SWIDTH 1118 0
DWIDTH 18 0
BBX 18 10 0 0
BITMAP
FFB8C0
042480
340480
47F880
444080
444080
442100
3C3E80
040080
040080
ENDCHAR
STARTCHAR uni0915094D0926
ENCODING -1
SWIDTH 1009 0
DWIDTH 16 0
BBX 16 10 0 0
BITMAP
FFFF
0402
37FE
4440
4440
4442
4442
3C3E
0402
0402
ENDCHAR
STARTCHAR uni0915094D092A
ENCODING -1
SWIDTH 1007 0
DWIDTH 16 0
BBX 16 10 0 0
BITMAP
FFFF
0442
37C2
4442
4442
4442
443E
3C02
0402
0402
ENDCHAR
STARTCHAR uni0915094D092B
ENCODING -1
SWIDTH 1242 0
DWIDTH 20 0
BBX 20 10 0 0
BITMAP
FFFFF0
044200
37C3C0
444220
444220
444420
443A20
3C02C0
040200
040200
ENDCHAR
STARTCHAR uni0915094D092E
ENCODING -1
SWIDTH 994 0
DWIDTH 16 0
BBX 16 10 0 0
BITMAP
FFFF
0442
37C2
4442
447C
4442
4442
3C02
0402
0402
ENDCHAR
STARTCHAR uni0915094D092F
ENCODING -1
SWIDTH 1076 0
DWIDTH 17 0
BBX 17 10 0 0
BITMAP
FFFF80
040900
340900
47F100
444100
444100
444100
3C3F00
040100
040100
ENDCHAR
STARTCHAR uni0915094D0932
ENCODING -1
SWIDTH 1178 0
DWIDTH 19 0
BBX 19 10 0 0
BITMAP
FFFFE0
040080
37FB80
444480
444480
444480
444080
3C4080
043080
040080
ENDCHAR
STARTCHAR uni0915094D0935
ENCODING -1
SWIDTH 1013 0
DWIDTH 16 0
BBX 16 10 0 0
BITMAP
FFFF
0402
37FA
4422
4442
4442
4442
3C3E
0402
0402
ENDCHAR
STARTCHAR uni0915094D0936
ENCODING -1
SWIDTH 1194 0
DWIDTH 19 0
BBX 19 10 0 0
BITMAP
FF9C60
042240
37C240
444240
443C40
442040
441040
3C0840
040840
040440
ENDCHAR
STARTCHAR uni0915094D0938
ENCODING -1
SWIDTH 1143 0
DWIDTH 18 0
BBX 19 10 0 0
BITMAP
FFFFE0
040880
37C880
444880
443F80
442080
441080
3C1080
040880
040880
ENDCHAR
STARTCHAR uni0916094D0916
ENCODING -1
SWIDTH 1223 0
DWIDTH 20 0
BBX 20 10 0 0
BITMAP
FFFFF0
100840
130B40
140A40
647440
444240
23A3C0
201040
101040
080840
ENDCHAR
STARTCHAR uni0916094D0924
ENCODING -1
SWIDTH 984 0
DWIDTH 16 0
BBX 16 10 0 0
BITMAP
FFFF
1004
1304
143C
6444
4444
23C4
2044
1044
0834
ENDCHAR
STARTCHAR uni0916094D092E
ENCODING -1
SWIDTH 965 0
DWIDTH 15 0
BBX 16 10 0 0
BITMAP
FFFF
1044
1344
1444
647C
4444
2384
2004
1004
0804
ENDCHAR
STARTCHAR uni0916094D092F
ENCODING -1
SWIDTH 1047 0
DWIDTH 17 0
BBX 17 10 0 0
BITMAP
FFFF80
101200
131200
146200
644200
444200
23C200
203E00
100200
080200
ENDCHAR
STARTCHAR uni0916094D0935
ENCODING -1
SWIDTH 975 0
DWIDTH 16 0
BBX 16 10 0 0
BITMAP
FFFF
1004
1334
1444
6444
4444
2444
23BC
1004
0804
ENDCHAR
STARTCHAR uni0916094D0936
ENCODING -1
SWIDTH 1123 0
DWIDTH 18 0
BBX 18 10 0 0
BITMAP
FF38C0
104480
134480
140480
64F880
444080
23C080
202080
101080
081080
ENDCHAR
STARTCHAR uni0917094D0917
ENCODING -1
SWIDTH 744 0
DWIDTH 12 0
BBX 12 10 0 0
BITMAP
FFF0
2220
2220
2220
2220
CC20
0020
0020
0020
0020
ENDCHAR
STARTCHAR uni0917094D0918
ENCODING -1
SWIDTH 823 0
DWIDTH 13 0
BBX 13 10 0 0
BITMAP
FFF8
2410
2410
2390
2410
C410
0410
03F0
0010
0010
ENDCHAR
STARTCHAR uni0917094D091C
ENCODING -1
SWIDTH 801 0
DWIDTH 13 0
BBX 13 10 0 0
BITMAP
FFF8
2020
2020
27E0
2120
C0A0
00A0
0120
0720
0020
ENDCHAR
STARTCHAR uni0917094D0923
ENCODING -1
SWIDTH 945 0
DWIDTH 15 0
BBX 15 10 0 0
BITMAP
FFFE
2444
2444
2444
2444
C444
0384
0004
0004
0004
ENDCHAR
STARTCHAR uni0917094D0926
ENCODING -1
SWIDTH 748 0
DWIDTH 12 0
BBX 12 10 0 0
BITMAP
FFF0
2020
23E0
2400
2400
C420
0420
03E0
0020
0020
ENDCHAR
STARTCHAR uni0917094D0927
ENCODING -1
SWIDTH 823 0
DWIDTH 13 0
BBX 13 10 0 0
BITMAP
FF78
2410
2410
2390
2410
C410
0410
03F0
0010
0010
ENDCHAR
STARTCHAR uni0917094D092C
ENCODING -1
SWIDTH 755 0
DWIDTH 12 0
BBX 12 10 0 0
BITMAP
FFF0
2020
23A0
2620
2520
C4A0
0460
03E0
0020
0020
ENDCHAR
STARTCHAR uni0917094D092D
ENCODING -1
SWIDTH 755 0
DWIDTH 12 0
BBX 12 10 0 0
BITMAP
FCF0
2420
2420
2420
27E0
C420
0420
0020
0020
0020
ENDCHAR
STARTCHAR uni0917094D092E
ENCODING -1
SWIDTH 754 0
DWIDTH 12 0
BBX 12 10 0 0
BITMAP
FFF0
2420
2420
2420
27E0
C420
0420
0020
0020
0020
ENDCHAR
STARTCHAR uni0917094D092F
ENCODING -1
SWIDTH 828 0
DWIDTH 13 0
BBX 13 10 0 0
BITMAP
FFF8
2090
2090
2710
2410
C410
0410
03F0
0010
0010
ENDCHAR
STARTCHAR uni0917094D0932
ENCODING -1
SWIDTH 924 0
DWIDTH 15 0
BBX 15 10 0 0
BITMAP
FFFE
2008
23B8
2448
2448
C448
0408
0408
0308
0008
ENDCHAR
STARTCHAR uni0917094D0935
ENCODING -1
SWIDTH 747 0
DWIDTH 12 0
BBX 12 10 0 0
BITMAP
FFF0
2020
23A0
2420
2420
C420
0460
03A0
0020
0020
ENDCHAR
STARTCHAR uni0917094D0938
ENCODING -1
SWIDTH 839 0
DWIDTH 13 0
BBX 14 10 0 0
BITMAP
FFFC
2110
2110
2110
27F0
C410
0210
0210
0110
0110
ENDCHAR
STARTCHAR uni0918094D092E
ENCODING -1
SWIDTH 818 0
DWIDTH 13 0
BBX 13 10 0 0
BITMAP
FFF8
4210
4210
3210
41F0
4210
4210
3E10
0010
0010
ENDCHAR
STARTCHAR uni0918094D092F
ENCODING -1
SWIDTH 867 0
DWIDTH 14 0
BBX 14 10 0 0
BITMAP
FFFC
4088
4088
3388
4208
4208
4210
3DE8
0008
0008
ENDCHAR
STARTCHAR uni091A094D091A
ENCODING -1
SWIDTH 868 0
DWIDTH 14 0
BBX 14 10 0 0
BITMAP
FFFC
0008
FBC8
2108
2208
2208
2310
1DE8
0008
0008
ENDCHAR
STARTCHAR uni091A094D091B
ENCODING -1
SWIDTH 922 0
DWIDTH 15 0
BBX 15 9 0 1
BITMAP
FFFE
0108
0108
F918
20C4
2104
2104
3F04
01F8
ENDCHAR
STARTCHAR uni091A094D092E
ENCODING -1
SWIDTH 830 0
DWIDTH 13 0
BBX 14 10 0 0
BITMAP
FFFC
0110
F910
2110
21F0
2110
2210
1E10
0010
0010
ENDCHAR
STARTCHAR uni091A094D092F
ENCODING -1
SWIDTH 904 0
DWIDTH 14 0
BBX 15 10 0 0
BITMAP
FFFE
0048
F848
2188
2208
2208
2308
1CF8
0008
0008
ENDCHAR
STARTCHAR uni091B094D092F
ENCODING -1
SWIDTH 1068 0
DWIDTH 17 0
BBX 17 10 0 0
BITMAP
FFFF80
400100
47F100
410900
310900
413100
412300
413D00
3E0100
000100
ENDCHAR
STARTCHAR uni091B094D0935
ENCODING -1
SWIDTH 581 0
DWIDTH 9 0
BBX 10 12 0 -2
BITMAP
FFC0
4100
4600
4100
3100
4100
4100
3F00
2100
2100
2200
3E00
ENDCHAR
STARTCHAR uni091C094D0915
ENCODING -1
SWIDTH 1054 0
DWIDTH 17 0
BBX 17 10 0 0
BITMAP
FFFF80
001000
01DE00
7E1100
121100
0A1100
0A2100
11D600
F01000
001000
ENDCHAR
STARTCHAR uni091C094D091C
ENCODING -1
SWIDTH 903 0
DWIDTH 14 0
BBX 15 10 0 0
BITMAP
FFFE
0008
0008
7DF8
1048
0848
0848
1048
F388
0008
ENDCHAR
STARTCHAR uni091C094D091D
ENCODING -1
SWIDTH 990 0
DWIDTH 16 0
BBX 16 10 0 0
BITMAP
FFFF
0024
01E4
7E04
1204
09FC
0A24
1224
F3E4
0204
ENDCHAR
STARTCHAR uni091C094D091F
ENCODING -1
SWIDTH 815 0
DWIDTH 13 0
BBX 13 9 0 1
BITMAP
FFF8
0020
01E0
7E00
1200
1200
1210
1210
F1F0
ENDCHAR
STARTCHAR uni091C094D0921
ENCODING -1
SWIDTH 797 0
DWIDTH 13 0
BBX 13 10 0 0
BITMAP
FFF8
0020
01E0
7E00
1200
11E0
1010
F210
0210
01E0
ENDCHAR
STARTCHAR uni091C094D0924
ENCODING -1
SWIDTH 830 0
DWIDTH 13 0
BBX 13 10 0 0
BITMAP
FFF8
0010
0010
7FF0
1210
1210
1210
1210
E110
0090
ENDCHAR
STARTCHAR uni091C094D0926
ENCODING -1
SWIDTH 817 0
DWIDTH 13 0
BBX 13 10 0 0
BITMAP
FFF8
0010
01F0
7E00
1200
0A10
0A10
11F0
F010
0010
ENDCHAR
STARTCHAR uni091C094D092C
ENCODING -1
SWIDTH 820 0
DWIDTH 13 0
BBX 13 10 0 0
BITMAP
FFF8
0010
01D0
7F10
1290
0A50
0A30
11F0
F010
0010
ENDCHAR
STARTCHAR uni091C094D092E
ENCODING -1
SWIDTH 813 0
DWIDTH 13 0
BBX 13 10 0 0
BITMAP
FFF8
0210
0210
7E10
13F0
0A10
0A10
1010
F010
0010
ENDCHAR
STARTCHAR uni091C094D092F
ENCODING -1
SWIDTH 893 0
DWIDTH 14 0
BBX 15 10 0 0
BITMAP
FFFE
0048
7E48
1388
1208
1208
1108
11F8
F008
0008
ENDCHAR
STARTCHAR uni091C094D0935
ENCODING -1
SWIDTH 813 0
DWIDTH 13 0
BBX 13 10 0 0
BITMAP
FFF8
0010
01D0
7E10
1210
0A10
0A10
11F0
F010
0010
ENDCHAR
STARTCHAR uni091D094D092E
ENCODING -1
SWIDTH 936 0
DWIDTH 15 0
BBX 15 10 0 0
BITMAP
FFFE
0484
3C84
4084
3FFC
0484
4484
4404
7C04
4004
ENDCHAR
STARTCHAR uni091D094D092F
ENCODING -1
SWIDTH 1000 0
DWIDTH 16 0
BBX 16 10 0 0
BITMAP
FFFF
0422
3C22
40E2
3F82
0482
4486
447A
7C02
4002
ENDCHAR
STARTCHAR uni091E094D091B
ENCODING -1
SWIDTH 913 0
DWIDTH 15 0
BBX 15 9 0 1
BITMAP
FFFE
0208
7208
0918
0F88
0A04
0A04
7208
01F8
ENDCHAR
STARTCHAR uni091E094D091C
ENCODING -1
SWIDTH 932 0
DWIDTH 15 0
BBX 15 10 0 0
BITMAP
FFFE
0004
0004
71F8
0824
0E24
0824
7024
01C4
0004
ENDCHAR
STARTCHAR uni091E094D0936
ENCODING -1
SWIDTH 975 0
DWIDTH 16 0
BBX 16 10 0 0
BITMAP
FDE7
0124
7124
0824
0FC4
0904
0884
7084
0044
0044
ENDCHAR
STARTCHAR uni091F094D091F
ENCODING -1
SWIDTH 494 0
DWIDTH 8 0
BBX 8 14 0 -4
BITMAP
FF
04
3C
40
40
42
42
3C
04
7C
40
42
42
3C
ENDCHAR
STARTCHAR uni091F094D0920
ENCODING -1
SWIDTH 495 0
DWIDTH 8 0
BBX 8 14 0 -4
BITMAP
FF
04
3C
40
40
42
42
3C
04
3C
42
42
42
3C
ENDCHAR
STARTCHAR uni091F094D092F
ENCODING -1
SWIDTH 990 0
DWIDTH 16 0
BBX 16 10 0 0
BITMAP
FFFF
0402
3FE2
4012
4012
42E2
4282
4244
3C7A
0002
ENDCHAR
STARTCHAR uni091F094D0935
ENCODING -1
SWIDTH 501 0
DWIDTH 8 0
BBX 8 12 0 -2
BITMAP
FF
04
04
3C
40
40
42
42
3E
42
42
3C
ENDCHAR
STARTCHAR uni0920094D092F
ENCODING -1
SWIDTH 998 0
DWIDTH 16 0
BBX 16 10 0 0
BITMAP
FFFF
0402
3DE2
4212
4212
4262
4282
4246
3C7A
0002
ENDCHAR
STARTCHAR uni0921094D0921
ENCODING -1
SWIDTH 493 0
DWIDTH 8 0
BBX 8 15 0 -5
BITMAP
FF
04
3C
40
40
3C
02
42
3C
40
40
3C
02
42
3C
ENDCHAR
STARTCHAR uni0921094D0922
ENCODING -1
SWIDTH 493 0
DWIDTH 8 0
BBX 8 14 0 -4
BITMAP
FF
04
3C
40
40
3C
02
42
3C
4E
4A
4A
42
3C
ENDCHAR
STARTCHAR uni0921094D092F
ENCODING -1
SWIDTH 973 0
DWIDTH 16 0
BBX 16 10 0 0
BITMAP
FFFF
0404
3FE4
4024
4024
3CE4
0284
427C
4404
3804
ENDCHAR
STARTCHAR uni0921094D0935
ENCODING -1
SWIDTH 493 0
DWIDTH 8 0
BBX 8 12 0 -2
BITMAP
FF
04
3C
40
40
3C
02
42
3E
42
42
3C
ENDCHAR
STARTCHAR uni0922094D092F
ENCODING -1
SWIDTH 981 0
DWIDTH 16 0
BBX 16 10 0 0
BITMAP
FFFF
0404
3FE4
4024
4024
4EE4
4A84
4284
3C7C
0004
ENDCHAR
STARTCHAR uni0923094D091F
ENCODING -1
SWIDTH 908 0
DWIDTH 15 0
BBX 15 9 0 1
BITMAP
FFFE
4408
4478
4480
4480
4480
3884
0084
0078
ENDCHAR
STARTCHAR uni0923094D0920
ENCODING -1
SWIDTH 936 0
DWIDTH 15 0
BBX 15 9 0 1
BITMAP
FFFE
4408
4478
4484
4484
4484
3884
0084
0078
ENDCHAR
STARTCHAR uni0923094D0921
ENCODING -1
SWIDTH 892 0
DWIDTH 14 0
BBX 15 10 0 0
BITMAP
FFFE
4408
44F8
4480
4480
44F8
3808
0088
0088
0070
ENDCHAR
STARTCHAR uni0923094D0922
ENCODING -1
SWIDTH 908 0
DWIDTH 15 0
BBX 15 9 0 1
BITMAP
FFFE
4408
4478
4480
4480
4498
38A4
0084
0078
ENDCHAR
STARTCHAR uni0923094D0923
ENCODING -1
SWIDTH 1127 0
DWIDTH 18 0
BBX 18 10 0 0
BITMAP
FFFFC0
448880
448880
448880
448880
448880
387080
000080
000080
000080
ENDCHAR
STARTCHAR uni0923094D092E
ENCODING -1
SWIDTH 932 0
DWIDTH 15 0
BBX 15 10 0 0
BITMAP
FFFE
4484
4484
4484
44F8
4484
3884
0004
0004
0004
ENDCHAR
STARTCHAR uni0923094D092F
ENCODING -1
SWIDTH 998 0
DWIDTH 16 0
BBX 16 10 0 0
BITMAP
FFFF
4422
4422
44E2
4482
4482
3886
007A
0002
0002
ENDCHAR
STARTCHAR uni0923094D0935
ENCODING -1
SWIDTH 923 0
DWIDTH 15 0
BBX 15 10 0 0
BITMAP
FFFE
4408
4468
4488
4488
4488
3888
0078
0008
0008
ENDCHAR
STARTCHAR uni0924094D0915
ENCODING -1
SWIDTH 992 0
DWIDTH 16 0
BBX 16 10 0 0
BITMAP
FFFF
0020
03BC
3C22
4422
4422
4442
43AC
4020
3020
ENDCHAR
STARTCHAR uni0924094D0916
ENCODING -1
SWIDTH 1014 0
DWIDTH 16 0
BBX 16 10 0 0
BITMAP
FFFF
0082
3C9A
44A2
43A2
4222
411E
4102
6082
1042
ENDCHAR
STARTCHAR uni0924094D0924
ENCODING -1
SWIDTH 542 0
DWIDTH 9 0
BBX 9 10 0 0
BITMAP
FF80
0200
0200
FE00
2200
2200
2200
2200
2200
1A00
ENDCHAR
STARTCHAR uni0924094D0925
ENCODING -1
SWIDTH 869 0
DWIDTH 14 0
BBX 14 10 0 0
BITMAP
FB8C
0248
0048
3F88
4408
4408
4210
43E8
4008
3008
ENDCHAR
STARTCHAR uni0924094D092A
ENCODING -1
SWIDTH 757 0
DWIDTH 12 0
BBX 12 10 0 0
BITMAP
FFF0
0420
0420
3C20
4420
4420
43E0
4020
4020
3020
ENDCHAR
STARTCHAR uni0924094D092B
ENCODING -1
SWIDTH 992 0
DWIDTH 16 0
BBX 16 10 0 0
BITMAP
FFFF
0420
043C
3C22
4422
4442
43A2
402C
4020
3020
ENDCHAR
STARTCHAR uni0924094D092E
ENCODING -1
SWIDTH 764 0
DWIDTH 12 0
BBX 12 10 0 0
BITMAP
FFF0
0220
0220
3C20
43E0
4220
4220
4020
4020
3020
ENDCHAR
STARTCHAR uni0924094D092F
ENCODING -1
SWIDTH 830 0
DWIDTH 13 0
BBX 14 10 0 0
BITMAP
FFFC
0090
0090
3F10
4410
4410
4210
43F0
4010
3010
ENDCHAR
STARTCHAR uni0924094D0932
ENCODING -1
SWIDTH 957 0
DWIDTH 15 0
BBX 16 10 0 0
BITMAP
FFFF
0004
3DBC
4644
4244
4244
4204
4204
6384
1004
ENDCHAR
STARTCHAR uni0924094D0935
ENCODING -1
SWIDTH 751 0
DWIDTH 12 0
BBX 12 10 0 0
BITMAP
FFF0
0020
03A0
3C20
4420
4420
4420
43E0
4020
3020
ENDCHAR
STARTCHAR uni0924094D0938
ENCODING -1
SWIDTH 876 0
DWIDTH 14 0
BBX 14 10 0 0
BITMAP
FFFC
0088
3888
4488
47F8
4208
4208
4108
6108
1088
ENDCHAR
STARTCHAR uni0925094D092F
ENCODING -1
SWIDTH 931 0
DWIDTH 15 0
BBX 14 10 1 0
BITMAP
77FC
9088
1088
F388
8208
8208
8210
7DE8
0008
0008
ENDCHAR
STARTCHAR uni0925094D0935
ENCODING -1
SWIDTH 862 0
DWIDTH 14 0
BBX 13 10 1 0
BITMAP
77F8
9020
91A0
F220
8220
8220
8220
7DE0
0020
0020
ENDCHAR
STARTCHAR uni0926094D0917
ENCODING -1
SWIDTH 489 0
DWIDTH 8 0
BBX 8 11 0 -1
BITMAP
FF
04
3C
40
42
42
42
3E
12
12
60
ENDCHAR
STARTCHAR uni0926094D0918
ENCODING -1
SWIDTH 686 0
DWIDTH 11 0
BBX 11 10 0 0
BITMAP
FFE0
0040
07C0
7800
4800
4840
3840
47C0
4440
7840
ENDCHAR
STARTCHAR uni0926094D0926
ENCODING -1
SWIDTH 506 0
DWIDTH 8 0
BBX 8 10 0 0
BITMAP
FF
02
3E
40
40
38
42
42
3E
02
ENDCHAR
STARTCHAR uni0926094D0927
ENCODING -1
SWIDTH 686 0
DWIDTH 11 0
BBX 11 10 0 0
BITMAP
FFE0
0040
07C0
6800
4800
4840
3840
47C0
4440
7840
ENDCHAR
STARTCHAR uni0926094D092C
ENCODING -1
SWIDTH 481 0
DWIDTH 8 0
BBX 8 12 0 -2
BITMAP
FF
04
3C
40
40
40
42
42
3E
52
4A
3C
ENDCHAR
STARTCHAR uni0926094D092D
ENCODING -1
SWIDTH 499 0
DWIDTH 8 0
BBX 8 13 0 -3
BITMAP
FF
02
3C
40
40
42
42
3E
42
22
3C
22
02
ENDCHAR
STARTCHAR uni0926094D092E
ENCODING -1
SWIDTH 706 0
DWIDTH 11 0
BBX 11 10 0 0
BITMAP
FFE0
3C40
4040
4040
4440
4440
3FC0
0440
0440
0040
ENDCHAR
STARTCHAR uni0926094D092F
ENCODING -1
SWIDTH 583 0
DWIDTH 9 0
BBX 10 10 0 0
BITMAP
FFC0
3900
4100
4100
3100
4100
4100
4100
3F00
0100
ENDCHAR
STARTCHAR uni0926094D0935
ENCODING -1
SWIDTH 483 0
DWIDTH 8 0
BBX 8 12 0 -2
BITMAP
FF
04
3C
40
40
40
42
42
3E
42
42
3C
ENDCHAR
STARTCHAR uni0927094D092E
ENCODING -1
SWIDTH 817 0
DWIDTH 13 0
BBX 13 10 0 0
BITMAP
F3F8
4210
4210
3210
41F0
4210
4210
3E10
0010
0010
ENDCHAR
STARTCHAR uni0927094D092F
ENCODING -1
SWIDTH 886 0
DWIDTH 14 0
BBX 14 10 0 0
BITMAP
F3FC
4088
4088
3388
4208
4208
4208
3FF8
0008
0008
ENDCHAR
STARTCHAR uni0927094D0935
ENCODING -1
SWIDTH 810 0
DWIDTH 13 0
BBX 13 10 0 0
BITMAP
F3F8
4010
41D0
3210
4210
4210
4230
3DD0
0010
0010
ENDCHAR
STARTCHAR uni0928094D0915
ENCODING -1
SWIDTH 973 0
DWIDTH 16 0
BBX 16 10 0 0
BITMAP
FFFF
0040
037C
7C42
8442
4442
0442
03DC
0040
0040
ENDCHAR
STARTCHAR uni0928094D091A
ENCODING -1
SWIDTH 820 0
DWIDTH 13 0
BBX 13 10 0 0
BITMAP
FFF8
0010
0790
0210
7A10
4210
4210
01F0
0010
0010
ENDCHAR
STARTCHAR uni0928094D091B
ENCODING -1
SWIDTH 781 0
DWIDTH 13 0
BBX 13 9 0 1
BITMAP
FFF8
0820
0820
0860
7E20
4820
4820
0820
07E0
ENDCHAR
STARTCHAR uni0928094D091F
ENCODING -1
SWIDTH 715 0
DWIDTH 11 0
BBX 12 9 0 1
BITMAP
FFF0
0040
03C0
7C00
8400
4400
0420
0420
03C0
ENDCHAR
STARTCHAR uni0928094D0921
ENCODING -1
SWIDTH 705 0
DWIDTH 11 0
BBX 12 10 0 0
BITMAP
FFF0
0040
07C0
7C00
4400
43C0
0040
0440
0440
0380
ENDCHAR
STARTCHAR uni0928094D0924
ENCODING -1
SWIDTH 717 0
DWIDTH 11 0
BBX 12 10 0 0
BITMAP
FFF0
0040
0040
7FC0
8440
4840
0840
0840
0440
0240
ENDCHAR
STARTCHAR uni0928094D0925
ENCODING -1
SWIDTH 804 0
DWIDTH 13 0
BBX 13 10 0 0
BITMAP
F718
0490
0090
7F10
8810
8820
4420
07D0
0010
0010
ENDCHAR
STARTCHAR uni0928094D0926
ENCODING -1
SWIDTH 724 0
DWIDTH 12 0
BBX 12 10 0 0
BITMAP
FFF0
0040
03C0
7C00
8400
4420
0440
03A0
0020
0020
ENDCHAR
STARTCHAR uni0928094D0927
ENCODING -1
SWIDTH 753 0
DWIDTH 12 0
BBX 12 10 0 0
BITMAP
FEF0
0820
0820
7F20
8820
4820
0820
07E0
0020
0020
ENDCHAR
STARTCHAR uni0928094D092A
ENCODING -1
SWIDTH 742 0
DWIDTH 12 0
BBX 12 10 0 0
BITMAP
FFF0
0420
0420
0420
7C20
4440
43A0
0020
0020
0020
ENDCHAR
STARTCHAR uni0928094D092B
ENCODING -1
SWIDTH 970 0
DWIDTH 16 0
BBX 16 10 0 0
BITMAP
FFFF
0440
047C
7C44
4442
8442
43C4
005C
0040
0040
ENDCHAR
STARTCHAR uni0928094D092D
ENCODING -1
SWIDTH 739 0
DWIDTH 12 0
BBX 12 10 0 0
BITMAP
FCF0
0440
0440
0440
7FC0
4440
4440
0040
0040
0040
ENDCHAR
STARTCHAR uni0928094D092E
ENCODING -1
SWIDTH 735 0
DWIDTH 12 0
BBX 12 10 0 0
BITMAP
FFF0
0440
0440
0440
7FC0
4440
4440
0040
0040
0040
ENDCHAR
STARTCHAR uni0928094D092F
ENCODING -1
SWIDTH 801 0
DWIDTH 13 0
BBX 13 10 0 0
BITMAP
FFF8
0120
0120
7E20
8420
4420
0420
03E0
0020
0020
ENDCHAR
STARTCHAR uni0928094D0935
ENCODING -1
SWIDTH 732 0
DWIDTH 12 0
BBX 12 10 0 0
BITMAP
FFF0
0040
0340
7C40
8440
4440
0440
03C0
0040
0040
ENDCHAR
STARTCHAR uni0928094D0938
ENCODING -1
SWIDTH 867 0
DWIDTH 14 0
BBX 14 10 0 0
BITMAP
FFFC
0088
0088
7908
87F0
4208
0208
0108
0108
0088
ENDCHAR
STARTCHAR uni0928094D0939
ENCODING -1
SWIDTH 714 0
DWIDTH 11 0
BBX 12 11 0 -1
BITMAP
FFF0
0040
03C0
0400
7C00
4400
43C0
0440
0440
0400
03C0
ENDCHAR
STARTCHAR uni092A094D091F
ENCODING -1
SWIDTH 489 0
DWIDTH 8 0
BBX 8 10 0 0
BITMAP
FF
42
42
42
3E
40
40
42
66
18
ENDCHAR
STARTCHAR uni092A094D0920
ENCODING -1
SWIDTH 506 0
DWIDTH 8 0
BBX 8 10 0 0
BITMAP
FF
42
42
42
3C
42
42
42
62
1C
ENDCHAR
STARTCHAR uni092A094D0924
ENCODING -1
SWIDTH 495 0
DWIDTH 8 0
BBX 8 10 0 0
BITMAP
FF
42
42
42
3C
42
42
42
42
32
ENDCHAR
STARTCHAR uni092A094D092A
ENCODING -1
SWIDTH 770 0
DWIDTH 12 0
BBX 13 10 0 0
BITMAP
FFF8
4420
4420
4420
4420
4220
3FE0
0020
0020
0020
ENDCHAR
STARTCHAR uni092A094D092B
ENCODING -1
SWIDTH 1003 0
DWIDTH 16 0
BBX 16 10 0 0
BITMAP
FFFF
4420
443C
4422
4422
4222
3FE2
002C
0020
0020
ENDCHAR
STARTCHAR uni092A094D092E
ENCODING -1
SWIDTH 774 0
DWIDTH 12 0
BBX 13 10 0 0
BITMAP
FFF8
4220
4220
4220
43E0
3E20
0220
0020
0020
0020
ENDCHAR
STARTCHAR uni092A094D092F
ENCODING -1
SWIDTH 855 0
DWIDTH 14 0
BBX 14 10 0 0
BITMAP
FFFC
4090
4090
4310
4210
4210
3E10
01F0
0010
0010
ENDCHAR
STARTCHAR uni092A094D0932
ENCODING -1
SWIDTH 960 0
DWIDTH 15 0
BBX 16 10 0 0
BITMAP
FFFF
4004
41BC
4244
4244
4444
3C04
0204
0384
0004
ENDCHAR
STARTCHAR uni092A094D0935
ENCODING -1
SWIDTH 780 0
DWIDTH 12 0
BBX 13 10 0 0
BITMAP
FFF8
4020
41A0
4220
4220
4220
3E20
01E0
0020
0020
ENDCHAR
STARTCHAR uni092A094D0938
ENCODING -1
SWIDTH 880 0
DWIDTH 14 0
BBX 14 10 0 0
BITMAP
FFFC
4088
4088
4088
47F8
4608
3E08
0108
0108
0088
ENDCHAR
STARTCHAR uni092B094D091C
ENCODING -1
SWIDTH 1100 0
DWIDTH 18 0
BBX 18 10 0 0
BITMAP
FFFFC0
420100
439F00
420900
420900
440900
3A0900
020900
027100
020100
ENDCHAR
STARTCHAR uni092B094D091F
ENCODING -1
SWIDTH 1006 0
DWIDTH 16 0
BBX 16 10 0 0
BITMAP
FFFF
4202
43DC
4220
4240
4440
3A42
0242
023E
0200
ENDCHAR
STARTCHAR uni092B094D0924
ENCODING -1
SWIDTH 1034 0
DWIDTH 17 0
BBX 17 10 0 0
BITMAP
FFFF80
420200
43C200
423E00
422200
442200
3A2200
022200
022200
021A00
ENDCHAR
STARTCHAR uni092B094D092A
ENCODING -1
SWIDTH 1021 0
DWIDTH 16 0
BBX 17 10 0 0
BITMAP
FFFF80
424200
43C200
424200
424200
442200
3A1E00
020200
020200
020200
ENDCHAR
STARTCHAR uni092B094D092B
ENCODING -1
SWIDTH 1256 0
DWIDTH 20 0
BBX 20 10 0 0
BITMAP
FFFFF0
424200
43C3C0
424220
424220
442220
3A1E20
0202C0
020200
020200
ENDCHAR
STARTCHAR uni092B094D092F
ENCODING -1
SWIDTH 1120 0
DWIDTH 18 0
BBX 18 10 0 0
BITMAP
FFFFC0
420900
420900
43F100
424100
444100
3A2100
021F00
020100
020100
ENDCHAR
STARTCHAR uni092B094D0932
ENCODING -1
SWIDTH 1202 0
DWIDTH 19 0
BBX 19 10 0 0
BITMAP
FFFFE0
420040
43DBC0
422440
424440
444440
3A4440
022040
023840
020040
ENDCHAR
STARTCHAR uni092B094D0936
ENCODING -1
SWIDTH 1211 0
DWIDTH 19 0
BBX 20 10 0 0
BITMAP
FFDC70
421240
43D240
424240
423C40
442040
3A1040
021040
020840
020840
ENDCHAR
STARTCHAR uni092C094D091C
ENCODING -1
SWIDTH 883 0
DWIDTH 14 0
BBX 14 10 0 0
BITMAP
FFFC
0008
3008
41F8
6048
5048
4848
4448
3F88
0008
ENDCHAR
STARTCHAR uni092C094D091D
ENCODING -1
SWIDTH 962 0
DWIDTH 15 0
BBX 16 11 0 -1
BITMAP
FFFF
33C4
4204
6204
5204
4BFC
4424
3C24
0224
03C4
0200
ENDCHAR
STARTCHAR uni092C094D0924
ENCODING -1
SWIDTH 786 0
DWIDTH 13 0
BBX 13 10 0 0
BITMAP
FFF8
0020
3020
63E0
5220
4A20
4420
3A20
0220
01A0
ENDCHAR
STARTCHAR uni092C094D0926
ENCODING -1
SWIDTH 775 0
DWIDTH 12 0
BBX 13 10 0 0
BITMAP
FFF8
0020
31E0
6200
5200
4A20
4620
39E0
0020
0020
ENDCHAR
STARTCHAR uni092C094D0927
ENCODING -1
SWIDTH 844 0
DWIDTH 14 0
BBX 14 10 0 0
BITMAP
FF3C
0210
3210
6190
5210
4A10
4610
3BF0
0010
0010
ENDCHAR
STARTCHAR uni092C094D092C
ENCODING -1
SWIDTH 783 0
DWIDTH 13 0
BBX 13 10 0 0
BITMAP
FFF8
0020
31A0
6220
53A0
4A60
4620
39E0
0020
0020
ENDCHAR
STARTCHAR uni092C094D092D
ENCODING -1
SWIDTH 764 0
DWIDTH 12 0
BBX 12 10 0 0
BITMAP
FCF0
0420
3220
6220
53E0
4A20
4420
3C20
0020
0020
ENDCHAR
STARTCHAR uni092C094D092F
ENCODING -1
SWIDTH 852 0
DWIDTH 14 0
BBX 14 10 0 0
BITMAP
FFFC
0090
3090
6310
5210
4A10
4610
3DF0
0010
0010
ENDCHAR
STARTCHAR uni092C094D0932
ENCODING -1
SWIDTH 961 0
DWIDTH 15 0
BBX 16 10 0 0
BITMAP
FFFF
0004
31BC
6244
5244
4A44
4404
3A04
0184
0004
ENDCHAR
STARTCHAR uni092C094D0935
ENCODING -1
SWIDTH 776 0
DWIDTH 12 0
BBX 13 10 0 0
BITMAP
FFF8
0020
31A0
6220
5220
4A20
4620
39E0
0020
0020
ENDCHAR
STARTCHAR uni092C094D0936
ENCODING -1
SWIDTH 926 0
DWIDTH 15 0
BBX 15 10 0 0
BITMAP
F9C6
0248
3248
6048
53C8
4A08
4508
3908
0088
0048
ENDCHAR
STARTCHAR uni092C094D0938
ENCODING -1
SWIDTH 897 0
DWIDTH 14 0
BBX 15 10 0 0
BITMAP
FFFE
0088
3088
6088
53F8
4A08
4508
3908
0088
0088
ENDCHAR
STARTCHAR uni092D094D092F
ENCODING -1
SWIDTH 827 0
DWIDTH 13 0
BBX 13 10 0 0
BITMAP
CFF8
4090
4090
4710
7C10
4410
4410
03F0
0010
0010
ENDCHAR
STARTCHAR uni092D094D0932
ENCODING -1
SWIDTH 941 0
DWIDTH 15 0
BBX 15 10 0 0
BITMAP
CFFE
4004
43BC
4444
7C44
4444
4404
0404
0384
0004
ENDCHAR
STARTCHAR uni092D094D0935
ENCODING -1
SWIDTH 755 0
DWIDTH 12 0
BBX 12 10 0 0
BITMAP
CFF0
4020
43A0
4420
7C20
4420
4420
03E0
0020
0020
ENDCHAR
STARTCHAR uni092E094D0924
ENCODING -1
SWIDTH 765 0
DWIDTH 12 0
BBX 12 10 0 0
BITMAP
FFF0
4020
4020
43E0
7C20
4420
4420
0420
0220
0120
ENDCHAR
STARTCHAR uni092E094D0926
ENCODING -1
SWIDTH 766 0
DWIDTH 12 0
BBX 12 10 0 0
BITMAP
FFF0
4020
43E0
4200
7C00
4420
4220
03E0
0020
0020
ENDCHAR
STARTCHAR uni092E094D092A
ENCODING -1
SWIDTH 762 0
DWIDTH 12 0
BBX 12 10 0 0
BITMAP
FFF0
4420
4420
4420
7C20
4420
43E0
0020
0020
0020
ENDCHAR
STARTCHAR uni092E094D092C
ENCODING -1
SWIDTH 768 0
DWIDTH 12 0
BBX 13 10 0 0
BITMAP
FFF8
4020
43A0
4220
7D20
44E0
4420
03E0
0020
0020
ENDCHAR
STARTCHAR uni092E094D092D
ENCODING -1
SWIDTH 768 0
DWIDTH 12 0
BBX 13 10 0 0
BITMAP
FCF8
4220
4220
4220
7FE0
4220
4220
0020
0020
0020
ENDCHAR
STARTCHAR uni092E094D092E
ENCODING -1
SWIDTH 759 0
DWIDTH 12 0
BBX 12 10 0 0
BITMAP
FFF0
4420
4420
4420
7FE0
4420
4420
0020
0020
0020
ENDCHAR
STARTCHAR uni092E094D092F
ENCODING -1
SWIDTH 834 0
DWIDTH 13 0
BBX 14 10 0 0
BITMAP
FFFC
4090
4090
4710
7C10
4410
4210
03F0
0010
0010
ENDCHAR
STARTCHAR uni092E094D0932
ENCODING -1
SWIDTH 945 0
DWIDTH 15 0
BBX 15 10 0 0
BITMAP
FFFE
4004
43BC
4244
7C44
4444
4404
0404
0384
0004
ENDCHAR
STARTCHAR uni092E094D0935
ENCODING -1
SWIDTH 761 0
DWIDTH 12 0
BBX 12 10 0 0
BITMAP
FFF0
4020
43A0
4420
7C20
4420
4420
03E0
0020
0020
ENDCHAR
STARTCHAR uni092E094D0936
ENCODING -1
SWIDTH 884 0
DWIDTH 14 0
BBX 14 10 0 0
BITMAP
F38C
4448
4448
4048
7F88
4408
4208
0108
0108
0088
ENDCHAR
STARTCHAR uni092E094D0938
ENCODING -1
SWIDTH 816 0
DWIDTH 13 0
BBX 13 10 0 0
BITMAP
FFF8
4110
4110
4110
7FF0
4410
4410
0210
0210
0110
ENDCHAR
STARTCHAR uni092E094D0939
ENCODING -1
SWIDTH 758 0
DWIDTH 12 0
BBX 12 11 0 -1
BITMAP
FFF0
4020
43E0
4200
4200
7E00
41C0
4220
0420
0200
03E0
ENDCHAR
STARTCHAR uni092F094D092F
ENCODING -1
SWIDTH 897 0
DWIDTH 14 0
BBX 15 10 0 0
BITMAP
FFFE
1048
1048
7388
4208
4208
4308
3CF8
0008
0008
ENDCHAR
STARTCHAR uni0930094D092F
ENCODING -1
SWIDTH 713 0
DWIDTH 11 0
BBX 12 10 0 0
BITMAP
FFF0
0240
8240
7C40
1040
1040
0840
07C0
0040
0040
ENDCHAR
STARTCHAR uni0930094D0939
ENCODING -1
SWIDTH 619 0
DWIDTH 10 0
BBX 10 11 0 -1
BITMAP
FFC0
0080
0F00
8800
7000
1000
0F00
1080
1080
1000
0F80
ENDCHAR
STARTCHAR uni0932094D0915
ENCODING -1
SWIDTH 1182 0
DWIDTH 19 0
BBX 19 10 0 0
BITMAP
FFFFE0
000400
3B7780
448440
448440
448440
408C40
407580
300400
000400
ENDCHAR
STARTCHAR uni0932094D0916
ENCODING -1
SWIDTH 1195 0
DWIDTH 19 0
BBX 19 10 0 0
BITMAP
FFFFE0
001040
3B1340
449440
446440
444440
4023C0
402040
301040
001040
ENDCHAR
STARTCHAR uni0932094D0917
ENCODING -1
SWIDTH 950 0
DWIDTH 15 0
BBX 15 10 0 0
BITMAP
FFFE
0044
3B44
4444
4444
44C4
4004
4004
3004
0004
ENDCHAR
STARTCHAR uni0932094D091C
ENCODING -1
SWIDTH 1035 0
DWIDTH 17 0
BBX 17 10 0 0
BITMAP
FFFF80
000200
3B7E00
441200
441200
441200
441200
401200
30E200
000200
ENDCHAR
STARTCHAR uni0932094D091F
ENCODING -1
SWIDTH 929 0
DWIDTH 15 0
BBX 15 9 0 1
BITMAP
FFFE
0008
3B78
4480
4480
4480
4084
4084
3078
ENDCHAR
STARTCHAR uni0932094D0920
ENCODING -1
SWIDTH 953 0
DWIDTH 15 0
BBX 15 9 0 1
BITMAP
FFFE
0008
3B78
4484
4484
4484
4084
4084
3078
ENDCHAR
STARTCHAR uni0932094D0921
ENCODING -1
SWIDTH 916 0
DWIDTH 15 0
BBX 15 10 0 0
BITMAP
FFFE
0008
3B78
4480
4480
4478
4004
4084
308C
0070
ENDCHAR
STARTCHAR uni0932094D0922
ENCODING -1
SWIDTH 924 0
DWIDTH 15 0
BBX 15 9 0 1
BITMAP
FFFE
0008
3B78
4480
4480
449C
4494
4084
307C
ENDCHAR
STARTCHAR uni0932094D0924
ENCODING -1
SWIDTH 929 0
DWIDTH 15 0
BBX 15 10 0 0
BITMAP
FFFE
0004
3B04
44F8
4484
4484
4084
4084
3084
0064
ENDCHAR
STARTCHAR uni0932094D0925
ENCODING -1
SWIDTH 1061 0
DWIDTH 17 0
BBX 17 10 0 0
BITMAP
FF7180
004900
3B0900
448900
44F100
448100
404300
407D00
300100
000100
ENDCHAR
STARTCHAR uni0932094D0926
ENCODING -1
SWIDTH 939 0
DWIDTH 15 0
BBX 15 10 0 0
BITMAP
FFFE
0004
3B7C
4480
4480
4484
4084
407C
3004
0004
ENDCHAR
STARTCHAR uni0932094D092A
ENCODING -1
SWIDTH 939 0
DWIDTH 15 0
BBX 15 10 0 0
BITMAP
FFFE
0084
3B84
4484
4484
4484
407C
4004
3004
0004
ENDCHAR
STARTCHAR uni0932094D092B
ENCODING -1
SWIDTH 1176 0
DWIDTH 19 0
BBX 19 10 0 0
BITMAP
FFFFE0
008400
3B8780
448440
448440
448840
447440
400580
300400
000400
ENDCHAR
STARTCHAR uni0932094D092C
ENCODING -1
SWIDTH 949 0
DWIDTH 15 0
BBX 15 10 0 0
BITMAP
FFFE
0004
3B74
44A4
4494
448C
4084
407C
3004
0004
ENDCHAR
STARTCHAR uni0932094D092D
ENCODING -1
SWIDTH 931 0
DWIDTH 15 0
BBX 15 10 0 0
BITMAP
FF9E
0084
3B84
4484
44F8
4484
4084
4004
3004
0004
ENDCHAR
STARTCHAR uni0932094D092E
ENCODING -1
SWIDTH 931 0
DWIDTH 15 0
BBX 15 10 0 0
BITMAP
FFFE
0084
3B84
4484
44F8
4484
4084
4004
3004
0004
ENDCHAR
STARTCHAR uni0932094D092F
ENCODING -1
SWIDTH 1033 0
DWIDTH 17 0
BBX 17 10 0 0
BITMAP
FFFF80
001200
3B9200
44E200
448200
448200
404200
403E00
300200
000200
ENDCHAR
STARTCHAR uni0932094D0932
ENCODING -1
SWIDTH 1112 0
DWIDTH 18 0
BBX 18 10 0 0
BITMAP
FFFFC0
000100
3B7700
448900
448900
448900
408100
408100
306100
000100
ENDCHAR
STARTCHAR uni0932094D0935
ENCODING -1
SWIDTH 940 0
DWIDTH 15 0
BBX 15 10 0 0
BITMAP
FFFE
0004
3B74
4484
4484
4484
4084
407C
3004
0004
ENDCHAR
STARTCHAR uni0932094D0938
ENCODING -1
SWIDTH 1068 0
DWIDTH 17 0
BBX 17 10 0 0
BITMAP
FFFF80
001100
3B1100
449100
44FF00
444100
404100
402100
301100
001100
ENDCHAR
STARTCHAR uni0932094D0939
ENCODING -1
SWIDTH 922 0
DWIDTH 15 0
BBX 15 10 0 0
BITMAP
FFFE
0008
3B78
4480
4480
4478
4084
4084
3080
0078
ENDCHAR
STARTCHAR uni0933094D092F
ENCODING -1
SWIDTH 1050 0
DWIDTH 17 0
BBX 17 10 0 0
BITMAP
FFFF80
001200
3B9200
446200
444200
444200
444200
3BBE00
000200
000200
ENDCHAR
STARTCHAR uni0935094D092F
ENCODING -1
SWIDTH 852 0
DWIDTH 14 0
BBX 14 10 0 0
BITMAP
FFFC
0090
3090
4310
4210
4210
4610
3DF0
0010
0010
ENDCHAR
STARTCHAR uni0935094D0932
ENCODING -1
SWIDTH 961 0
DWIDTH 15 0
BBX 16 10 0 0
BITMAP
FFFF
0004
33BC
4244
4244
4244
4404
3A04
0184
0004
ENDCHAR
STARTCHAR uni0935094D0935
ENCODING -1
SWIDTH 776 0
DWIDTH 12 0
BBX 13 10 0 0
BITMAP
FFF8
0020
31A0
4220
4220
4220
4220
3DE0
0020
0020
ENDCHAR
STARTCHAR uni0935094D0939
ENCODING -1
SWIDTH 754 0
DWIDTH 12 0
BBX 12 11 0 -1
BITMAP
FFF0
0020
33E0
4200
4400
4200
41C0
4620
3C00
0200
03E0
ENDCHAR
STARTCHAR uni0936094D0915
ENCODING -1
SWIDTH 1093 0
DWIDTH 17 0
BBX 17 10 1 0
BITMAP
73FF80
902000
91BE00
122200
F22100
822100
422200
41EE00
202000
102000
ENDCHAR
STARTCHAR uni0936094D091A
ENCODING -1
SWIDTH 950 0
DWIDTH 15 0
BBX 14 10 1 0
BITMAP
73FC
9008
13C8
1108
F108
8108
4108
40F8
2008
1008
ENDCHAR
STARTCHAR uni0936094D091B
ENCODING -1
SWIDTH 968 0
DWIDTH 15 0
BBX 15 10 1 0
BITMAP
F3FE
9208
1238
1208
F188
8208
4208
4208
21F8
1000
ENDCHAR
STARTCHAR uni0936094D091F
ENCODING -1
SWIDTH 854 0
DWIDTH 14 0
BBX 13 10 1 0
BITMAP
73F8
9020
11E0
1200
F200
8200
4210
4210
21E0
1000
ENDCHAR
STARTCHAR uni0936094D0924
ENCODING -1
SWIDTH 864 0
DWIDTH 14 0
BBX 13 10 1 0
BITMAP
73F8
9020
9020
11E0
F220
8220
4220
4220
2220
11A0
ENDCHAR
STARTCHAR uni0936094D092E
ENCODING -1
SWIDTH 885 0
DWIDTH 14 0
BBX 13 10 1 0
BITMAP
73F8
9210
9210
1210
F1F0
8210
4210
4010
2010
1010
ENDCHAR
STARTCHAR uni0936094D092F
ENCODING -1
SWIDTH 940 0
DWIDTH 15 0
BBX 14 10 1 0
BITMAP
73FC
9088
9088
1388
F208
8208
4218
41E8
2008
1008
ENDCHAR
STARTCHAR uni0936094D0932
ENCODING -1
SWIDTH 1039 0
DWIDTH 17 0
BBX 16 10 1 0
BITMAP
73FF
9004
11DC
1264
F224
8224
4204
4204
2184
1004
ENDCHAR
STARTCHAR uni0936094D0935
ENCODING -1
SWIDTH 850 0
DWIDTH 14 0
BBX 13 10 1 0
BITMAP
73F8
9020
91A0
1220
F220
8220
4220
41E0
2020
1020
ENDCHAR
STARTCHAR uni0936094D0936
ENCODING -1
SWIDTH 1009 0
DWIDTH 16 0
BBX 15 10 1 0
BITMAP
71C6
9224
9224
1024
F3C4
8204
4104
4084
2084
1044
ENDCHAR
STARTCHAR uni0937094D0915
ENCODING -1
SWIDTH 1039 0
DWIDTH 17 0
BBX 17 10 0 0
BITMAP
FFFF80
602000
51BE00
4A2100
462100
422100
3E2100
01EE00
002000
002000
ENDCHAR
STARTCHAR uni0937094D091F
ENCODING -1
SWIDTH 493 0
DWIDTH 8 0
BBX 8 10 0 0
BITMAP
FF
62
5A
46
3E
40
40
42
62
1C
ENDCHAR
STARTCHAR uni0937094D0920
ENCODING -1
SWIDTH 511 0
DWIDTH 8 0
BBX 8 10 0 0
BITMAP
FF
7E
7E
7E
3C
42
42
42
62
1C
ENDCHAR
STARTCHAR uni0937094D0923
ENCODING -1
SWIDTH 980 0
DWIDTH 16 0
BBX 16 10 0 0
BITMAP
FFFF
6224
5224
4A24
4624
4224
39C4
0004
0004
0004
ENDCHAR
STARTCHAR uni0937094D092A
ENCODING -1
SWIDTH 980 0
DWIDTH 16 0
BBX 16 10 0 0
BITMAP
FFFF
6224
5224
4A24
4624
4224
39C4
0004
0004
0004
ENDCHAR
STARTCHAR uni0937094D092B
ENCODING -1
SWIDTH 1036 0
DWIDTH 17 0
BBX 17 10 0 0
BITMAP
FFFF80
622000
523E00
4A2100
462100
422100
3DE100
002E00
002000
002000
ENDCHAR
STARTCHAR uni0937094D092E
ENCODING -1
SWIDTH 791 0
DWIDTH 13 0
BBX 13 10 0 0
BITMAP
FFF8
6220
5220
4A20
47E0
4220
3E20
0020
0020
0020
ENDCHAR
STARTCHAR uni0937094D092F
ENCODING -1
SWIDTH 877 0
DWIDTH 14 0
BBX 14 10 0 0
BITMAP
FFFC
6088
5088
4B88
4608
4208
3E18
01E8
0008
0008
ENDCHAR
STARTCHAR uni0937094D0935
ENCODING -1
SWIDTH 802 0
DWIDTH 13 0
BBX 13 10 0 0
BITMAP
FFF8
6020
51A0
4A20
4620
4220
3E20
01E0
0020
0020
ENDCHAR
STARTCHAR uni0937094D0937
ENCODING -1
SWIDTH 804 0
DWIDTH 13 0
BBX 13 10 0 0
BITMAP
FFF8
6310
5290
4A50
4620
4220
3DD0
0010
0010
0010
ENDCHAR
STARTCHAR uni0938094D0915
ENCODING -1
SWIDTH 1089 0
DWIDTH 17 0
BBX 18 10 0 0
BITMAP
FFFFC0
101000
10DF00
111100
7F1080
411080
411100
20F700
101000
101000
ENDCHAR
STARTCHAR uni0938094D0916
ENCODING -1
SWIDTH 990 0
DWIDTH 16 0
BBX 16 10 0 0
BITMAP
FFFF
1084
1094
10A4
7F24
4224
421C
2104
1084
1084
ENDCHAR
STARTCHAR uni0938094D091C
ENCODING -1
SWIDTH 970 0
DWIDTH 16 0
BBX 16 10 0 0
BITMAP
FFFF
1004
1004
10FC
7E24
4024
4024
2024
11C4
1004
ENDCHAR
STARTCHAR uni0938094D091F
ENCODING -1
SWIDTH 844 0
DWIDTH 14 0
BBX 14 10 0 0
BITMAP
FFFC
1010
10F0
1100
7F00
4100
4108
2108
10F0
1000
ENDCHAR
STARTCHAR uni0938094D0924
ENCODING -1
SWIDTH 852 0
DWIDTH 14 0
BBX 14 10 0 0
BITMAP
FFFC
1010
1010
11F0
7F10
4110
4110
2110
1110
10D0
ENDCHAR
STARTCHAR uni0938094D0925
ENCODING -1
SWIDTH 960 0
DWIDTH 15 0
BBX 16 10 0 0
BITMAP
FCE7
1124
1124
1024
7FC4
4104
4104
20FC
1004
1004
ENDCHAR
STARTCHAR uni0938094D0926
ENCODING -1
SWIDTH 851 0
DWIDTH 14 0
BBX 14 10 0 0
BITMAP
FFFC
1010
10F0
1100
7F00
4108
4108
20F8
1008
1008
ENDCHAR
STARTCHAR uni0938094D092A
ENCODING -1
SWIDTH 857 0
DWIDTH 14 0
BBX 14 10 0 0
BITMAP
FFFC
1110
1110
1110
7F10
4110
40F0
2010
1010
1010
ENDCHAR
STARTCHAR uni0938094D092B
ENCODING -1
SWIDTH 1092 0
DWIDTH 17 0
BBX 18 10 0 0
BITMAP
FFFFC0
111000
111F00
111100
7F1080
411080
40F100
201700
101000
101000
ENDCHAR
STARTCHAR uni0938094D092C
ENCODING -1
SWIDTH 857 0
DWIDTH 14 0
BBX 14 10 0 0
BITMAP
FFFC
1010
10D0
1190
7F50
4130
4110
20F0
1010
1010
ENDCHAR
STARTCHAR uni0938094D092E
ENCODING -1
SWIDTH 850 0
DWIDTH 14 0
BBX 14 10 0 0
BITMAP
FFFC
1110
1110
1110
7FF0
4110
4110
2010
1010
1010
ENDCHAR
STARTCHAR uni0938094D092F
ENCODING -1
SWIDTH 920 0
DWIDTH 15 0
BBX 15 10 0 0
BITMAP
FFFE
1048
1048
1188
7F08
4108
4108
20F8
1008
1008
ENDCHAR
STARTCHAR uni0938094D0932
ENCODING -1
SWIDTH 1027 0
DWIDTH 16 0
BBX 17 10 0 0
BITMAP
FFFF80
100200
10DE00
112200
7F2200
412200
410200
210200
11C200
100200
ENDCHAR
STARTCHAR uni0938094D0935
ENCODING -1
SWIDTH 842 0
DWIDTH 13 0
BBX 14 10 0 0
BITMAP
FFFC
1010
10D0
1110
7F10
4110
4110
20F0
1010
1010
ENDCHAR
STARTCHAR uni0938094D0938
ENCODING -1
SWIDTH 871 0
DWIDTH 14 0
BBX 14 10 0 0
BITMAP
FFFC
1088
1088
1088
7FF0
4208
4208
2108
1108
1088
ENDCHAR
STARTCHAR uni0939094D0923
ENCODING -1
SWIDTH 1136 0
DWIDTH 18 0
BBX 18 14 0 -4
BITMAP
FFFFC0
048880
3C8880
408880
408880
3C4880
427080
420080
400080
400080
3C0000
000000
080000
040000
ENDCHAR
STARTCHAR uni0939094D092E
ENCODING -1
SWIDTH 746 0
DWIDTH 12 0
BBX 12 11 0 -1
BITMAP
FFF0
0420
3C20
4020
4020
3C20
4420
43C0
4420
4420
3C00
ENDCHAR
STARTCHAR uni0939094D092F
ENCODING -1
SWIDTH 785 0
DWIDTH 13 0
BBX 13 12 0 -2
BITMAP
FFF8
0420
3C20
4020
4020
3F20
4120
4120
4720
4420
43E0
3820
ENDCHAR
STARTCHAR uni0939094D0932
ENCODING -1
SWIDTH 1110 0
DWIDTH 18 0
BBX 18 14 0 -4
BITMAP
FFFFC0
040100
3C0100
407700
408900
3C8900
428100
428100
406100
400100
3C0000
000000
080000
040000
ENDCHAR
STARTCHAR uni0939094D0935
ENCODING -1
SWIDTH 920 0
DWIDTH 15 0
BBX 15 14 0 -4
BITMAP
FFFE
0408
3C68
4088
4088
3C88
4488
4288
4278
4008
3C00
0000
0800
0400
ENDCHAR
STARTCHAR uni0915093C094D0915093C
ENCODING -1
SWIDTH 1275 0
DWIDTH 20 0
BBX 21 10 0 0
BITMAP
FFFFF8
040200
37DBE0
442220
442210
442210
442220
3C1EE0
040200
241200
ENDCHAR
STARTCHAR uni0915093C094D0924
ENCODING -1
SWIDTH 1016 0
DWIDTH 16 0
BBX 16 10 0 0
BITMAP
FFFF
0402
37C2
443E
4442
4442
4442
3C42
0422
2412
ENDCHAR
STARTCHAR uni0915093C094D092B
ENCODING -1
SWIDTH 1246 0
DWIDTH 20 0
BBX 20 10 0 0
BITMAP
FFFFF0
044200
37C3C0
444220
444220
444620
443A20
3C02C0
040200
240200
ENDCHAR
STARTCHAR uni0915093C094D092B093C
ENCODING -1
SWIDTH 1247 0
DWIDTH 20 0
BBX 20 10 0 0
BITMAP
FFFFF0
044200
37C3C0
444220
444220
444220
443E20
3C02C0
040200
242200
ENDCHAR
STARTCHAR uni0915093C094D092C
ENCODING -1
SWIDTH 1043 0
DWIDTH 17 0
BBX 17 10 0 0
BITMAP
FFFF80
040200
37DA00
443200
442A00
442600
442200
3C1E00
040200
240200
ENDCHAR
STARTCHAR uni0915093C094D092E
ENCODING -1
SWIDTH 998 0
DWIDTH 16 0
BBX 16 10 0 0
BITMAP
FFFF
0442
37C2
4442
447E
4442
4442
3C02
0402
2402
ENDCHAR
STARTCHAR uni0916093C094D0924
ENCODING -1
SWIDTH 984 0
DWIDTH 16 0
BBX 16 10 0 0
BITMAP
FFFF
1004
1304
143C
6444
4444
23C4
2044
1044
0934
ENDCHAR
STARTCHAR uni0916093C094D092E
ENCODING -1
SWIDTH 965 0
DWIDTH 15 0
BBX 16 10 0 0
BITMAP
FFFF
1044
1344
1444
647C
4444
2384
2004
1004
0904
ENDCHAR
STARTCHAR uni0916093C094D092F
ENCODING -1
SWIDTH 1045 0
DWIDTH 17 0
BBX 17 10 0 0
BITMAP
FFFF80
101200
131200
146200
644200
444200
23C200
203E00
100200
090200
ENDCHAR
STARTCHAR uni0916093C094D0935
ENCODING -1
SWIDTH 972 0
DWIDTH 16 0
BBX 16 10 0 0
BITMAP
FFFF
1004
1334
1444
6444
4444
23C4
203C
1004
0904
ENDCHAR
STARTCHAR uni0916093C094D0936
ENCODING -1
SWIDTH 1123 0
DWIDTH 18 0
BBX 18 10 0 0
BITMAP
FF38C0
104480
134480
140480
64F880
444080
23C080
202080
101080
091080
ENDCHAR
STARTCHAR uni0916093C094D0938
ENCODING -1
SWIDTH 1066 0
DWIDTH 17 0
BBX 17 10 0 0
BITMAP
FFFF80
101100
131100
141100
64FF00
444100
23C100
202100
102100
091100
ENDCHAR
STARTCHAR uni091C093C094D091C093C
ENCODING -1
SWIDTH 934 0
DWIDTH 15 0
BBX 15 10 0 0
BITMAP
FFFE
0008
0008
7DF8
1048
0848
0848
1048
F388
4108
ENDCHAR
STARTCHAR uni091C093C094D092F
ENCODING -1
SWIDTH 893 0
DWIDTH 14 0
BBX 15 10 0 0
BITMAP
FFFE
0048
7E48
1388
1208
1208
1108
11F8
F008
4008
ENDCHAR
STARTCHAR uni092B093C094D091C093C
ENCODING -1
SWIDTH 1100 0
DWIDTH 18 0
BBX 18 10 0 0
BITMAP
FFFFC0
420100
439F00
420900
420900
440900
3A0900
020900
027100
222100
ENDCHAR
STARTCHAR uni092B093C094D0924
ENCODING -1
SWIDTH 1036 0
DWIDTH 17 0
BBX 17 10 0 0
BITMAP
FFFF80
420200
43C200
423E00
422200
442200
3A2200
022200
022200
221A00
ENDCHAR
STARTCHAR uni092B093C094D092B093C
ENCODING -1
SWIDTH 1256 0
DWIDTH 20 0
BBX 20 10 0 0
BITMAP
FFFFF0
424200
43C3C0
424220
424220
442220
3A1E20
0202C0
020200
221200
ENDCHAR
STARTCHAR uni092B093C094D0938
ENCODING -1
SWIDTH 1141 0
DWIDTH 18 0
BBX 18 10 0 0
BITMAP
FFFFC0
420880
43C880
424880
423F80
442080
3A1080
021080
020880
220880
ENDCHAR
STARTCHAR uni092C094D091C093C
ENCODING -1
SWIDTH 883 0
DWIDTH 14 0
BBX 14 10 0 0
BITMAP
FFFC
0008
3008
41F8
6048
5048
4848
4448
3F88
0108
ENDCHAR
STARTCHAR uni0932094D091C093C
ENCODING -1
SWIDTH 1062 0
DWIDTH 17 0
BBX 17 11 0 -1
BITMAP
FFFF80
000200
3B7E00
441200
441200
441200
441200
401200
30E200
000200
004000
ENDCHAR
STARTCHAR uni0936094D0915093C
ENCODING -1
SWIDTH 1093 0
DWIDTH 17 0
BBX 17 10 1 0
BITMAP
73FF80
902000
91BE00
122200
F22100
822100
422200
41EE00
202000
112000
ENDCHAR
STARTCHAR uni0924094D0924094D
ENCODING -1
SWIDTH 309 0
DWIDTH 5 0
BBX 7 10 0 0
BITMAP
FE
00
00
FE
20
20
20
20
20
18
ENDCHAR
STARTCHAR uni0928094D092D094D
ENCODING -1
SWIDTH 505 0
DWIDTH 8 0
BBX 10 7 0 3
BITMAP
F8C0
0400
0400
0400
7C00
87C0
4400
ENDCHAR
STARTCHAR uni0928094D0938094D
ENCODING -1
SWIDTH 635 0
DWIDTH 10 0
BBX 12 10 0 0
BITMAP
FFF0
0080
0080
7C80
47F0
4200
0200
0100
0100
0080
ENDCHAR
STARTCHAR uni092E094D092D094D
ENCODING -1
SWIDTH 533 0
DWIDTH 9 0
BBX 10 7 0 3
BITMAP
FCC0
4400
4200
4200
4200
7FC0
4200
ENDCHAR
STARTCHAR uni0932094D092D094D
ENCODING -1
SWIDTH 694 0
DWIDTH 11 0
BBX 13 9 0 1
BITMAP
FF98
0080
3B80
4480
44F8
4480
4080
4000
3000
ENDCHAR
STARTCHAR uni0938094D0924094D0930094D
ENCODING -1
SWIDTH 575 0
DWIDTH 9 0
BBX 11 10 0 0
BITMAP
FFC0
1000
11C0
1220
7E20
4020
4060
2080
1100
1200
ENDCHAR
STARTCHAR uni0915094D0924094D092F
ENCODING -1
SWIDTH 1356 0
DWIDTH 22 0
BBX 22 10 0 0
BITMAP
FFFFFC
040090
37C090
443F10
444210
444210
444210
3C41F0
042010
041010
ENDCHAR
STARTCHAR uni0915094D0924094D0930
ENCODING -1
SWIDTH 997 0
DWIDTH 16 0
BBX 16 10 0 0
BITMAP
FFFF
0402
37FA
4444
4442
4442
440C
3C12
0422
0442
ENDCHAR
STARTCHAR uni0915094D0924094D0935
ENCODING -1
SWIDTH 1242 0
DWIDTH 20 0
BBX 20 10 0 0
BITMAP
FFFFF0
040020
37C320
443C20
444420
444420
444440
3C43A0
044020
043020
ENDCHAR
STARTCHAR uni0915094D092A094D0930
ENCODING -1
SWIDTH 1007 0
DWIDTH 16 0
BBX 16 10 0 0
BITMAP
FFFF
3442
47C2
4442
4442
443E
440A
3C12
0422
0442
ENDCHAR
STARTCHAR uni0915094D0935094D092F
ENCODING -1
SWIDTH 1384 0
DWIDTH 22 0
BBX 22 10 0 0
BITMAP
FFFFFC
040088
37F888
444388
444208
444208
442208
3C3DF8
040008
040008
ENDCHAR
STARTCHAR uni0915094D0938094D091F
ENCODING -1
SWIDTH 1376 0
DWIDTH 22 0
BBX 22 10 0 0
BITMAP
FFFFFC
040810
37C8F0
442900
443F00
442100
441108
3C1108
0408F0
040800
ENDCHAR
STARTCHAR uni0915094D0938094D0921
ENCODING -1
SWIDTH 1388 0
DWIDTH 22 0
BBX 22 10 0 0
BITMAP
FFFFFC
040808
37C8F8
442880
443F80
4420F8
441008
3C1088
040888
040870
ENDCHAR
STARTCHAR uni0915094D0938094D0924
ENCODING -1
SWIDTH 1423 0
DWIDTH 23 0
BBX 23 10 0 0
BITMAP
FFFFFE
040808
37C808
4428F8
443F88
442088
441088
3C1088
040888
040868
ENDCHAR
STARTCHAR uni0915094D0938094D092A094D0930
ENCODING -1
SWIDTH 1437 0
DWIDTH 23 0
BBX 23 10 0 0
BITMAP
FFFFFE
37C884
444884
442884
443F84
44207C
441014
3C1024
040844
040884
ENDCHAR
STARTCHAR uni0915094D0938094D092A094D0932
ENCODING -1
SWIDTH 1866 0
DWIDTH 30 0
BBX 30 10 0 0
BITMAP
FFFFFFFC
04088008
37C88768
44288890
443F8888
44208888
44107808
3C100808
04080608
04080008
ENDCHAR
STARTCHAR uni0917094D0927094D092F
ENCODING -1
SWIDTH 1156 0
DWIDTH 19 0
BBX 19 10 0 0
BITMAP
FF7FE0
240480
240480
239880
242080
C42080
041080
03EF80
000080
000080
ENDCHAR
STARTCHAR uni0917094D0927094D0935
ENCODING -1
SWIDTH 1084 0
DWIDTH 17 0
BBX 18 10 0 0
BITMAP
FF7FC0
240100
241D00
239100
242100
C42100
041100
03EF00
000100
000100
ENDCHAR
STARTCHAR uni0917094D0928094D092F
ENCODING -1
SWIDTH 1069 0
DWIDTH 17 0
BBX 17 10 0 0
BITMAP
FFFF80
201100
201100
27F100
244100
C44100
004300
003D00
000100
000100
ENDCHAR
STARTCHAR uni0917094D092D094D092F
ENCODING -1
SWIDTH 1102 0
DWIDTH 18 0
BBX 18 10 0 0
BITMAP
FCFFC0
220900
220900
223100
23C100
C22100
022100
001F00
000100
000100
ENDCHAR
STARTCHAR uni0917094D0930094D092F
ENCODING -1
SWIDTH 817 0
DWIDTH 13 0
BBX 13 10 0 0
BITMAP
FFF8
2110
2110
2710
2410
C410
0430
03D0
0090
0310
ENDCHAR
STARTCHAR uni091A094D091B094D0935
ENCODING -1
SWIDTH 913 0
DWIDTH 15 0
BBX 15 12 0 -2
BITMAP
FFFE
0108
0218
F908
20C4
2104
2204
2108
1FF8
0108
0108
00F0
ENDCHAR
STARTCHAR uni091C094D091C094D091E
ENCODING -1
SWIDTH 945 0
DWIDTH 15 0
BBX 15 10 0 0
BITMAP
FFFE
0004
01FC
7E04
1204
09E4
0A14
1214
F3E4
0204
ENDCHAR
STARTCHAR uni091C094D091C094D092F
ENCODING -1
SWIDTH 1252 0
DWIDTH 20 0
BBX 20 10 0 0
BITMAP
FFFFF0
000220
000220
7DFE20
104820
084820
084860
1047A0
F38020
000020
ENDCHAR
STARTCHAR uni091C094D091C094D0935
ENCODING -1
SWIDTH 1243 0
DWIDTH 20 0
BBX 19 10 0 0
BITMAP
FFFFE0
000080
000680
7DF880
104880
084880
084880
104780
F38080
000080
ENDCHAR
STARTCHAR uni0924094D0915094D092F
ENCODING -1
SWIDTH 1346 0
DWIDTH 22 0
BBX 22 10 0 0
BITMAP
FFFFFC
002090
03A090
3C3F10
442410
442410
442210
43E1F0
402010
302010
ENDCHAR
STARTCHAR uni0924094D0915094D0930
ENCODING -1
SWIDTH 995 0
DWIDTH 16 0
BBX 16 10 0 0
BITMAP
FFFF
0020
03BC
3C22
4422
4422
4422
43EC
4120
3220
ENDCHAR
STARTCHAR uni0924094D0915094D0935
ENCODING -1
SWIDTH 1282 0
DWIDTH 21 0
BBX 21 10 0 0
BITMAP
FFFFF8
002020
03BDA0
3C2220
442220
442220
446220
43A1E0
402020
302020
ENDCHAR
STARTCHAR uni0924094D0915094D0937
ENCODING -1
SWIDTH 943 0
DWIDTH 15 0
BBX 15 10 0 0
BITMAP
FDC6
0224
0224
3FFC
4204
4224
4224
43E4
4024
3024
ENDCHAR
STARTCHAR uni0924094D0916094D0930
ENCODING -1
SWIDTH 1008 0
DWIDTH 16 0
BBX 16 10 0 0
BITMAP
FFFF
0082
3C9A
44A2
4722
4222
411E
410A
6092
10A2
ENDCHAR
STARTCHAR uni0924094D0924094D092F
ENCODING -1
SWIDTH 888 0
DWIDTH 14 0
BBX 14 10 0 0
BITMAP
FFFC
0088
FC88
2388
2208
2208
2208
21F8
2008
1808
ENDCHAR
STARTCHAR uni0924094D0924094D0935
ENCODING -1
SWIDTH 788 0
DWIDTH 13 0
BBX 13 10 0 0
BITMAP
FFF8
0020
01A0
FE20
2220
2220
2220
21E0
2020
1820
ENDCHAR
STARTCHAR uni0924094D0928094D092F
ENCODING -1
SWIDTH 1098 0
DWIDTH 18 0
BBX 18 10 0 0
BITMAP
FFFFC0
000900
3C0900
43F100
442100
442100
402100
401F00
600100
100100
ENDCHAR
STARTCHAR uni0924094D092A094D0930
ENCODING -1
SWIDTH 763 0
DWIDTH 12 0
BBX 12 10 0 0
BITMAP
FFF0
0420
3C20
4420
4420
43E0
40A0
4120
6220
1420
ENDCHAR
STARTCHAR uni0924094D092A094D0932
ENCODING -1
SWIDTH 1219 0
DWIDTH 20 0
BBX 20 10 0 0
BITMAP
FFFFF0
040040
0419C0
3C2640
442440
442440
43E040
402040
403840
300040
ENDCHAR
STARTCHAR uni0924094D092E094D092F
ENCODING -1
SWIDTH 1096 0
DWIDTH 18 0
BBX 18 10 0 0
BITMAP
FFFFC0
040900
040900
3C3100
47C100
444100
442100
401F00
400100
300100
ENDCHAR
STARTCHAR uni0924094D0930094D092F
ENCODING -1
SWIDTH 848 0
DWIDTH 14 0
BBX 14 10 0 0
BITMAP
FFFC
0090
3C90
4710
4210
0210
0E10
11F0
2010
4010
ENDCHAR
STARTCHAR uni0924094D0938094D092F
ENCODING -1
SWIDTH 1234 0
DWIDTH 20 0
BBX 20 10 0 0
BITMAP
FFFFF0
008240
3C8240
448C40
43F840
420840
410840
4107C0
608040
108040
ENDCHAR
STARTCHAR uni0924094D0938094D0935
ENCODING -1
SWIDTH 1155 0
DWIDTH 18 0
BBX 19 10 0 0
BITMAP
FFFFE0
008080
3C8E80
448880
43F880
420880
410880
410780
608080
108080
ENDCHAR
STARTCHAR uni0926094D0917094D0930
ENCODING -1
SWIDTH 493 0
DWIDTH 8 0
BBX 8 13 0 -3
BITMAP
FF
04
3C
40
40
40
42
42
3E
12
16
6A
12
ENDCHAR
STARTCHAR uni0926094D092C094D0930
ENCODING -1
SWIDTH 483 0
DWIDTH 8 0
BBX 8 14 0 -4
BITMAP
FF
04
04
3C
40
40
42
42
3E
52
4A
3C
08
10
ENDCHAR
STARTCHAR uni0926094D092F094D092D
ENCODING -1
SWIDTH 607 0
DWIDTH 10 0
BBX 10 12 0 -2
BITMAP
FFC0
3900
4100
4100
3900
4100
4100
3F00
0500
E900
1100
0900
ENDCHAR
STARTCHAR uni0926094D092F094D0930
ENCODING -1
SWIDTH 595 0
DWIDTH 10 0
BBX 10 10 0 0
BITMAP
FFC0
3900
4100
4100
3100
4100
4100
4100
3F00
0D00
ENDCHAR
STARTCHAR uni0927094D0928094D092F
ENCODING -1
SWIDTH 1138 0
DWIDTH 18 0
BBX 18 10 0 0
BITMAP
F7FFC0
400480
400480
33F880
422080
422080
3E2080
001F80
000080
000080
ENDCHAR
STARTCHAR uni0928094D0915094D0938
ENCODING -1
SWIDTH 1384 0
DWIDTH 22 0
BBX 22 10 0 0
BITMAP
FFFFFC
004088
037888
7C4488
8447F8
444208
044208
03C108
004088
004088
ENDCHAR
STARTCHAR uni0928094D0924094D092F
ENCODING -1
SWIDTH 1073 0
DWIDTH 17 0
BBX 17 10 0 0
BITMAP
FFFF80
001100
001100
7FF100
444100
444100
044100
043F00
040100
030100
ENDCHAR
STARTCHAR uni0928094D0924094D0930
ENCODING -1
SWIDTH 732 0
DWIDTH 12 0
BBX 12 10 0 0
BITMAP
FFF0
0040
03C0
7C40
8440
4440
00C0
0140
0240
0440
ENDCHAR
STARTCHAR uni0928094D0924094D0938
ENCODING -1
SWIDTH 1134 0
DWIDTH 18 0
BBX 18 10 0 0
BITMAP
FFFFC0
000880
038880
7C4880
847F80
442080
042080
041080
040880
030880
ENDCHAR
STARTCHAR uni0928094D0925094D092F
ENCODING -1
SWIDTH 1168 0
DWIDTH 19 0
BBX 19 10 0 0
BITMAP
F3BFE0
048480
008480
7F9880
441080
441080
041080
03EF80
000080
000080
ENDCHAR
STARTCHAR uni0928094D0925094D0935
ENCODING -1
SWIDTH 1089 0
DWIDTH 17 0
BBX 18 10 0 0
BITMAP
F3BFC0
048100
048D00
7F9100
441100
441100
041100
03FF00
000100
000100
ENDCHAR
STARTCHAR uni0928094D0926094D0930
ENCODING -1
SWIDTH 734 0
DWIDTH 12 0
BBX 12 10 0 0
BITMAP
FFF0
0040
03C0
7C00
8400
4420
0420
03E0
00A0
0120
ENDCHAR
STARTCHAR uni0928094D0926094D0935
ENCODING -1
SWIDTH 732 0
DWIDTH 12 0
BBX 12 12 0 -2
BITMAP
FFF0
0040
03C0
0400
7C00
8400
4420
0420
03E0
0420
0420
03C0
ENDCHAR
STARTCHAR uni0928094D0927094D092F
ENCODING -1
SWIDTH 1097 0
DWIDTH 18 0
BBX 18 10 0 0
BITMAP
FE7FC0
040900
040900
7F3100
444100
444100
042100
07DF00
000100
000100
ENDCHAR
STARTCHAR uni0928094D0927094D0930
ENCODING -1
SWIDTH 783 0
DWIDTH 13 0
BBX 13 10 0 0
BITMAP
FE78
0420
0420
7F20
4420
4420
0420
03E0
00A0
0320
ENDCHAR
STARTCHAR uni0928094D0927094D0935
ENCODING -1
SWIDTH 1036 0
DWIDTH 17 0
BBX 17 10 0 0
BITMAP
FE7F80
040200
041A00
7F2200
442200
442200
042200
07DE00
000200
000200
ENDCHAR
STARTCHAR uni0928094D0928094D092F
ENCODING -1
SWIDTH 1071 0
DWIDTH 17 0
BBX 17 10 0 0
BITMAP
FFFF80
001100
001100
7FF100
844100
444100
004100
003F00
000100
000100
ENDCHAR
STARTCHAR uni0928094D092A094D0930
ENCODING -1
SWIDTH 737 0
DWIDTH 12 0
BBX 12 10 0 0
BITMAP
FFF0
0440
0440
7C40
8440
43C0
00C0
0140
0240
0440
ENDCHAR
STARTCHAR uni0928094D092B094D0930
ENCODING -1
SWIDTH 975 0
DWIDTH 16 0
BBX 16 10 0 0
BITMAP
FFFF
047C
0444
7C42
8442
43C2
0142
015C
0240
0440
ENDCHAR
STARTCHAR uni0928094D092D094D092F
ENCODING -1
SWIDTH 1071 0
DWIDTH 17 0
BBX 17 10 0 0
BITMAP
F8FF80
041100
041100
7C7100
47C100
444100
044100
003F00
000100
000100
ENDCHAR
STARTCHAR uni0928094D092D094D0935
ENCODING -1
SWIDTH 995 0
DWIDTH 16 0
BBX 16 10 0 0
BITMAP
F8FF
0402
043A
7C42
87C2
4442
0444
003A
0002
0002
ENDCHAR
STARTCHAR uni0928094D092E094D092F
ENCODING -1
SWIDTH 1071 0
DWIDTH 17 0
BBX 17 10 0 0
BITMAP
FFFF80
041100
041100
7C7100
47C100
444100
044100
003F00
000100
000100
ENDCHAR
STARTCHAR uni0928094D0938094D091F
ENCODING -1
SWIDTH 1113 0
DWIDTH 18 0
BBX 18 10 0 0
BITMAP
FFFFC0
010100
010F00
791000
47F000
441000
021080
021080
010F00
008000
ENDCHAR
STARTCHAR uni0928094D0938094D092E094D092F
ENCODING -1
SWIDTH 1453 0
DWIDTH 23 0
BBX 23 10 0 0
BITMAP
FFFFFE
011024
011024
7911C4
47FF04
441104
021104
0200FC
010004
010004
ENDCHAR
STARTCHAR uni0928094D0938094D092F
ENCODING -1
SWIDTH 1194 0
DWIDTH 19 0
BBX 19 10 0 0
BITMAP
FFFFE0
010440
010440
791C40
87F040
441040
0210C0
020F40
010040
010040
ENDCHAR
STARTCHAR uni092A094D0924094D092F
ENCODING -1
SWIDTH 1119 0
DWIDTH 18 0
BBX 18 10 0 0
BITMAP
FFFFC0
400880
400880
43F880
422080
442080
3C2100
021E80
020080
018080
ENDCHAR
STARTCHAR uni092C094D091C094D092F
ENCODING -1
SWIDTH 1235 0
DWIDTH 20 0
BBX 20 10 0 0
BITMAP
FFFFF0
000240
31F240
604C40
504840
504840
484840
4447C0
3F8040
000040
ENDCHAR
STARTCHAR uni092C094D0927094D0935
ENCODING -1
SWIDTH 1097 0
DWIDTH 18 0
BBX 18 10 0 0
BITMAP
FF3FC0
020100
320D00
619100
521100
4A1100
461100
3BEF00
000100
000100
ENDCHAR
STARTCHAR uni092C094D092D094D0930
ENCODING -1
SWIDTH 764 0
DWIDTH 12 0
BBX 12 10 0 0
BITMAP
FCF0
0420
3220
6220
53E0
4A60
44A0
3CA0
0120
0220
ENDCHAR
STARTCHAR uni092C094D0932094D092F
ENCODING -1
SWIDTH 480 0
DWIDTH 8 0
BBX 21 10 0 0
BITMAP
FFFFF8
000110
33B910
624710
524410
4A4410
440430
3A03D0
018010
000010
ENDCHAR
STARTCHAR uni092D094D0930094D092F
ENCODING -1
SWIDTH 830 0
DWIDTH 13 0
BBX 14 10 0 0
BITMAP
CFFC
4090
4090
4710
7C10
4410
4C10
13F0
2010
4010
ENDCHAR
STARTCHAR uni092E094D092A094D0930
ENCODING -1
SWIDTH 765 0
DWIDTH 12 0
BBX 12 10 0 0
BITMAP
FFF0
4420
4420
4420
7C20
43E0
00A0
0120
0220
0220
ENDCHAR
STARTCHAR uni092E094D092C094D092F
ENCODING -1
SWIDTH 1124 0
DWIDTH 18 0
BBX 18 10 0 0
BITMAP
FFFFC0
400880
438880
463880
7D2080
44A080
446180
03DE80
000080
000080
ENDCHAR
STARTCHAR uni092E094D092C094D0930
ENCODING -1
SWIDTH 768 0
DWIDTH 12 0
BBX 13 10 0 0
BITMAP
FFF8
4020
43A0
4220
7D20
44E0
4420
03E0
00A0
0320
ENDCHAR
STARTCHAR uni092E094D092D094D092F
ENCODING -1
SWIDTH 1101 0
DWIDTH 18 0
BBX 18 10 0 0
BITMAP
FCFFC0
420900
420900
423100
7FC100
422100
422100
001F00
000100
000100
ENDCHAR
STARTCHAR uni092E094D092D094D0930
ENCODING -1
SWIDTH 759 0
DWIDTH 12 0
BBX 12 10 0 0
BITMAP
FCF0
4420
4420
4420
7FE0
4460
44A0
0120
0120
0220
ENDCHAR
STARTCHAR uni092E094D092D094D0935
ENCODING -1
SWIDTH 1028 0
DWIDTH 16 0
BBX 17 10 0 0
BITMAP
FCFF80
420200
421A00
422200
7FE200
422200
422200
001E00
000200
000200
ENDCHAR
STARTCHAR uni0932094D0915094D092F
ENCODING -1
SWIDTH 1534 0
DWIDTH 25 0
BBX 25 10 0 0
BITMAP
FFFFFF80
00041200
3B741200
4487E200
44848200
44848200
40844200
407C3E00
30040200
00040200
ENDCHAR
STARTCHAR uni0932094D0925094D092F
ENCODING -1
SWIDTH 1397 0
DWIDTH 22 0
BBX 23 10 0 0
BITMAP
FF73FE
004848
3B0848
448B88
44F208
448208
404308
407CF8
300008
000008
ENDCHAR
STARTCHAR uni0932094D0926094D0930
ENCODING -1
SWIDTH 933 0
DWIDTH 15 0
BBX 15 10 0 0
BITMAP
FFFE
0004
3B7C
4480
4480
4484
4084
407C
3014
0024
ENDCHAR
STARTCHAR uni0932094D0932094D092F
ENCODING -1
SWIDTH 1476 0
DWIDTH 24 0
BBX 24 10 0 0
BITMAP
FFFFFF
000024
3B7724
4488C4
448884
448884
408084
40807C
307004
000004
ENDCHAR
STARTCHAR uni0932094D0935094D0921
ENCODING -1
SWIDTH 1247 0
DWIDTH 20 0
BBX 20 10 0 0
BITMAP
FFFFF0
000020
3B73C0
448400
448400
4483C0
408420
407C20
300420
0003C0
ENDCHAR
STARTCHAR uni0937094D0915094D0930
ENCODING -1
SWIDTH 1042 0
DWIDTH 17 0
BBX 17 10 0 0
BITMAP
FFFF80
602000
51AE00
4A3100
462100
422100
3E2100
01EE00
00A000
012000
ENDCHAR
STARTCHAR uni0937094D091F094D092F
ENCODING -1
SWIDTH 997 0
DWIDTH 16 0
BBX 16 10 0 0
BITMAP
FFFF
6202
5BE2
4612
7862
4082
4246
423A
6202
1C02
ENDCHAR
STARTCHAR uni0937094D091F094D0930
ENCODING -1
SWIDTH 493 0
DWIDTH 8 0
BBX 8 12 0 -2
BITMAP
FF
62
5A
46
3E
40
42
42
62
1C
24
26
ENDCHAR
STARTCHAR uni0937094D091F094D0935
ENCODING -1
SWIDTH 493 0
DWIDTH 8 0
BBX 8 12 0 -2
BITMAP
FF
62
5A
46
3E
40
42
42
3E
42
42
3C
ENDCHAR
STARTCHAR uni0937094D0920094D092F
ENCODING -1
SWIDTH 1006 0
DWIDTH 16 0
BBX 16 10 0 0
BITMAP
FFFF
7E02
7FE2
7E12
3C12
4262
4242
423E
6202
1C02
ENDCHAR
STARTCHAR uni0937094D0920094D0930
ENCODING -1
SWIDTH 512 0
DWIDTH 8 0
BBX 8 12 0 -2
BITMAP
FF
7E
7E
7E
3C
42
42
42
62
1C
24
66
ENDCHAR
STARTCHAR uni0937094D0923094D092F
ENCODING -1
SWIDTH 1273 0
DWIDTH 20 0
BBX 21 10 0 0
BITMAP
FFFFF8
622120
522120
4A2E20
462820
422820
3DC420
0003E0
000020
000020
ENDCHAR
STARTCHAR uni0937094D092A094D0930
ENCODING -1
SWIDTH 798 0
DWIDTH 13 0
BBX 13 10 0 0
BITMAP
FFF8
6220
5220
4A20
4620
4220
3DE0
00A0
0120
0220
ENDCHAR
STARTCHAR uni0937094D092E094D092F
ENCODING -1
SWIDTH 1121 0
DWIDTH 18 0
BBX 18 10 0 0
BITMAP
FFFFC0
620880
520880
4A3880
47E080
422080
3E2100
001E80
000080
000080
ENDCHAR
STARTCHAR uni0938094D0915094D0930
ENCODING -1
SWIDTH 1084 0
DWIDTH 17 0
BBX 18 10 0 0
BITMAP
FFFFC0
101000
11DF00
111100
7E1100
411100
411100
20F700
105000
109000
ENDCHAR
STARTCHAR uni0938094D0915094D0935
ENCODING -1
SWIDTH 1369 0
DWIDTH 22 0
BBX 22 10 0 0
BITMAP
FFFFFC
101008
11DEE8
111108
7E1108
411108
411110
20F0E8
101008
101008
ENDCHAR
STARTCHAR uni0938094D0924094D092F
ENCODING -1
SWIDTH 1185 0
DWIDTH 19 0
BBX 19 10 0 0
BITMAP
FFFFE0
100440
100440
10FC40
7F1040
411040
4110C0
210F40
110040
10C040
ENDCHAR
STARTCHAR uni0938094D0924094D0930
ENCODING -1
SWIDTH 818 0
DWIDTH 13 0
BBX 13 10 0 0
BITMAP
FFF8
1010
11F0
1210
7E10
4010
4030
20D0
1110
1210
ENDCHAR
STARTCHAR uni0938094D0924094D0935
ENCODING -1
SWIDTH 1126 0
DWIDTH 18 0
BBX 18 10 0 0
BITMAP
FFFFC0
100080
10FE80
111080
7F1080
411080
411080
210F80
110080
10C080
ENDCHAR
STARTCHAR uni0938094D0925094D092F
ENCODING -1
SWIDTH 1303 0
DWIDTH 21 0
BBX 21 10 0 0
BITMAP
FCEFF8
112120
102120
11E620
7F0420
410420
410420
20FBE0
100020
100020
ENDCHAR
STARTCHAR uni0938094D092A094D0930
ENCODING -1
SWIDTH 850 0
DWIDTH 14 0
BBX 14 10 0 0
BITMAP
FFFC
1110
1110
1110
7F10
41F0
4050
2050
1090
1110
ENDCHAR
STARTCHAR uni0938094D092E094D092F
ENCODING -1
SWIDTH 1189 0
DWIDTH 19 0
BBX 19 10 0 0
BITMAP
FFFFE0
110440
110440
111C40
7FF040
411040
4110C0
200F40
100040
100040
ENDCHAR
STARTCHAR uni093F.a01
ENCODING -1
SWIDTH 231 0
DWIDTH 4 0
BBX 8 14 0 0
BITMAP
3E
41
41
40
F0
40
40
40
40
40
40
40
40
40
ENDCHAR
STARTCHAR uni093F.a04
ENCODING -1
SWIDTH 231 0
DWIDTH 4 0
BBX 10 14 0 0
BITMAP
3F80
4040
4040
4000
F000
4000
4000
4000
4000
4000
4000
4000
4000
4000
ENDCHAR
STARTCHAR uni093F.a05
ENCODING -1
SWIDTH 231 0
DWIDTH 4 0
BBX 11 14 0 0
BITMAP
3FC0
4020
4020
4000
F000
4000
4000
4000
4000
4000
4000
4000
4000
4000
ENDCHAR
STARTCHAR uni093F.a06
ENCODING -1
SWIDTH 231 0
DWIDTH 4 0
BBX 12 14 0 0
BITMAP
3FE0
4010
4010
4000
F000
4000
4000
4000
4000
4000
4000
4000
4000
4000
ENDCHAR
STARTCHAR uni093F.a07
ENCODING -1
SWIDTH 231 0
DWIDTH 4 0
BBX 12 14 0 0
BITMAP
3FF0
4010
4010
4000
F000
4000
4000
4000
4000
4000
4000
4000
4000
4000
ENDCHAR
STARTCHAR uni093F.a08
ENCODING -1
SWIDTH 231 0
DWIDTH 4 0
BBX 13 14 0 0
BITMAP
3FF8
4008
4008
4000
F000
4000
4000
4000
4000
4000
4000
4000
4000
4000
ENDCHAR
STARTCHAR uni093F.a09
ENCODING -1
SWIDTH 231 0
DWIDTH 4 0
BBX 14 14 0 0
BITMAP
3FF8
4004
4004
4000
F000
4000
4000
4000
4000
4000
4000
4000
4000
4000
ENDCHAR
STARTCHAR uni093F.a10
ENCODING -1
SWIDTH 231 0
DWIDTH 4 0
BBX 15 14 0 0
BITMAP
3FFC
4002
4002
4000
F000
4000
4000
4000
4000
4000
4000
4000
4000
4000
ENDCHAR
STARTCHAR uni093F.a11
ENCODING -1
SWIDTH 231 0
DWIDTH 4 0
BBX 15 14 0 0
BITMAP
3FFE
4002
4002
4000
F000
4000
4000
4000
4000
4000
4000
4000
4000
4000
ENDCHAR
STARTCHAR uni093F.a12
ENCODING -1
SWIDTH 231 0
DWIDTH 4 0
BBX 16 14 0 0
BITMAP
3FFF
4001
4001
4000
F000
4000
4000
4000
4000
4000
4000
4000
4000
4000
ENDCHAR
STARTCHAR uni093F.a13
ENCODING -1
SWIDTH 231 0
DWIDTH 4 0
BBX 17 14 0 0
BITMAP
3FFF00
400080
400080
400000
F00000
400000
400000
400000
400000
400000
400000
400000
400000
400000
ENDCHAR
STARTCHAR uni093F.a14
ENCODING -1
SWIDTH 231 0
DWIDTH 4 0
BBX 18 14 0 0
BITMAP
3FFF80
400040
400040
400000
F00000
400000
400000
400000
400000
400000
400000
400000
400000
400000
ENDCHAR
STARTCHAR uni093F.a15
ENCODING -1
SWIDTH 231 0
DWIDTH 4 0
BBX 18 14 0 0
BITMAP
3FFFC0
400040
400040
400000
F00000
400000
400000
400000
400000
400000
400000
400000
400000
400000
ENDCHAR
STARTCHAR uni093F.a16
ENCODING -1
SWIDTH 231 0
DWIDTH 4 0
BBX 19 14 0 0
BITMAP
3FFFE0
400020
400020
400000
F00000
400000
400000
400000
400000
400000
400000
400000
400000
400000
ENDCHAR
STARTCHAR uni093F.a17
ENCODING -1
SWIDTH 231 0
DWIDTH 4 0
BBX 20 14 0 0
BITMAP
3FFFE0
400010
400010
400000
F00000
400000
400000
400000
400000
400000
400000
400000
400000
400000
ENDCHAR
STARTCHAR uni093F.a18
ENCODING -1
SWIDTH 231 0
DWIDTH 4 0
BBX 21 14 0 0
BITMAP
3FFFF0
400008
400008
400000
F00000
400000
400000
400000
400000
400000
400000
400000
400000
400000
ENDCHAR
STARTCHAR uni093F.a19
ENCODING -1
SWIDTH 231 0
DWIDTH 4 0
BBX 21 14 0 0
BITMAP
3FFFF8
400008
400008
400000
F00000
400000
400000
400000
400000
400000
400000
400000
400000
400000
ENDCHAR
STARTCHAR uni093F.a20
ENCODING -1
SWIDTH 231 0
DWIDTH 4 0
BBX 22 14 0 0
BITMAP
3FFFFC
400004
400004
400000
F00000
400000
400000
400000
400000
400000
400000
400000
400000
400000
ENDCHAR
STARTCHAR uni093F.a21
ENCODING -1
SWIDTH 231 0
DWIDTH 4 0
BBX 23 14 0 0
BITMAP
3FFFFC
400002
400002
400000
F00000
400000
400000
400000
400000
400000
400000
400000
400000
400000
ENDCHAR
STARTCHAR uni093F.a22
ENCODING -1
SWIDTH 231 0
DWIDTH 4 0
BBX 24 14 0 0
BITMAP
3FFFFE
400001
400001
400000
F00000
400000
400000
400000
400000
400000
400000
400000
400000
400000
ENDCHAR
STARTCHAR uni093F.a23
ENCODING -1
SWIDTH 231 0
DWIDTH 4 0
BBX 24 14 0 0
BITMAP
3FFFFF
400001
400001
400000
F00000
400000
400000
400000
400000
400000
400000
400000
400000
400000
ENDCHAR
STARTCHAR uni093F.a24
ENCODING -1
SWIDTH 231 0
DWIDTH 4 0
BBX 25 14 0 0
BITMAP
3FFFFF80
40000080
40000080
40000000
F0000000
40000000
40000000
40000000
40000000
40000000
40000000
40000000
40000000
40000000
ENDCHAR
STARTCHAR uni093F.a25
ENCODING -1
SWIDTH 231 0
DWIDTH 4 0
BBX 26 14 0 0
BITMAP
3FFFFF80
40000040
40000040
40000000
F0000000
40000000
40000000
40000000
40000000
40000000
40000000
40000000
40000000
40000000
ENDCHAR
STARTCHAR uni093F.a26
ENCODING -1
SWIDTH 231 0
DWIDTH 4 0
BBX 27 14 0 0
BITMAP
3FFFFFC0
40000020
40000020
40000000
F0000000
40000000
40000000
40000000
40000000
40000000
40000000
40000000
40000000
40000000
ENDCHAR
STARTCHAR uni093F.a32
ENCODING -1
SWIDTH 231 0
DWIDTH 4 0
BBX 32 14 0 0
BITMAP
3FFFFFFF
40000001
40000001
40000000
F0000000
40000000
40000000
40000000
40000000
40000000
40000000
40000000
40000000
40000000
ENDCHAR
STARTCHAR uni093E0901
ENCODING -1
SWIDTH 231 0
DWIDTH 4 0
BBX 5 14 -1 0
BITMAP
20
88
78
00
78
20
20
20
20
20
20
20
20
20
ENDCHAR
STARTCHAR dvNG_GA
ENCODING -1
SWIDTH 562 0
DWIDTH 9 0
BBX 9 14 0 -4
BITMAP
FF80
0200
3E00
4080
4000
3E00
0100
4100
3E00
2400
2400
2400
4400
0400
ENDCHAR
STARTCHAR dvNG_MA
ENCODING -1
SWIDTH 728 0
DWIDTH 12 0
BBX 12 14 0 -4
BITMAP
FFF0
0440
3C40
4040
4140
3C40
0240
4240
3C40
0440
07C0
0440
0440
0040
ENDCHAR
STARTCHAR dvNY_CA
ENCODING -1
SWIDTH 963 0
DWIDTH 15 0
BBX 16 10 0 0
BITMAP
FFFF
0004
71F4
0884
0E84
0884
0884
707C
0004
0004
ENDCHAR
STARTCHAR dvTT_GA
ENCODING -1
SWIDTH 510 0
DWIDTH 8 0
BBX 9 14 0 -4
BITMAP
FF80
0200
0200
3E00
4000
4000
4100
4200
3E00
2400
2400
2400
6400
0400
ENDCHAR
STARTCHAR dvTTH_TTHA
ENCODING -1
SWIDTH 511 0
DWIDTH 8 0
BBX 8 14 0 -4
BITMAP
FF
04
3C
42
42
42
42
3C
04
3C
42
42
42
3C
ENDCHAR
STARTCHAR dvDD_GA
ENCODING -1
SWIDTH 541 0
DWIDTH 9 0
BBX 9 14 0 -4
BITMAP
FF80
0200
3E00
4000
4000
3E00
0100
4100
3E00
2400
2400
2400
4400
0400
ENDCHAR
STARTCHAR dvDDH_DDHA
ENCODING -1
SWIDTH 487 0
DWIDTH 8 0
BBX 8 13 0 -3
BITMAP
FF
04
3C
40
4E
4A
42
3C
40
4E
4A
42
3C
ENDCHAR
STARTCHAR dvSHA_MatraVocalicR
ENCODING -1
SWIDTH 558 0
DWIDTH 9 0
BBX 9 14 0 -4
BITMAP
3980
4900
4900
2900
3100
CD00
0200
0100
0100
0600
0400
0800
0480
0700
ENDCHAR
STARTCHAR dvT_KH_NA
ENCODING -1
SWIDTH 1341 0
DWIDTH 21 0
BBX 22 10 0 0
BITMAP
FFFFFC
008010
3C9C10
44A3F0
472210
422310
411C10
410010
608010
108010
ENDCHAR
STARTCHAR dvT_S_NA
ENCODING -1
SWIDTH 1169 0
DWIDTH 19 0
BBX 19 10 0 0
BITMAP
FFFFE0
008080
3C8080
448F80
43F880
420880
410080
410080
608080
108080
ENDCHAR
ENDFONT
